{
.appVersion = "3134";
.formatVersion = 3;
DisplayStrings = (
j
);
customParameters = (
{
name = vendorID;
value = KrKo;
},
{
name = panose;
value = (
2,
0,
6,
9,
0,
0,
0,
0,
0,
0
);
},
{
name = unicodeRanges;
value = (
0,
1,
2,
3,
4,
5,
7,
31,
32,
33,
35,
36,
37,
38,
39,
40,
41,
43,
44,
45,
46,
47,
57,
60,
62,
69,
90,
122
);
},
{
name = codePageRanges;
value = (
"1252",
"1250",
"1253",
"1254",
"1257",
"bit 29",
"bit 30",
"bit 31",
"869",
"865",
"863",
"861",
"860",
"857",
"852",
"775",
"737",
"850",
"437"
);
},
{
name = fsType;
value = (
);
},
{
name = glyphOrder;
value = (
.notdef,
.null,
CR,
space,
exclam,
quotedbl,
numbersign,
dollar,
percent,
ampersand,
quotesingle,
parenleft,
parenright,
asterisk,
plus,
comma,
hyphen,
period,
slash,
zero,
one,
two,
three,
four,
five,
six,
seven,
eight,
nine,
colon,
semicolon,
less,
equal,
greater,
question,
at,
A,
B,
C,
D,
E,
F,
G,
H,
I,
J,
K,
L,
M,
N,
O,
P,
Q,
R,
S,
T,
U,
V,
W,
X,
Y,
Z,
bracketleft,
backslash,
bracketright,
asciicircum,
underscore,
grave,
a,
b,
c,
d,
e,
f,
g,
h,
i,
j,
k,
l,
m,
n,
o,
p,
q,
r,
s,
t,
u,
v,
w,
x,
y,
z,
braceleft,
bar,
braceright,
asciitilde,
uni007F,
uni00A0,
exclamdown,
cent,
sterling,
currency,
yen,
brokenbar,
section,
dieresis,
copyright,
ordfeminine,
guillemotleft,
logicalnot,
uni00AD,
registered,
macron,
degree,
plusminus,
uni00B2,
uni00B3,
acute,
mu,
paragraph,
periodcentered,
cedilla,
uni00B9,
ordmasculine,
guillemotright,
onequarter,
onehalf,
threequarters,
questiondown,
Agrave,
Aacute,
Acircumflex,
Atilde,
Adieresis,
Aring,
AE,
Ccedilla,
Egrave,
Eacute,
Ecircumflex,
Edieresis,
Igrave,
Iacute,
Icircumflex,
Idieresis,
Eth,
Ntilde,
Ograve,
Oacute,
Ocircumflex,
Otilde,
Odieresis,
multiply,
Oslash,
Ugrave,
Uacute,
Ucircumflex,
Udieresis,
Yacute,
Thorn,
germandbls,
agrave,
aacute,
acircumflex,
atilde,
adieresis,
aring,
ae,
ccedilla,
egrave,
eacute,
ecircumflex,
edieresis,
igrave,
iacute,
icircumflex,
idieresis,
eth,
ntilde,
ograve,
oacute,
ocircumflex,
otilde,
odieresis,
divide,
oslash,

glyphs = (
{
glyphname = .notdef;
layers = (
{
layerId = m01;
shapes = (
{
closed = 1;
nodes = (
(640,-80,l),
(640,560,l),
(80,560,l),
(80,-80,l)
);
},
{
closed = 1;
nodes = (
(400,0,l),
(320,0,l),
(320,80,l),
(400,80,l)
);
},
{
closed = 1;
nodes = (
(320,196,o),
(370,250,o),
(430,278,o),
(480,322,o),
(480,350,qs),
(480,371,o),
(410,400,o),
(360,400,qs),
(317,400,o),
(250,377,o),
(242,360,q),
(162,370,l),
(173,417,o),
(285,480,o),
(360,480,qs),
(443,480,o),
(560,404,o),
(560,350,qs),
(560,314,o),
(510,260,o),
(450,232,o),
(400,188,o),
(400,160,q),
(320,160,l)
);
}
);
width = 720;
}
);
note = ".notdef";
},
{
glyphname = exclam;
layers = (
{
layerId = m01;
shapes = (
{
closed = 1;
nodes = (
(400,0,l),
(400,80,l),
(320,80,l),
(320,0,l)
);
},
{
closed = 1;
nodes = (
(400,160,l),
(400,480,l),
(320,480,l),
(320,160,l)
);
}
);
width = 720;
}
);
note = exclam;
unicode = 33;
},
{
glyphname = quotedbl;
layers = (
{
layerId = m01;
shapes = (
{
closed = 1;
nodes = (
(480,280,l),
(480,480,l),
(400,480,l),
(400,280,l)
);
},
{
closed = 1;
nodes = (
(320,280,l),
(320,480,l),
(240,480,l),
(240,280,l)
);
}
);
width = 720;
}
);
note = quotedbl;
unicode = 34;
},
{
glyphname = numbersign;
layers = (
{
layerId = m01;
shapes = (
{
closed = 1;
nodes = (
(320,240,l),
(320,320,l),
(400,320,l),
(400,240,l)
);
},
{
closed = 1;
nodes = (
(560,400,l),
(480,400,l),
(480,480,l),
(400,480,l),
(400,400,l),
(320,400,l),
(320,480,l),
(240,480,l),
(240,400,l),
(160,400,l),
(160,320,l),
(240,320,l),
(240,240,l),
(160,240,l),
(160,160,l),
(240,160,l),
(240,80,l),
(320,80,l),
(320,160,l),
(400,160,l),
(400,80,l),
(480,80,l),
(480,160,l),
(560,160,l),
(560,240,l),
(480,240,l),
(480,320,l),
(560,320,l)
);
}
);
width = 720;
}
);
note = numbersign;
unicode = 35;
},
{
glyphname = dollar;
layers = (
{
layerId = m01;
shapes = (
{
closed = 1;
nodes = (
(186,118,o),
(164,151,q),
(80,137,l),
(106,84,o),
(212,12,o),
(280,3,q),
(280,-80,l),
(360,-80,l),
(360,2,l),
(445,10,o),
(560,89,o),
(560,140,qs),
(560,181,o),
(478,240,o),
(360,272,o),
(242,297,o),
(160,323,o),
(160,340,qs),
(160,364,o),
(254,400,o),
(320,400,qs),
(371,400,o),
(454,362,o),
(476,329,q),
(560,343,l),
(534,397,o),
(428,469,o),
(360,477,q),
(360,560,l),
(280,560,l),
(280,478,l),
(195,470,o),
(80,391,o),
(80,340,qs),
(80,299,o),
(162,240,o),
(280,208,o),
(398,183,o),
(480,157,o),
(480,140,qs),
(480,116,o),
(386,80,o),
(320,80,qs),
(269,80,o)
);
}
);
width = 720;
}
);
note = dollar;
unicode = 36;
},
{
glyphname = percent;
layers = (
{
layerId = m01;
shapes = (
{
closed = 1;
nodes = (
(548,372,l),
(492,428,l),
(172,108,l),
(228,52,l)
);
},
{
closed = 1;
nodes = (
(216,400,o),
(240,376,o),
(240,344,o),
(216,320,o),
(184,320,o),
(160,344,o),
(160,376,o),
(184,400,o)
);
},
{
closed = 1;
nodes = (
(250,240,o),
(320,310,o),
(320,410,o),
(250,480,o),
(150,480,o),
(80,410,o),
(80,310,o),
(150,240,o)
);
},
{
closed = 1;
nodes = (
(536,160,o),
(560,136,o),
(560,104,o),
(536,80,o),
(504,80,o),
(480,104,o),
(480,136,o),
(504,160,o)
);
},
{
closed = 1;
nodes = (
(570,0,o),
(640,70,o),
(640,170,o),
(570,240,o),
(470,240,o),
(400,170,o),
(400,70,o),
(470,0,o)
);
}
);
width = 720;
}
);
note = percent;
unicode = 37;
},
{
glyphname = ampersand;
layers = (
{
layerId = m01;
shapes = (
{
closed = 1;
nodes = (
(240,220,qs),
(289,220,o),
(376,122,q),
(315,80,o),
(240,80,qs),
(207,80,o),
(160,121,o),
(160,179,o),
(207,220,o)
);
},
{
closed = 1;
nodes = (
(160,371,o),
(207,400,o),
(273,400,o),
(320,371,o),
(320,329,o),
(273,300,o),
(207,300,o),
(160,329,o)
);
},
{
closed = 1;
nodes = (
(570,240,q),
(470,240,l),
(453,203,o),
(434,178,q),
(415,199,o),
(383,230,o),
(355,254,o),
(352,257,q),
(400,295,o),
(400,350,qs),
(400,404,o),
(306,480,o),
(174,480,o),
(80,404,o),
(80,350,qs),
(80,295,o),
(128,257,q),
(80,214,o),
(80,150,qs),
(80,88,o),
(174,0,o),
(240,0,qs),
(340,0,o),
(427,60,q),
(444,38,o),
(470,0,q),
(570,0,l),
(532,54,o),
(488,112,q),
(536,165,o)
);
}
);
width = 720;
}
);
note = ampersand;
unicode = 38;
},
{
glyphname = quotesingle;
layers = (
{
layerId = m01;
shapes = (
{
closed = 1;
nodes = (
(400,280,l),
(400,480,l),
(320,480,l),
(320,280,l)
);
}
);
width = 720;
}
);
note = quotesingle;
unicode = 39;
},
{
glyphname = parenleft;
layers = (
{
layerId = m01;
shapes = (
{
closed = 1;
nodes = (
(320,104,o),
(320,296,o),
(413,459,o),
(492,507,q),
(451,576,l),
(355,517,o),
(240,317,o),
(240,83,o),
(355,-117,o),
(451,-176,q),
(492,-107,l),
(413,-59,o)
);
}
);
width = 720;
}
);
note = parenleft;
unicode = 40;
},
{
glyphname = parenright;
layers = (
{
layerId = m01;
shapes = (
{
closed = 1;
nodes = (
(400,296,o),
(400,104,o),
(307,-59,o),
(228,-107,q),
(269,-176,l),
(365,-117,o),
(480,83,o),
(480,317,o),
(365,517,o),
(269,576,q),
(228,507,l),
(307,459,o)
);
}
);
width = 720;
}
);
note = parenright;
unicode = 41;
},
{
glyphname = asterisk;
layers = (
{
layerId = m01;
shapes = (
{
closed = 1;
nodes = (
(320,480,l),
(320,349,l),
(207,415,l),
(167,345,l),
(280,280,l),
(167,215,l),
(207,145,l),
(320,211,l),
(320,80,l),
(400,80,l),
(400,211,l),
(513,145,l),
(553,215,l),
(440,280,l),
(553,345,l),
(513,415,l),
(400,349,l),
(400,480,l)
);
}
);
width = 720;
}
);
note = asterisk;
unicode = 42;
},
{
glyphname = plus;
layers = (
{
layerId = m01;
shapes = (
{
closed = 1;
nodes = (
(160,240,l),
(160,160,l),
(320,160,l),
(320,0,l),
(400,0,l),
(400,160,l),
(560,160,l),
(560,240,l),
(400,240,l),
(400,400,l),
(320,400,l),
(320,240,l)
);
}
);
width = 720;
}
);
note = plus;
unicode = 43;
},
{
glyphname = comma;
layers = (
{
layerId = m01;
shapes = (
{
closed = 1;
nodes = (
(200,-97,l),
(337,40,l),
(280,97,l),
(143,-40,l)
);
}
);
width = 720;
}
);
note = comma;
unicode = 44;
},
{
glyphname = hyphen;
layers = (
{
layerId = m01;
shapes = (
{
closed = 1;
nodes = (
(560,160,l),
(560,240,l),
(160,240,l),
(160,160,l)
);
}
);
width = 720;
}
);
note = hyphen;
unicode = 45;
},
{
glyphname = period;
layers = (
{
layerId = m01;
shapes = (
{
closed = 1;
nodes = (
(341,0,o),
(370,29,o),
(370,71,o),
(341,100,o),
(299,100,o),
(270,71,o),
(270,29,o),
(299,0,o)
);
}
);
width = 720;
}
);
note = period;
unicode = 46;
},
{
glyphname = slash;
layers = (
{
layerId = m01;
shapes = (
{
closed = 1;
nodes = (
(668,452,l),
(612,508,l),
(52,-52,l),
(108,-108,l)
);
}
);
width = 720;
}
);
note = slash;
unicode = 47;
},
{
glyphname = zero;
layers = (
{
layerId = m01;
shapes = (
{
closed = 1;
nodes = (
(410,400,o),
(480,306,o),
(480,174,o),
(410,80,o),
(310,80,o),
(240,174,o),
(240,306,o),
(310,400,o)
);
},
{
closed = 1;
nodes = (
(442,0,o),
(560,141,o),
(560,339,o),
(442,480,o),
(278,480,o),
(160,339,o),
(160,141,o),
(278,0,o)
);
}
);
width = 720;
}
);
note = zero;
unicode = 48;
},
{
glyphname = one;
layers = (
{
layerId = m01;
shapes = (
{
closed = 1;
nodes = (
(400,375,l),
(399,0,l),
(480,0,l),
(480,480,l),
(431,480,l),
(226,378,l),
(262,306,l)
);
}
);
width = 720;
}
);
note = one;
unicode = 49;
},
{
glyphname = two;
layers = (
{
layerId = m01;
shapes = (
{
closed = 1;
nodes = (
(354,115,o),
(430,174,o),
(506,242,o),
(560,320,o),
(560,350,qs),
(560,404,o),
(443,480,o),
(360,480,qs),
(285,480,o),
(173,417,o),
(162,370,q),
(242,360,l),
(250,377,o),
(317,400,o),
(360,400,qs),
(410,400,o),
(480,371,o),
(480,350,qs),
(480,326,o),
(411,252,o),
(327,187,o),
(216,114,o),
(173,88,o),
(160,80,q),
(160,0,l),
(560,0,l),
(560,80,l),
(300,80,l),
(327,98,ls)
);
}
);
width = 720;
}
);
note = two;
unicode = 50;
},
{
glyphname = three;
layers = (
{
layerId = m01;
shapes = (
{
closed = 1;
nodes = (
(172,74,o),
(284,0,o),
(360,0,qs),
(443,0,o),
(560,88,o),
(560,150,qs),
(560,213,o),
(500,257,q),
(560,296,o),
(560,404,o),
(443,480,o),
(360,480,qs),
(285,480,o),
(173,417,o),
(162,370,q),
(242,360,l),
(250,377,o),
(317,400,o),
(360,400,qs),
(410,400,o),
(480,371,o),
(480,329,o),
(410,300,o),
(360,300,qs),
(320,300,l),
(320,220,l),
(360,220,ls),
(410,220,o),
(480,179,o),
(480,121,o),
(410,80,o),
(360,80,qs),
(315,80,o),
(247,114,o),
(241,140,q),
(162,130,l)
);
}
);
width = 720;
}
);
note = three;
unicode = 51;
},
{
glyphname = four;
layers = (
{
layerId = m01;
shapes = (
{
closed = 1;
nodes = (
(240,180,l),
(240,183,l),
(400,343,l),
(399,180,l)
);
},
{
closed = 1;
nodes = (
(399,100,l),
(399,0,l),
(480,0,l),
(480,100,l),
(560,100,l),
(560,180,l),
(480,180,l),
(480,480,l),
(423,480,l),
(160,217,l),
(160,100,l)
);
}
);
width = 720;
}
);
note = four;
unicode = 52;
},
{
glyphname = five;
layers = (
{
layerId = m01;
shapes = (
{
closed = 1;
nodes = (
(550,480,l),
(170,480,l),
(170,240,l),
(360,240,ls),
(410,240,o),
(480,193,o),
(480,127,o),
(410,80,o),
(360,80,qs),
(321,80,o),
(258,111,o),
(246,135,q),
(170,110,l),
(190,62,o),
(295,0,o),
(360,0,qs),
(442,0,o),
(560,94,o),
(560,226,o),
(442,320,o),
(360,320,qs),
(250,320,l),
(250,400,l),
(550,400,l)
);
}
);
width = 720;
}
);
note = five;
unicode = 53;
},
{
glyphname = six;
layers = (
{
layerId = m01;
shapes = (
{
closed = 1;
nodes = (
(443,480,o),
(360,480,qs),
(278,480,o),
(160,386,o),
(160,320,qs),
(160,160,ls),
(160,94,o),
(278,0,o),
(442,0,o),
(560,94,o),
(560,226,o),
(442,320,o),
(360,320,qs),
(293,320,o),
(240,288,q),
(240,320,ls),
(240,353,o),
(310,400,o),
(360,400,qs),
(404,400,o),
(437,381,q),
(501,433,l)
);
},
{
closed = 1;
nodes = (
(410,240,o),
(480,193,o),
(480,127,o),
(410,80,o),
(310,80,o),
(240,127,o),
(240,193,o),
(310,240,o)
);
}
);
width = 720;
}
);
note = six;
unicode = 54;
},
{
glyphname = seven;
layers = (
{
layerId = m01;
shapes = (
{
closed = 1;
nodes = (
(449,400,l),
(209,0,l),
(303,0,l),
(560,429,l),
(560,480,l),
(160,480,l),
(160,400,l)
);
}
);
width = 720;
}
);
note = seven;
unicode = 55;
},
{
glyphname = eight;
layers = (
{
layerId = m01;
shapes = (
{
closed = 1;
nodes = (
(410,220,o),
(480,179,o),
(480,121,o),
(410,80,o),
(310,80,o),
(240,121,o),
(240,179,o),
(310,220,o)
);
},
{
closed = 1;
nodes = (
(160,213,o),
(160,150,qs),
(160,88,o),
(277,0,o),
(443,0,o),
(560,88,o),
(560,150,qs),
(560,213,o),
(500,257,q),
(560,296,o),
(560,404,o),
(443,480,o),
(277,480,o),
(160,404,o),
(160,296,o),
(220,257,q)
);
},
{
closed = 1;
nodes = (
(240,371,o),
(310,400,o),
(410,400,o),
(480,371,o),
(480,329,o),
(410,300,o),
(310,300,o),
(240,329,o)
);
}
);
width = 720;
}
);
note = eight;
unicode = 56;
},
{
glyphname = nine;
layers = (
{
layerId = m01;
shapes = (
{
closed = 1;
nodes = (
(277,0,o),
(360,0,qs),
(442,0,o),
(560,94,o),
(560,160,qs),
(560,320,ls),
(560,386,o),
(442,480,o),
(278,480,o),
(160,386,o),
(160,254,o),
(278,160,o),
(360,160,qs),
(427,160,o),
(480,192,q),
(480,160,ls),
(480,127,o),
(410,80,o),
(360,80,qs),
(316,80,o),
(283,99,q),
(219,47,l)
);
},
{
closed = 1;
nodes = (
(310,240,o),
(240,287,o),
(240,353,o),
(310,400,o),
(410,400,o),
(480,353,o),
(480,287,o),
(410,240,o)
);
}
);
width = 720;
}
);
note = nine;
unicode = 57;
},
{
glyphname = colon;
layers = (
{
layerId = m01;
shapes = (
{
closed = 1;
nodes = (
(341,240,o),
(370,269,o),
(370,311,o),
(341,340,o),
(299,340,o),
(270,311,o),
(270,269,o),
(299,240,o)
);
},
{
closed = 1;
nodes = (
(341,0,o),
(370,29,o),
(370,71,o),
(341,100,o),
(299,100,o),
(270,71,o),
(270,29,o),
(299,0,o)
);
}
);
width = 720;
}
);
note = colon;
unicode = 58;
},
{
glyphname = semicolon;
layers = (
{
layerId = m01;
shapes = (
{
closed = 1;
nodes = (
(240,-97,l),
(377,40,l),
(320,97,l),
(183,-40,l)
);
},
{
closed = 1;
nodes = (
(341,240,o),
(370,269,o),
(370,311,o),
(341,340,o),
(299,340,o),
(270,311,o),
(270,269,o),
(299,240,o)
);
}
);
width = 720;
}
);
note = semicolon;
unicode = 59;
},
{
glyphname = less;
layers = (
{
layerId = m01;
shapes = (
{
closed = 1;
nodes = (
(412,-28,l),
(468,28,l),
(297,200,l),
(468,372,l),
(412,428,l),
(183,200,l)
);
}
);
width = 720;
}
);
note = less;
unicode = 60;
},
{
glyphname = equal;
layers = (
{
layerId = m01;
shapes = (
{
closed = 1;
nodes = (
(560,80,l),
(560,160,l),
(160,160,l),
(160,80,l)
);
},
{
closed = 1;
nodes = (
(560,240,l),
(560,320,l),
(160,320,l),
(160,240,l)
);
}
);
width = 720;
}
);
note = equal;
unicode = 61;
},
{
glyphname = greater;
layers = (
{
layerId = m01;
shapes = (
{
closed = 1;
nodes = (
(252,28,l),
(308,-28,l),
(537,200,l),
(308,428,l),
(252,372,l),
(423,200,l)
);
}
);
width = 720;
}
);
note = greater;
unicode = 62;
},
{
glyphname = question;
layers = (
{
layerId = m01;
shapes = (
{
closed = 1;
nodes = (
(400,0,l),
(400,80,l),
(320,80,l),
(320,0,l)
);
},
{
closed = 1;
nodes = (
(450,232,o),
(510,260,o),
(560,314,o),
(560,350,qs),
(560,404,o),
(443,480,o),
(360,480,qs),
(285,480,o),
(173,417,o),
(162,370,q),
(242,360,l),
(250,377,o),
(317,400,o),
(360,400,qs),
(410,400,o),
(480,371,o),
(480,350,qs),
(480,322,o),
(430,278,o),
(370,250,o),
(320,196,o),
(320,160,q),
(400,160,l),
(400,188,o)
);
}
);
width = 720;
}
);
note = question;
unicode = 63;
},
{
glyphname = at;
layers = (
{
layerId = m01;
shapes = (
{
closed = 1;
nodes = (
(320,184,o),
(320,216,o),
(367,240,o),
(400,240,qs),
(480,240,l),
(480,160,l),
(400,160,ls),
(367,160,o)
);
},
{
closed = 1;
nodes = (
(560,360,ls),
(560,409,o),
(466,480,o),
(400,480,qs),
(267,480,o),
(80,316,o),
(80,84,o),
(267,-80,o),
(400,-80,qs),
(440,-80,l),
(440,0,l),
(400,0,ls),
(301,0,o),
(160,118,o),
(160,282,o),
(301,400,o),
(400,400,qs),
(433,400,o),
(480,376,o),
(480,360,qs),
(480,320,l),
(400,320,ls),
(334,320,o),
(240,249,o),
(240,200,qs),
(240,150,o),
(334,80,o),
(400,80,qs),
(560,80,l)
);
}
);
width = 720;
}
);
note = at;
unicode = 64;
},
{
glyphname = A;
layers = (
{
layerId = m01;
shapes = (
{
closed = 1;
nodes = (
(343,400,l),
(480,263,l),
(480,260,l),
(160,260,l),
(160,263,l),
(297,400,l)
);
},
{
closed = 1;
nodes = (
(160,0,l),
(160,180,l),
(480,180,l),
(480,0,l),
(560,0,l),
(560,297,l),
(377,480,l),
(263,480,l),
(80,297,l),
(80,0,l)
);
}
);
width = 720;
}
);
note = A;
unicode = 65;
},
{
glyphname = B;
layers = (
{
layerId = m01;
shapes = (
{
closed = 1;
nodes = (
(431,400,o),
(460,371,o),
(460,329,o),
(431,300,o),
(410,300,qs),
(160,300,l),
(160,400,l),
(410,400,ls)
);
},
{
closed = 1;
nodes = (
(80,0,l),
(410,0,ls),
(472,0,o),
(560,88,o),
(560,150,qs),
(560,220,o),
(508,264,q),
(540,301,o),
(540,350,qs),
(540,404,o),
(464,480,o),
(410,480,qs),
(80,480,l)
);
},
{
closed = 1;
nodes = (
(160,220,l),
(410,220,ls),
(439,220,o),
(480,179,o),
(480,121,o),
(439,80,o),
(410,80,qs),
(160,80,l)
);
}
);
width = 720;
}
);
note = B;
unicode = 66;
},
{
glyphname = C;
layers = (
{
layerId = m01;
shapes = (
{
closed = 1;
nodes = (
(320,0,qs),
(390,0,o),
(507,75,o),
(537,137,q),
(453,151,l),
(405,80,o),
(320,80,qs),
(254,80,o),
(160,174,o),
(160,306,o),
(254,400,o),
(320,400,qs),
(405,400,o),
(453,329,q),
(537,343,l),
(507,405,o),
(390,480,o),
(320,480,qs),
(221,480,o),
(80,339,o),
(80,141,o),
(221,0,o)
);
}
);
width = 720;
}
);
note = C;
unicode = 67;
},
{
glyphname = D;
layers = (
{
layerId = m01;
shapes = (
{
closed = 1;
nodes = (
(386,400,o),
(480,306,o),
(480,174,o),
(386,80,o),
(320,80,qs),
(160,80,l),
(160,400,l),
(320,400,ls)
);
},
{
closed = 1;
nodes = (
(560,141,o),
(560,339,o),
(419,480,o),
(320,480,qs),
(80,480,l),
(80,0,l),
(320,0,ls),
(419,0,o)
);
}
);
width = 720;
}
);
note = D;
unicode = 68;
},
{
glyphname = E;
layers = (
{
layerId = m01;
shapes = (
{
closed = 1;
nodes = (
(560,480,l),
(80,480,l),
(80,0,l),
(560,0,l),
(560,80,l),
(160,80,l),
(160,220,l),
(440,220,l),
(440,300,l),
(160,300,l),
(160,400,l),
(560,400,l)
);
}
);
width = 720;
}
);
note = E;
unicode = 69;
},
{
glyphname = F;
layers = (
{
layerId = m01;
shapes = (
{
closed = 1;
nodes = (
(560,480,l),
(80,480,l),
(80,0,l),
(160,0,l),
(160,220,l),
(440,220,l),
(440,300,l),
(160,300,l),
(160,400,l),
(560,400,l)
);
}
);
width = 720;
}
);
note = F;
unicode = 70;
},
{
glyphname = G;
layers = (
{
layerId = m01;
shapes = (
{
closed = 1;
nodes = (
(320,80,ls),
(254,80,o),
(160,174,o),
(160,306,o),
(254,400,o),
(320,400,qs),
(405,400,o),
(453,329,q),
(537,343,l),
(507,405,o),
(390,480,o),
(320,480,qs),
(221,480,o),
(80,339,o),
(80,141,o),
(221,0,o),
(320,0,qs),
(540,0,l),
(540,260,l),
(320,260,l),
(320,180,l),
(460,180,l),
(460,80,l)
);
}
);
width = 720;
}
);
note = G;
unicode = 71;
},
{
glyphname = H;
layers = (
{
layerId = m01;
shapes = (
{
closed = 1;
nodes = (
(160,0,l),
(160,220,l),
(480,220,l),
(480,0,l),
(560,0,l),
(560,480,l),
(480,480,l),
(480,300,l),
(160,300,l),
(160,480,l),
(80,480,l),
(80,0,l)
);
}
);
width = 720;
}
);
note = H;
unicode = 72;
},
{
glyphname = I;
layers = (
{
layerId = m01;
shapes = (
{
closed = 1;
nodes = (
(320,400,l),
(320,80,l),
(240,80,l),
(240,0,l),
(480,0,l),
(480,80,l),
(400,80,l),
(400,400,l),
(480,400,l),
(480,480,l),
(240,480,l),
(240,400,l)
);
}
);
width = 720;
}
);
note = I;
unicode = 73;
},
{
glyphname = J;
layers = (
{
layerId = m01;
shapes = (
{
closed = 1;
nodes = (
(400,400,l),
(400,200,ls),
(400,150,o),
(330,80,o),
(280,80,qs),
(245,80,o),
(187,118,o),
(172,149,q),
(91,135,l),
(112,76,o),
(216,0,o),
(280,0,qs),
(362,0,o),
(480,118,o),
(480,200,qs),
(480,400,l),
(560,400,l),
(560,480,l),
(320,480,l),
(320,400,l)
);
}
);
width = 720;
}
);
note = J;
unicode = 74;
},
{
glyphname = K;
layers = (
{
layerId = m01;
shapes = (
{
closed = 1;
nodes = (
(160,0,l),
(160,104,l),
(280,224,l),
(504,0,l),
(616,0,l),
(336,280,l),
(536,480,l),
(424,480,l),
(160,216,l),
(160,480,l),
(80,480,l),
(80,0,l)
);
}
);
width = 720;
}
);
note = K;
unicode = 75;
},
{
glyphname = L;
layers = (
{
layerId = m01;
shapes = (
{
closed = 1;
nodes = (
(560,0,l),
(560,80,l),
(160,80,l),
(160,480,l),
(80,480,l),
(80,0,l)
);
}
);
width = 720;
}
);
note = L;
unicode = 76;
},
{
glyphname = M;
layers = (
{
layerId = m01;
shapes = (
{
closed = 1;
nodes = (
(160,344,l),
(320,184,l),
(480,344,l),
(480,0,l),
(560,0,l),
(560,480,l),
(504,480,l),
(320,296,l),
(136,480,l),
(80,480,l),
(80,0,l),
(160,0,l)
);
}
);
width = 720;
}
);
note = M;
unicode = 77;
},
{
glyphname = N;
layers = (
{
layerId = m01;
shapes = (
{
closed = 1;
nodes = (
(160,344,l),
(504,0,l),
(560,0,l),
(560,480,l),
(480,480,l),
(480,136,l),
(136,480,l),
(80,480,l),
(80,0,l),
(160,0,l)
);
}
);
width = 720;
}
);
note = N;
unicode = 78;
},
{
glyphname = O;
layers = (
{
layerId = m01;
shapes = (
{
closed = 1;
nodes = (
(386,400,o),
(480,306,o),
(480,174,o),
(386,80,o),
(254,80,o),
(160,174,o),
(160,306,o),
(254,400,o)
);
},
{
closed = 1;
nodes = (
(419,0,o),
(560,141,o),
(560,339,o),
(419,480,o),
(221,480,o),
(80,339,o),
(80,141,o),
(221,0,o)
);
}
);
width = 720;
}
);
note = O;
unicode = 79;
},
{
glyphname = P;
layers = (
{
layerId = m01;
shapes = (
{
closed = 1;
nodes = (
(433,400,o),
(480,353,o),
(480,287,o),
(433,240,o),
(400,240,qs),
(160,240,l),
(160,400,l),
(400,400,ls)
);
},
{
closed = 1;
nodes = (
(80,0,l),
(160,0,l),
(160,160,l),
(400,160,ls),
(466,160,o),
(560,254,o),
(560,386,o),
(466,480,o),
(400,480,qs),
(80,480,l)
);
}
);
width = 720;
}
);
note = P;
unicode = 80;
},
{
glyphname = Q;
layers = (
{
layerId = m01;
shapes = (
{
closed = 1;
nodes = (
(348,80,o),
(320,80,qs),
(254,80,o),
(160,174,o),
(160,306,o),
(254,400,o),
(386,400,o),
(480,306,o),
(480,240,qs),
(480,182,o),
(441,136,q),
(360,217,l),
(303,160,l),
(374,89,l)
);
},
{
closed = 1;
nodes = (
(320,0,qs),
(382,0,o),
(434,29,q),
(532,-68,l),
(588,-12,l),
(498,79,l),
(560,147,o),
(560,240,qs),
(560,339,o),
(419,480,o),
(221,480,o),
(80,339,o),
(80,141,o),
(221,0,o)
);
}
);
width = 720;
}
);
note = Q;
unicode = 81;
},
{
glyphname = R;
layers = (
{
layerId = m01;
shapes = (
{
closed = 1;
nodes = (
(80,0,l),
(160,0,l),
(160,160,l),
(304,160,l),
(464,0,l),
(576,0,l),
(415,161,l),
(476,167,o),
(560,258,o),
(560,320,qs),
(560,386,o),
(466,480,o),
(400,480,qs),
(80,480,l)
);
},
{
closed = 1;
nodes = (
(433,400,o),
(480,353,o),
(480,287,o),
(433,240,o),
(400,240,qs),
(160,240,l),
(160,400,l),
(400,400,ls)
);
}
);
width = 720;
}
);
note = R;
unicode = 82;
},
{
glyphname = S;
layers = (
{
layerId = m01;
shapes = (
{
closed = 1;
nodes = (
(186,118,o),
(164,151,q),
(80,137,l),
(110,76,o),
(240,0,o),
(320,0,qs),
(419,0,o),
(560,83,o),
(560,140,qs),
(560,181,o),
(478,240,o),
(360,272,o),
(242,297,o),
(160,323,o),
(160,340,qs),
(160,364,o),
(254,400,o),
(320,400,qs),
(371,400,o),
(454,362,o),
(476,329,q),
(560,343,l),
(530,404,o),
(400,480,o),
(320,480,qs),
(221,480,o),
(80,397,o),
(80,340,qs),
(80,299,o),
(162,240,o),
(280,208,o),
(398,183,o),
(480,157,o),
(480,140,qs),
(480,116,o),
(386,80,o),
(320,80,qs),
(269,80,o)
);
}
);
width = 720;
}
);
note = S;
unicode = 83;
},
{
glyphname = T;
layers = (
{
layerId = m01;
shapes = (
{
closed = 1;
nodes = (
(320,400,l),
(320,0,l),
(400,0,l),
(400,400,l),
(600,400,l),
(600,480,l),
(120,480,l),
(120,400,l)
);
}
);
width = 720;
}
);
note = T;
unicode = 84;
},
{
glyphname = U;
layers = (
{
layerId = m01;
shapes = (
{
closed = 1;
nodes = (
(80,141,o),
(221,0,o),
(419,0,o),
(560,141,o),
(560,240,qs),
(560,480,l),
(480,480,l),
(480,240,ls),
(480,174,o),
(386,80,o),
(254,80,o),
(160,174,o),
(160,240,qs),
(160,480,l),
(80,480,l),
(80,240,ls)
);
}
);
width = 720;
}
);
note = U;
unicode = 85;
},
{
glyphname = V;
layers = (
{
layerId = m01;
shapes = (
{
closed = 1;
nodes = (
(493,480,l),
(360,148,l),
(227,480,l),
(141,480,l),
(333,0,l),
(387,0,l),
(579,480,l)
);
}
);
width = 720;
}
);
note = V;
unicode = 86;
},
{
glyphname = W;
layers = (
{
layerId = m01;
shapes = (
{
closed = 1;
nodes = (
(298,0,l),
(360,167,l),
(422,0,l),
(478,0,l),
(658,480,l),
(572,480,l),
(450,154,l),
(388,320,l),
(332,320,l),
(270,154,l),
(148,480,l),
(62,480,l),
(242,0,l)
);
}
);
width = 720;
}
);
note = W;
unicode = 87;
},
{
glyphname = X;
layers = (
{
layerId = m01;
shapes = (
{
closed = 1;
nodes = (
(656,480,l),
(544,480,l),
(360,297,l),
(176,480,l),
(64,480,l),
(303,240,l),
(64,0,l),
(176,0,l),
(360,183,l),
(544,0,l),
(656,0,l),
(417,240,l)
);
}
);
width = 720;
}
);
note = X;
unicode = 88;
},
{
glyphname = Y;
layers = (
{
layerId = m01;
shapes = (
{
closed = 1;
nodes = (
(320,0,l),
(400,0,l),
(400,223,l),
(657,480,l),
(543,480,l),
(360,297,l),
(177,480,l),
(63,480,l),
(320,223,l)
);
}
);
width = 720;
}
);
note = Y;
unicode = 89;
},
{
glyphname = Z;
layers = (
{
layerId = m01;
shapes = (
{
closed = 1;
nodes = (
(424,400,l),
(80,56,l),
(80,0,l),
(560,0,l),
(560,80,l),
(216,80,l),
(560,424,l),
(560,480,l),
(80,480,l),
(80,400,l)
);
}
);
width = 720;
}
);
note = Z;
unicode = 90;
},
{
glyphname = bracketleft;
lastChange = "2026-04-02 22:09:24 +0000";
layers = (
{
layerId = m01;
shapes = (
{
closed = 1;
nodes = (
(480,0,l),
(320,0,l),
(320,400,l),
(480,400,l),
(480,480,l),
(240,480,l),
(240,-80,l),
(480,-80,l)
);
}
);
width = 720;
}
);
note = bracketleft;
unicode = 91;
},
{
glyphname = backslash;
layers = (
{
layerId = m01;
shapes = (
{
closed = 1;
nodes = (
(612,-108,l),
(668,-52,l),
(108,508,l),
(52,452,l)
);
}
);
width = 720;
}
);
note = backslash;
unicode = 92;
},
{
glyphname = bracketright;
lastChange = "2026-04-02 22:10:06 +0000";
layers = (
{
layerId = m01;
shapes = (
{
closed = 1;
nodes = (
(240,0,l),
(240,-80,l),
(480,-80,l),
(480,480,l),
(240,480,l),
(240,400,l),
(400,400,l),
(400,0,l)
);
}
);
width = 720;
}
);
note = bracketright;
unicode = 93;
},
{
glyphname = asciicircum;
layers = (
{
layerId = m01;
shapes = (
{
closed = 1;
nodes = (
(452,332,l),
(508,388,l),
(360,537,l),
(212,388,l),
(268,332,l),
(360,423,l)
);
}
);
width = 720;
}
);
note = asciicircum;
unicode = 94;
},
{
glyphname = underscore;
layers = (
{
layerId = m01;
shapes = (
{
closed = 1;
nodes = (
(640,-160,l),
(640,-80,l),
(80,-80,l),
(80,-160,l)
);
}
);
width = 720;
}
);
note = underscore;
unicode = 95;
},
{
glyphname = grave;
layers = (
{
layerId = m01;
shapes = (
{
closed = 1;
nodes = (
(428,388,l),
(280,537,l),
(223,480,l),
(372,332,l)
);
}
);
width = 720;
}
);
note = grave;
unicode = 96;
},
{
glyphname = a;
layers = (
{
layerId = m01;
shapes = (
{
closed = 1;
nodes = (
(360,320,qs),
(480,320,l),
(480,200,l),
(454,170,ls),
(429,140,o),
(349,80,o),
(320,80,qs),
(286,80,o),
(240,150,o),
(240,250,o),
(310,320,o)
);
},
{
closed = 1;
nodes = (
(560,0,l),
(560,400,l),
(360,400,ls),
(278,400,o),
(160,282,o),
(160,200,qs),
(160,117,o),
(253,0,o),
(320,0,qs),
(389,0,o),
(480,99,q),
(480,0,l)
);
}
);
width = 720;
}
);
note = a;
unicode = 97;
},
{
glyphname = b;
layers = (
{
layerId = m01;
shapes = (
{
closed = 1;
nodes = (
(360,80,qs),
(240,80,l),
(240,200,l),
(266,230,ls),
(291,260,o),
(371,320,o),
(400,320,qs),
(434,320,o),
(480,250,o),
(480,150,o),
(410,80,o)
);
},
{
closed = 1;
nodes = (
(160,520,l),
(160,0,l),
(360,0,ls),
(442,0,o),
(560,118,o),
(560,200,qs),
(560,283,o),
(467,400,o),
(400,400,qs),
(331,400,o),
(240,301,q),
(240,520,l)
);
}
);
width = 720;
}
);
note = b;
unicode = 98;
},
{
glyphname = c;
layers = (
{
layerId = m01;
shapes = (
{
closed = 1;
nodes = (
(360,0,qs),
(424,0,o),
(528,76,o),
(549,135,q),
(468,149,l),
(453,118,o),
(395,80,o),
(360,80,qs),
(310,80,o),
(240,150,o),
(240,250,o),
(310,320,o),
(360,320,qs),
(395,320,o),
(453,282,o),
(468,251,q),
(549,265,l),
(528,324,o),
(424,400,o),
(360,400,qs),
(278,400,o),
(160,282,o),
(160,118,o),
(278,0,o)
);
}
);
width = 720;
}
);
note = c;
unicode = 99;
},
{
glyphname = d;
layers = (
{
layerId = m01;
shapes = (
{
closed = 1;
nodes = (
(360,320,qs),
(480,320,l),
(480,200,l),
(454,170,ls),
(429,140,o),
(349,80,o),
(320,80,qs),
(286,80,o),
(240,150,o),
(240,250,o),
(310,320,o)
);
},
{
closed = 1;
nodes = (
(560,0,l),
(560,520,l),
(480,520,l),
(480,400,l),
(360,400,ls),
(278,400,o),
(160,282,o),
(160,200,qs),
(160,117,o),
(253,0,o),
(320,0,qs),
(389,0,o),
(480,99,q),
(480,0,l)
);
}
);
width = 720;
}
);
note = d;
unicode = 100;
},
{
glyphname = e;
layers = (
{
layerId = m01;
shapes = (
{
closed = 1;
nodes = (
(360,0,qs),
(520,0,l),
(520,80,l),
(360,80,ls),
(322,80,o),
(260,125,o),
(247,160,q),
(560,160,l),
(560,200,ls),
(560,282,o),
(442,400,o),
(278,400,o),
(160,282,o),
(160,118,o),
(278,0,o)
);
},
{
closed = 1;
nodes = (
(260,275,o),
(322,320,o),
(398,320,o),
(460,275,o),
(473,240,q),
(247,240,l)
);
}
);
width = 720;
}
);
note = e;
unicode = 101;
},
{
glyphname = f;
layers = (
{
layerId = m01;
shapes = (
{
closed = 1;
nodes = (
(414,520,o),
(320,426,o),
(320,360,q),
(160,360,l),
(160,280,l),
(320,280,l),
(320,0,l),
(400,0,l),
(400,280,l),
(560,280,l),
(560,360,l),
(400,360,l),
(400,393,o),
(447,440,o),
(480,440,qs),
(600,440,l),
(600,520,l),
(480,520,ls)
);
}
);
width = 720;
}
);
note = f;
unicode = 102;
},
{
glyphname = g;
layers = (
{
layerId = m01;
shapes = (
{
closed = 1;
nodes = (
(480,30,o),
(410,-40,o),
(360,-40,qs),
(292,-40,o),
(257,18,q),
(189,-23,l),
(216,-67,o),
(307,-120,o),
(360,-120,qs),
(442,-120,o),
(560,-2,o),
(560,80,qs),
(560,400,l),
(360,400,ls),
(277,400,o),
(160,295,o),
(160,145,o),
(253,40,o),
(320,40,qs),
(407,40,o),
(480,119,q),
(480,80,ls)
);
},
{
closed = 1;
nodes = (
(360,320,qs),
(480,320,l),
(480,220,l),
(454,195,ls),
(429,170,o),
(349,120,o),
(320,120,qs),
(286,120,o),
(240,178,o),
(240,262,o),
(310,320,o)
);
}
);
width = 720;
}
);
note = g;
unicode = 103;
},
{
glyphname = h;
layers = (
{
layerId = m01;
shapes = (
{
closed = 1;
nodes = (
(160,520,l),
(160,0,l),
(240,0,l),
(240,200,l),
(266,230,ls),
(291,260,o),
(371,320,o),
(400,320,qs),
(434,320,o),
(480,250,o),
(480,200,qs),
(480,0,l),
(560,0,l),
(560,200,ls),
(560,283,o),
(467,400,o),
(400,400,qs),
(331,400,o),
(240,301,q),
(240,520,l)
);
}
);
width = 720;
}
);
note = h;
unicode = 104;
},
{
glyphname = i;
layers = (
{
layerId = m01;
shapes = (
{
closed = 1;
nodes = (
(400,480,l),
(400,560,l),
(320,560,l),
(320,480,l)
);
},
{
closed = 1;
nodes = (
(320,320,l),
(320,80,l),
(160,80,l),
(160,0,l),
(560,0,l),
(560,80,l),
(400,80,l),
(400,400,l),
(160,400,l),
(160,320,l)
);
}
);
width = 720;
}
);
note = i;
unicode = 105;
},
{
glyphname = j;
lastChange = "2026-04-02 22:18:31 +0000";
layers = (
{
layerId = m01;
shapes = (
{
closed = 1;
nodes = (
(560,480,l),
(560,560,l),
(480,560,l),
(480,480,l)
);
},
{
closed = 1;
nodes = (
(130,-12,o),
(253,-124,o),
(350,-120,qs),
(433,-117,o),
(560,-2,o),
(560,80,qs),
(560,400,l),
(480,400,l),
(480,80,ls),
(480,31,o),
(400,-35,o),
(350,-40,qs),
(266,-48,o),
(207,24,o),
(211,67,qs),
(177,90,o),
(140,71,q)
);
},
{
closed = 0;
nodes = (
(402,99,l)
);
}
);
width = 720;
}
);
note = j;
unicode = 106;
},
{
glyphname = k;
layers = (
{
layerId = m01;
shapes = (
{
closed = 1;
nodes = (
(240,0,l),
(240,103,l),
(320,183,l),
(503,0,l),
(617,0,l),
(377,240,l),
(537,400,l),
(423,400,l),
(240,217,l),
(240,520,l),
(160,520,l),
(160,0,l)
);
}
);
width = 720;
}
);
note = k;
unicode = 107;
},
{
glyphname = l;
layers = (
{
layerId = m01;
shapes = (
{
closed = 1;
nodes = (
(320,440,l),
(320,80,l),
(160,80,l),
(160,0,l),
(560,0,l),
(560,80,l),
(400,80,l),
(400,520,l),
(160,520,l),
(160,440,l)
);
}
);
width = 720;
}
);
note = l;
unicode = 108;
},
{
glyphname = m;
layers = (
{
layerId = m01;
shapes = (
{
closed = 1;
nodes = (
(640,306,o),
(546,400,o),
(480,400,qs),
(407,400,o),
(360,346,q),
(313,400,o),
(240,400,qs),
(198,400,o),
(160,378,q),
(160,400,l),
(80,400,l),
(80,0,l),
(160,0,l),
(160,240,ls),
(160,273,o),
(207,320,o),
(273,320,o),
(320,273,o),
(320,240,qs),
(320,0,l),
(400,0,l),
(400,240,ls),
(400,273,o),
(447,320,o),
(513,320,o),
(560,273,o),
(560,240,qs),
(560,0,l),
(640,0,l),
(640,240,ls)
);
}
);
width = 720;
}
);
note = m;
unicode = 109;
},
{
glyphname = n;
layers = (
{
layerId = m01;
shapes = (
{
closed = 1;
nodes = (
(160,400,l),
(160,0,l),
(240,0,l),
(240,200,l),
(266,230,ls),
(291,260,o),
(371,320,o),
(400,320,qs),
(434,320,o),
(480,250,o),
(480,200,qs),
(480,0,l),
(560,0,l),
(560,200,ls),
(560,283,o),
(467,400,o),
(400,400,qs),
(331,400,o),
(240,301,q),
(240,400,l)
);
}
);
width = 720;
}
);
note = n;
unicode = 110;
},
{
glyphname = o;
layers = (
{
layerId = m01;
shapes = (
{
closed = 1;
nodes = (
(410,320,o),
(480,250,o),
(480,150,o),
(410,80,o),
(310,80,o),
(240,150,o),
(240,250,o),
(310,320,o)
);
},
{
closed = 1;
nodes = (
(442,0,o),
(560,118,o),
(560,282,o),
(442,400,o),
(278,400,o),
(160,282,o),
(160,118,o),
(278,0,o)
);
}
);
width = 720;
}
);
note = o;
unicode = 111;
},
{
glyphname = p;
layers = (
{
layerId = m01;
shapes = (
{
closed = 1;
nodes = (
(160,400,l),
(160,-120,l),
(240,-120,l),
(240,0,l),
(360,0,ls),
(442,0,o),
(560,118,o),
(560,200,qs),
(560,283,o),
(467,400,o),
(400,400,qs),
(331,400,o),
(240,301,q),
(240,400,l)
);
},
{
closed = 1;
nodes = (
(360,80,qs),
(240,80,l),
(240,200,l),
(266,230,ls),
(291,260,o),
(371,320,o),
(400,320,qs),
(434,320,o),
(480,250,o),
(480,150,o),
(410,80,o)
);
}
);
width = 720;
}
);
note = p;
unicode = 112;
},
{
glyphname = q;
layers = (
{
layerId = m01;
shapes = (
{
closed = 1;
nodes = (
(360,320,qs),
(480,320,l),
(480,200,l),
(454,170,ls),
(429,140,o),
(349,80,o),
(320,80,qs),
(286,80,o),
(240,150,o),
(240,250,o),
(310,320,o)
);
},
{
closed = 1;
nodes = (
(560,-120,l),
(560,400,l),
(360,400,ls),
(278,400,o),
(160,282,o),
(160,200,qs),
(160,117,o),
(253,0,o),
(320,0,qs),
(389,0,o),
(480,99,q),
(480,-120,l)
);
}
);
width = 720;
}
);
note = q;
unicode = 113;
},
{
glyphname = r;
layers = (
{
layerId = m01;
shapes = (
{
closed = 1;
nodes = (
(520,400,l),
(400,400,ls),
(331,400,o),
(240,301,q),
(240,400,l),
(160,400,l),
(160,0,l),
(240,0,l),
(240,200,l),
(266,230,ls),
(291,260,o),
(371,320,o),
(400,320,qs),
(520,320,l)
);
}
);
width = 720;
}
);
note = r;
unicode = 114;
},
{
glyphname = s;
layers = (
{
layerId = m01;
shapes = (
{
closed = 1;
nodes = (
(230,400,o),
(160,330,o),
(160,230,o),
(230,160,o),
(280,160,qs),
(440,160,ls),
(456,160,o),
(480,136,o),
(480,104,o),
(456,80,o),
(440,80,qs),
(160,80,l),
(160,0,l),
(440,0,ls),
(490,0,o),
(560,70,o),
(560,170,o),
(490,240,o),
(440,240,qs),
(280,240,ls),
(264,240,o),
(240,264,o),
(240,296,o),
(264,320,o),
(280,320,qs),
(520,320,l),
(520,400,l),
(280,400,ls)
);
}
);
width = 720;
}
);
note = s;
unicode = 115;
},
{
glyphname = t;
layers = (
{
layerId = m01;
shapes = (
{
closed = 1;
nodes = (
(560,320,l),
(560,400,l),
(400,400,l),
(400,520,l),
(320,520,l),
(320,400,l),
(160,400,l),
(160,320,l),
(320,320,l),
(320,160,ls),
(320,94,o),
(414,0,o),
(480,0,qs),
(600,0,l),
(600,80,l),
(480,80,ls),
(447,80,o),
(400,127,o),
(400,160,qs),
(400,320,l)
);
}
);
width = 720;
}
);
note = t;
unicode = 116;
},
{
glyphname = u;
layers = (
{
layerId = m01;
shapes = (
{
closed = 1;
nodes = (
(560,0,l),
(560,400,l),
(480,400,l),
(480,200,l),
(454,170,ls),
(429,140,o),
(349,80,o),
(320,80,qs),
(286,80,o),
(240,150,o),
(240,200,qs),
(240,400,l),
(160,400,l),
(160,200,ls),
(160,117,o),
(253,0,o),
(320,0,qs),
(389,0,o),
(480,99,q),
(480,0,l)
);
}
);
width = 720;
}
);
note = u;
unicode = 117;
},
{
glyphname = v;
layers = (
{
layerId = m01;
shapes = (
{
closed = 1;
nodes = (
(495,400,l),
(360,129,l),
(225,400,l),
(135,400,l),
(335,0,l),
(385,0,l),
(585,400,l)
);
}
);
width = 720;
}
);
note = v;
unicode = 118;
},
{
glyphname = w;
layers = (
{
layerId = m01;
shapes = (
{
closed = 1;
nodes = (
(283,0,l),
(360,179,l),
(437,0,l),
(489,0,l),
(661,400,l),
(574,400,l),
(463,142,l),
(387,320,l),
(333,320,l),
(257,142,l),
(146,400,l),
(59,400,l),
(231,0,l)
);
}
);
width = 720;
}
);
note = w;
unicode = 119;
},
{
glyphname = x;
layers = (
{
layerId = m01;
shapes = (
{
closed = 1;
nodes = (
(360,257,l),
(216,400,l),
(104,400,l),
(303,200,l),
(104,0,l),
(216,0,l),
(360,143,l),
(504,0,l),
(616,0,l),
(417,200,l),
(616,400,l),
(504,400,l)
);
}
);
width = 720;
}
);
note = x;
unicode = 120;
},
{
glyphname = y;
layers = (
{
layerId = m01;
shapes = (
{
closed = 1;
nodes = (
(480,30,o),
(410,-40,o),
(360,-40,qs),
(292,-40,o),
(257,18,q),
(189,-23,l),
(216,-67,o),
(307,-120,o),
(360,-120,qs),
(442,-120,o),
(560,-2,o),
(560,80,qs),
(560,400,l),
(480,400,l),
(480,220,l),
(454,195,ls),
(429,170,o),
(349,120,o),
(320,120,qs),
(286,120,o),
(240,178,o),
(240,220,qs),
(240,400,l),
(160,400,l),
(160,220,ls),
(160,145,o),
(253,40,o),
(320,40,qs),
(407,40,o),
(480,119,q),
(480,80,ls)
);
}
);
width = 720;
}
);
note = y;
unicode = 121;
},
{
glyphname = z;
layers = (
{
layerId = m01;
shapes = (
{
closed = 1;
nodes = (
(424,320,l),
(160,56,l),
(160,0,l),
(560,0,l),
(560,80,l),
(296,80,l),
(560,344,l),
(560,400,l),
(160,400,l),
(160,320,l)
);
}
);
width = 720;
}
);
note = z;
unicode = 122;
},
{
glyphname = braceleft;
layers = (
{
layerId = m01;
shapes = (
{
closed = 1;
nodes = (
(438,560,o),
(320,442,o),
(320,360,qs),
(320,310,o),
(250,240,o),
(200,240,qs),
(160,240,l),
(160,160,l),
(200,160,ls),
(250,160,o),
(320,90,o),
(320,40,qs),
(320,-42,o),
(438,-160,o),
(520,-160,qs),
(560,-160,l),
(560,-80,l),
(520,-80,ls),
(470,-80,o),
(400,-10,o),
(400,40,qs),
(400,140,o),
(320,200,q),
(400,260,o),
(400,360,qs),
(400,410,o),
(470,480,o),
(520,480,qs),
(560,480,l),
(560,560,l),
(520,560,ls)
);
}
);
width = 720;
}
);
note = braceleft;
unicode = 123;
},
{
glyphname = bar;
layers = (
{
layerId = m01;
shapes = (
{
closed = 1;
nodes = (
(400,-160,l),
(400,560,l),
(320,560,l),
(320,-160,l)
);
}
);
width = 720;
}
);
note = bar;
unicode = 124;
},
{
glyphname = braceright;
layers = (
{
layerId = m01;
shapes = (
{
closed = 1;
nodes = (
(282,-160,o),
(400,-42,o),
(400,40,qs),
(400,90,o),
(470,160,o),
(520,160,qs),
(560,160,l),
(560,240,l),
(520,240,ls),
(470,240,o),
(400,310,o),
(400,360,qs),
(400,442,o),
(282,560,o),
(200,560,qs),
(160,560,l),
(160,480,l),
(200,480,ls),
(250,480,o),
(320,410,o),
(320,360,qs),
(320,260,o),
(400,200,q),
(320,140,o),
(320,40,qs),
(320,-10,o),
(250,-80,o),
(200,-80,qs),
(160,-80,l),
(160,-160,l),
(200,-160,ls)
);
}
);
width = 720;
}
);
note = braceright;
unicode = 125;
},
{
glyphname = asciitilde;
layers = (
{
layerId = m01;
shapes = (
{
closed = 1;
nodes = (
(419,384,qs),
(462,384,o),
(537,426,o),
(559,464,q),
(489,504,l),
(465,464,o),
(420,464,qs),
(400,464,o),
(380,475,qs),
(342,496,o),
(301,496,qs),
(258,496,o),
(183,454,o),
(161,416,q),
(231,376,l),
(255,416,o),
(300,416,qs),
(320,416,o),
(340,405,qs),
(378,384,o)
);
}
);
width = 720;
}
);
note = asciitilde;
unicode = 126;
},
{
glyphname = uni007F;
layers = (
{
layerId = m01;
shapes = (
{
closed = 1;
nodes = (
(720,-160,l),
(720,560,l),
(0,560,l),
(0,-160,l)
);
}
);
width = 720;
}
);
note = uni007F;
unicode = 127;
},
{
glyphname = exclamdown;
layers = (
{
layerId = m01;
shapes = (
{
closed = 1;
nodes = (
(339,400,o),
(310,371,o),
(310,329,o),
(339,300,o),
(381,300,o),
(410,329,o),
(410,371,o),
(381,400,o)
);
},
{
closed = 1;
nodes = (
(320,240,l),
(320,-80,l),
(400,-80,l),
(400,240,l)
);
}
);
width = 720;
}
);
note = exclamdown;
unicode = 161;
},
{
glyphname = cent;
layers = (
{
layerId = m01;
shapes = (
{
closed = 1;
nodes = (
(251,382,o),
(160,271,o),
(160,129,o),
(251,18,o),
(320,4,q),
(320,-80,l),
(400,-80,l),
(400,4,l),
(452,14,o),
(532,85,o),
(549,135,q),
(468,149,l),
(453,118,o),
(395,80,o),
(360,80,qs),
(310,80,o),
(240,150,o),
(240,250,o),
(310,320,o),
(360,320,qs),
(395,320,o),
(453,282,o),
(468,251,q),
(549,265,l),
(532,315,o),
(452,386,o),
(400,396,q),
(400,480,l),
(320,480,l),
(320,396,l)
);
}
);
width = 720;
}
);
note = cent;
unicode = 162;
},
{
glyphname = sterling;
layers = (
{
layerId = m01;
shapes = (
{
closed = 1;
nodes = (
(254,480,o),
(160,386,o),
(160,320,q),
(80,320,l),
(80,240,l),
(160,240,l),
(160,0,l),
(400,0,ls),
(466,0,o),
(560,94,o),
(560,160,q),
(480,160,l),
(480,127,o),
(433,80,o),
(400,80,qs),
(240,80,l),
(240,240,l),
(400,240,l),
(400,320,l),
(240,320,l),
(240,353,o),
(287,400,o),
(320,400,qs),
(440,400,l),
(440,480,l),
(320,480,ls)
);
}
);
width = 720;
}
);
note = sterling;
unicode = 163;
},
{
glyphname = currency;
layers = (
{
layerId = m01;
shapes = (
{
closed = 1;
nodes = (
(376,320,o),
(400,296,o),
(400,264,o),
(376,240,o),
(344,240,o),
(320,264,o),
(320,296,o),
(344,320,o)
);
},
{
closed = 1;
nodes = (
(388,400,o),
(332,400,o),
(308,388,q),
(188,508,l),
(132,452,l),
(252,332,l),
(240,308,o),
(240,252,o),
(252,228,q),
(132,108,l),
(188,52,l),
(308,172,l),
(332,160,o),
(388,160,o),
(412,172,q),
(532,52,l),
(588,108,l),
(468,228,l),
(480,252,o),
(480,308,o),
(468,332,q),
(588,452,l),
(532,508,l),
(412,388,l)
);
}
);
width = 720;
}
);
note = currency;
unicode = 164;
},
{
glyphname = yen;
layers = (
{
layerId = m01;
shapes = (
{
closed = 1;
nodes = (
(160,240,l),
(160,160,l),
(320,160,l),
(320,0,l),
(400,0,l),
(400,160,l),
(560,160,l),
(560,240,l),
(417,240,l),
(657,480,l),
(543,480,l),
(360,297,l),
(177,480,l),
(63,480,l),
(303,240,l)
);
}
);
width = 720;
}
);
note = yen;
unicode = 165;
},
{
glyphname = brokenbar;
layers = (
{
layerId = m01;
shapes = (
{
closed = 1;
nodes = (
(400,-160,l),
(400,160,l),
(320,160,l),
(320,-160,l)
);
},
{
closed = 1;
nodes = (
(400,240,l),
(400,560,l),
(320,560,l),
(320,240,l)
);
}
);
width = 720;
}
);
note = brokenbar;
unicode = 166;
},
{
glyphname = section;
layers = (
{
layerId = m01;
shapes = (
{
closed = 1;
nodes = (
(480,200,qs),
(480,250,o),
(410,320,o),
(360,320,qs),
(280,320,ls),
(264,320,o),
(240,344,o),
(240,376,o),
(264,400,o),
(280,400,qs),
(440,400,l),
(440,480,l),
(280,480,ls),
(230,480,o),
(160,410,o),
(160,360,qs),
(160,314,o),
(191,280,q),
(160,246,o),
(160,200,qs),
(160,150,o),
(230,80,o),
(280,80,qs),
(360,80,ls),
(376,80,o),
(400,56,o),
(400,24,o),
(376,0,o),
(360,0,qs),
(200,0,l),
(200,-80,l),
(360,-80,ls),
(410,-80,o),
(480,-10,o),
(480,40,qs),
(480,86,o),
(449,120,q),
(480,154,o)
);
},
{
closed = 1;
nodes = (
(376,240,o),
(400,216,o),
(400,184,o),
(376,160,o),
(360,160,qs),
(280,160,ls),
(264,160,o),
(240,184,o),
(240,216,o),
(264,240,o),
(280,240,qs),
(360,240,ls)
);
}
);
width = 720;
}
);
note = section;
unicode = 167;
},
{
glyphname = dieresis;
layers = (
{
layerId = m01;
shapes = (
{
closed = 1;
nodes = (
(480,400,l),
(480,480,l),
(400,480,l),
(400,400,l)
);
},
{
closed = 1;
nodes = (
(320,400,l),
(320,480,l),
(240,480,l),
(240,400,l)
);
}
);
width = 720;
}
);
note = dieresis;
unicode = 168;
},
{
glyphname = copyright;
layers = (
{
layerId = m01;
shapes = (
{
closed = 1;
nodes = (
(476,-80,o),
(640,84,o),
(640,316,o),
(476,480,o),
(244,480,o),
(80,316,o),
(80,84,o),
(244,-80,o)
);
},
{
closed = 1;
nodes = (
(442,400,o),
(560,282,o),
(560,118,o),
(442,0,o),
(278,0,o),
(160,118,o),
(160,282,o),
(278,400,o)
);
},
{
closed = 1;
nodes = (
(410,80,o),
(445,115,q),
(388,172,l),
(376,160,o),
(344,160,o),
(320,184,o),
(320,216,o),
(344,240,o),
(376,240,o),
(388,228,q),
(445,285,l),
(410,320,o),
(310,320,o),
(240,250,o),
(240,150,o),
(310,80,o)
);
}
);
width = 720;
}
);
note = copyright;
unicode = 169;
},
{
glyphname = ordfeminine;
layers = (
{
layerId = m01;
shapes = (
{
closed = 1;
nodes = (
(560,160,l),
(560,480,l),
(360,480,ls),
(277,480,o),
(160,387,o),
(160,320,qs),
(160,252,o),
(252,160,o),
(320,160,qs),
(389,160,o),
(480,259,q),
(480,160,l)
);
},
{
closed = 1;
nodes = (
(360,400,qs),
(480,400,l),
(480,360,l),
(454,330,ls),
(429,300,o),
(349,240,o),
(320,240,qs),
(286,240,o),
(240,286,o),
(240,354,o),
(310,400,o)
);
},
{
closed = 1;
nodes = (
(560,0,l),
(560,80,l),
(160,80,l),
(160,0,l)
);
}
);
width = 720;
}
);
note = ordfeminine;
unicode = 170;
},
{
glyphname = guillemotleft;
layers = (
{
layerId = m01;
shapes = (
{
closed = 1;
nodes = (
(532,52,l),
(588,108,l),
(497,200,l),
(588,292,l),
(532,348,l),
(383,200,l)
);
},
{
closed = 1;
nodes = (
(292,52,l),
(348,108,l),
(257,200,l),
(348,292,l),
(292,348,l),
(143,200,l)
);
}
);
width = 720;
}
);
note = guillemotleft;
unicode = 171;
},
{
glyphname = logicalnot;
layers = (
{
layerId = m01;
shapes = (
{
closed = 1;
nodes = (
(480,160,l),
(480,80,l),
(560,80,l),
(560,240,l),
(160,240,l),
(160,160,l)
);
}
);
width = 720;
}
);
note = logicalnot;
unicode = 172;
},
{
glyphname = uni00AD;
layers = (
{
layerId = m01;
shapes = (
{
closed = 1;
nodes = (
(560,160,l),
(560,240,l),
(160,240,l),
(160,160,l)
);
}
);
width = 720;
}
);
note = uni00AD;
unicode = 173;
},
{
glyphname = registered;
layers = (
{
layerId = m01;
shapes = (
{
closed = 1;
nodes = (
(442,400,o),
(560,282,o),
(560,118,o),
(442,0,o),
(278,0,o),
(160,118,o),
(160,282,o),
(278,400,o)
);
},
{
closed = 1;
nodes = (
(476,-80,o),
(640,84,o),
(640,316,o),
(476,480,o),
(244,480,o),
(80,316,o),
(80,84,o),
(244,-80,o)
);
},
{
closed = 1;
nodes = (
(270,320,l),
(270,80,l),
(350,80,l),
(350,200,ls),
(350,216,o),
(374,240,o),
(406,240,o),
(418,228,q),
(475,285,l),
(440,320,o),
(390,320,qs),
(373,320,o),
(350,313,q),
(350,320,l)
);
}
);
width = 720;
}
);
note = registered;
unicode = 174;
},
{
glyphname = macron;
layers = (
{
layerId = m01;
shapes = (
{
closed = 1;
nodes = (
(640,480,l),
(640,560,l),
(80,560,l),
(80,480,l)
);
}
);
width = 720;
}
);
note = macron;
unicode = 175;
},
{
glyphname = degree;
layers = (
{
layerId = m01;
shapes = (
{
closed = 1;
nodes = (
(353,400,o),
(400,376,o),
(400,344,o),
(353,320,o),
(287,320,o),
(240,344,o),
(240,376,o),
(287,400,o)
);
},
{
closed = 1;
nodes = (
(386,240,o),
(480,310,o),
(480,410,o),
(386,480,o),
(254,480,o),
(160,410,o),
(160,310,o),
(254,240,o)
);
}
);
width = 720;
}
);
note = degree;
unicode = 176;
},
{
glyphname = plusminus;
layers = (
{
layerId = m01;
shapes = (
{
closed = 1;
nodes = (
(560,0,l),
(560,80,l),
(160,80,l),
(160,0,l)
);
},
{
closed = 1;
nodes = (
(160,320,l),
(160,240,l),
(320,240,l),
(320,160,l),
(400,160,l),
(400,240,l),
(560,240,l),
(560,320,l),
(400,320,l),
(400,400,l),
(320,400,l),
(320,320,l)
);
}
);
width = 720;
}
);
note = plusminus;
unicode = 177;
},
{
glyphname = uni00B2;
layers = (
{
layerId = m01;
shapes = (
{
closed = 1;
nodes = (
(402,340,o),
(480,421,o),
(480,450,qs),
(480,482,o),
(410,528,o),
(360,528,qs),
(315,528,o),
(248,491,o),
(241,462,q),
(289,456,l),
(301,480,o),
(360,480,qs),
(390,480,o),
(432,463,o),
(432,450,qs),
(432,436,o),
(390,391,o),
(340,352,o),
(274,308,o),
(248,293,o),
(240,288,q),
(240,240,l),
(480,240,l),
(480,288,l),
(324,288,l),
(363,314,ls)
);
}
);
width = 720;
}
);
note = uni00B2;
unicode = 178;
},
{
glyphname = uni00B3;
layers = (
{
layerId = m01;
shapes = (
{
closed = 1;
nodes = (
(247,285,o),
(315,240,o),
(360,240,qs),
(410,240,o),
(480,293,o),
(480,330,qs),
(480,368,o),
(444,394,q),
(480,417,o),
(480,450,qs),
(480,482,o),
(410,528,o),
(360,528,qs),
(315,528,o),
(248,491,o),
(241,462,q),
(289,456,l),
(301,480,o),
(360,480,qs),
(390,480,o),
(432,463,o),
(432,437,o),
(390,420,o),
(360,420,qs),
(336,420,l),
(336,372,l),
(360,372,ls),
(390,372,o),
(432,347,o),
(432,313,o),
(390,288,o),
(360,288,qs),
(333,288,o),
(293,309,o),
(289,324,q),
(241,318,l)
);
}
);
width = 720;
}
);
note = uni00B3;
unicode = 179;
},
{
glyphname = acute;
layers = (
{
layerId = m01;
shapes = (
{
closed = 1;
nodes = (
(497,480,l),
(440,537,l),
(292,388,l),
(348,332,l)
);
}
);
width = 720;
}
);
note = acute;
unicode = 180;
},
{
glyphname = mu;
layers = (
{
layerId = m01;
shapes = (
{
closed = 1;
nodes = (
(560,0,l),
(560,400,l),
(480,400,l),
(480,200,l),
(454,170,ls),
(429,140,o),
(349,80,o),
(320,80,qs),
(286,80,o),
(240,150,o),
(240,200,qs),
(240,400,l),
(160,400,l),
(160,-120,l),
(240,-120,l),
(240,26,l),
(275,0,o),
(320,0,qs),
(389,0,o),
(480,99,q),
(480,0,l)
);
}
);
width = 720;
}
);
note = mu;
unicode = 181;
},
{
glyphname = paragraph;
layers = (
{
layerId = m01;
shapes = (
{
closed = 1;
nodes = (
(560,480,l),
(400,480,l),
(400,-80,l),
(480,-80,l),
(480,400,l),
(560,400,l)
);
},
{
closed = 1;
nodes = (
(150,480,o),
(80,410,o),
(80,310,o),
(150,240,o),
(200,240,qs),
(240,240,l),
(240,-80,l),
(320,-80,l),
(320,480,l),
(200,480,ls)
);
}
);
width = 720;
}
);
note = paragraph;
unicode = 182;
},
{
glyphname = periodcentered;
layers = (
{
layerId = m01;
shapes = (
{
closed = 1;
nodes = (
(341,160,o),
(370,189,o),
(370,231,o),
(341,260,o),
(299,260,o),
(270,231,o),
(270,189,o),
(299,160,o)
);
}
);
width = 720;
}
);
note = periodcentered;
unicode = 183;
},
{
glyphname = cedilla;
layers = (
{
layerId = m01;
shapes = (
{
closed = 1;
nodes = (
(389,12,q),
(417,40,l),
(360,97,l),
(279,16,l),
(313,-18,l),
(320,-28,o),
(320,-40,qs),
(320,-56,o),
(296,-80,o),
(264,-80,o),
(252,-68,q),
(195,-125,l),
(230,-160,o),
(330,-160,o),
(400,-90,o),
(400,-40,qs),
(400,-13,o)
);
}
);
width = 720;
}
);
note = cedilla;
unicode = 184;
},
{
glyphname = uni00B9;
layers = (
{
layerId = m01;
shapes = (
{
closed = 1;
nodes = (
(384,465,l),
(383,240,l),
(432,240,l),
(432,528,l),
(403,528,l),
(280,467,l),
(301,424,l)
);
}
);
width = 720;
}
);
note = uni00B9;
unicode = 185;
},
{
glyphname = ordmasculine;
layers = (
{
layerId = m01;
shapes = (
{
closed = 1;
nodes = (
(410,400,o),
(480,353,o),
(480,287,o),
(410,240,o),
(310,240,o),
(240,287,o),
(240,353,o),
(310,400,o)
);
},
{
closed = 1;
nodes = (
(442,160,o),
(560,254,o),
(560,386,o),
(442,480,o),
(278,480,o),
(160,386,o),
(160,254,o),
(278,160,o)
);
},
{
closed = 1;
nodes = (
(560,0,l),
(560,80,l),
(160,80,l),
(160,0,l)
);
}
);
width = 720;
}
);
note = ordmasculine;
unicode = 186;
},
{
glyphname = guillemotright;
layers = (
{
layerId = m01;
shapes = (
{
closed = 1;
nodes = (
(188,348,l),
(132,292,l),
(223,200,l),
(132,108,l),
(188,52,l),
(337,200,l)
);
},
{
closed = 1;
nodes = (
(428,348,l),
(372,292,l),
(463,200,l),
(372,108,l),
(428,52,l),
(577,200,l)
);
}
);
width = 720;
}
);
note = guillemotright;
unicode = 187;
},
{
glyphname = onequarter;
layers = (
{
layerId = m01;
shapes = (
{
closed = 1;
nodes = (
(545,351,l),
(511,385,l),
(175,49,l),
(209,15,l)
);
},
{
closed = 1;
nodes = (
(224,465,l),
(223,240,l),
(272,240,l),
(272,528,l),
(243,528,l),
(120,467,l),
(141,424,l)
);
},
{
closed = 1;
nodes = (
(448,-12,l),
(448,-10,l),
(544,86,l),
(543,-12,l)
);
},
{
closed = 1;
nodes = (
(543,-60,l),
(543,-120,l),
(592,-120,l),
(592,-60,l),
(640,-60,l),
(640,-12,l),
(592,-12,l),
(592,168,l),
(558,168,l),
(400,10,l),
(400,-60,l)
);
}
);
width = 720;
}
);
note = onequarter;
unicode = 188;
},
{
glyphname = onehalf;
layers = (
{
layerId = m01;
shapes = (
{
closed = 1;
nodes = (
(545,351,l),
(511,385,l),
(175,49,l),
(209,15,l)
);
},
{
closed = 1;
nodes = (
(562,-20,o),
(640,61,o),
(640,90,qs),
(640,122,o),
(570,168,o),
(520,168,qs),
(475,168,o),
(408,131,o),
(401,102,q),
(449,96,l),
(461,120,o),
(520,120,qs),
(550,120,o),
(592,103,o),
(592,90,qs),
(592,76,o),
(550,31,o),
(500,-8,o),
(434,-52,o),
(408,-67,o),
(400,-72,q),
(400,-120,l),
(640,-120,l),
(640,-72,l),
(484,-72,l),
(523,-46,ls)
);
},
{
closed = 1;
nodes = (
(224,465,l),
(223,240,l),
(272,240,l),
(272,528,l),
(243,528,l),
(120,467,l),
(141,424,l)
);
}
);
width = 720;
}
);
note = onehalf;
unicode = 189;
},
{
glyphname = threequarters;
layers = (
{
layerId = m01;
shapes = (
{
closed = 1;
nodes = (
(545,351,l),
(511,385,l),
(175,49,l),
(209,15,l)
);
},
{
closed = 1;
nodes = (
(87,285,o),
(155,240,o),
(200,240,qs),
(250,240,o),
(320,293,o),
(320,330,qs),
(320,368,o),
(284,394,q),
(320,417,o),
(320,450,qs),
(320,482,o),
(250,528,o),
(200,528,qs),
(155,528,o),
(88,491,o),
(81,462,q),
(129,456,l),
(141,480,o),
(200,480,qs),
(230,480,o),
(272,463,o),
(272,437,o),
(230,420,o),
(200,420,qs),
(176,420,l),
(176,372,l),
(200,372,ls),
(230,372,o),
(272,347,o),
(272,313,o),
(230,288,o),
(200,288,qs),
(173,288,o),
(133,309,o),
(129,324,q),
(81,318,l)
);
},
{
closed = 1;
nodes = (
(448,-12,l),
(448,-10,l),
(544,86,l),
(543,-12,l)
);
},
{
closed = 1;
nodes = (
(543,-60,l),
(543,-120,l),
(592,-120,l),
(592,-60,l),
(640,-60,l),
(640,-12,l),
(592,-12,l),
(592,168,l),
(558,168,l),
(400,10,l),
(400,-60,l)
);
}
);
width = 720;
}
);
note = threequarters;
unicode = 190;
},
{
glyphname = questiondown;
layers = (
{
layerId = m01;
shapes = (
{
closed = 1;
nodes = (
(339,400,o),
(310,371,o),
(310,329,o),
(339,300,o),
(381,300,o),
(410,329,o),
(410,371,o),
(381,400,o)
);
},
{
closed = 1;
nodes = (
(270,168,o),
(210,140,o),
(160,86,o),
(160,50,qs),
(160,-4,o),
(277,-80,o),
(360,-80,qs),
(435,-80,o),
(547,-17,o),
(558,30,q),
(478,40,l),
(470,23,o),
(403,0,o),
(360,0,qs),
(310,0,o),
(240,29,o),
(240,50,qs),
(240,78,o),
(290,122,o),
(350,150,o),
(400,204,o),
(400,240,q),
(320,240,l),
(320,212,o)
);
}
);
width = 720;
}
);
note = questiondown;
unicode = 191;
},
{
glyphname = Agrave;
layers = (
{
layerId = m01;
shapes = (
{
closed = 1;
nodes = (
(480,183,l),
(480,180,l),
(240,180,l),
(240,183,l),
(360,303,l)
);
},
{
closed = 1;
nodes = (
(240,0,l),
(240,100,l),
(480,100,l),
(480,0,l),
(560,0,l),
(560,217,l),
(377,400,l),
(343,400,l),
(160,217,l),
(160,0,l)
);
},
{
closed = 1;
nodes = (
(416,499,l),
(268,648,l),
(211,591,l),
(360,443,l)
);
}
);
width = 720;
}
);
note = Agrave;
unicode = 192;
},
{
glyphname = Aacute;
layers = (
{
layerId = m01;
shapes = (
{
closed = 1;
nodes = (
(480,183,l),
(480,180,l),
(240,180,l),
(240,183,l),
(360,303,l)
);
},
{
closed = 1;
nodes = (
(240,0,l),
(240,100,l),
(480,100,l),
(480,0,l),
(560,0,l),
(560,217,l),
(377,400,l),
(343,400,l),
(160,217,l),
(160,0,l)
);
},
{
closed = 1;
nodes = (
(509,591,l),
(452,648,l),
(304,499,l),
(360,443,l)
);
}
);
width = 720;
}
);
note = Aacute;
unicode = 193;
},
{
glyphname = Acircumflex;
layers = (
{
layerId = m01;
shapes = (
{
closed = 1;
nodes = (
(480,183,l),
(480,180,l),
(240,180,l),
(240,183,l),
(360,303,l)
);
},
{
closed = 1;
nodes = (
(240,0,l),
(240,100,l),
(480,100,l),
(480,0,l),
(560,0,l),
(560,217,l),
(377,400,l),
(343,400,l),
(160,217,l),
(160,0,l)
);
},
{
closed = 1;
nodes = (
(452,443,l),
(508,499,l),
(360,648,l),
(212,499,l),
(268,443,l),
(360,534,l)
);
}
);
width = 720;
}
);
note = Acircumflex;
unicode = 194;
},
{
glyphname = Atilde;
layers = (
{
layerId = m01;
shapes = (
{
closed = 1;
nodes = (
(480,183,l),
(480,180,l),
(240,180,l),
(240,183,l),
(360,303,l)
);
},
{
closed = 1;
nodes = (
(240,0,l),
(240,100,l),
(480,100,l),
(480,0,l),
(560,0,l),
(560,217,l),
(377,400,l),
(343,400,l),
(160,217,l),
(160,0,l)
);
},
{
closed = 1;
nodes = (
(419,451,qs),
(462,451,o),
(537,493,o),
(559,531,q),
(489,571,l),
(465,531,o),
(420,531,qs),
(400,531,o),
(380,542,qs),
(342,563,o),
(301,563,qs),
(258,563,o),
(183,521,o),
(161,483,q),
(231,443,l),
(255,483,o),
(300,483,qs),
(320,483,o),
(340,472,qs),
(378,451,o)
);
}
);
width = 720;
}
);
note = Atilde;
unicode = 195;
},
{
glyphname = Adieresis;
layers = (
{
layerId = m01;
shapes = (
{
closed = 1;
nodes = (
(480,183,l),
(480,180,l),
(240,180,l),
(240,183,l),
(360,303,l)
);
},
{
closed = 1;
nodes = (
(240,0,l),
(240,100,l),
(480,100,l),
(480,0,l),
(560,0,l),
(560,217,l),
(377,400,l),
(343,400,l),
(160,217,l),
(160,0,l)
);
},
{
closed = 1;
nodes = (
(480,443,l),
(480,523,l),
(400,523,l),
(400,443,l)
);
},
{
closed = 1;
nodes = (
(320,443,l),
(320,523,l),
(240,523,l),
(240,443,l)
);
}
);
width = 720;
}
);
note = Adieresis;
unicode = 196;
},
{
glyphname = Aring;
layers = (
{
layerId = m01;
shapes = (
{
closed = 1;
nodes = (
(480,183,l),
(480,180,l),
(240,180,l),
(240,183,l),
(360,303,l)
);
},
{
closed = 1;
nodes = (
(240,0,l),
(240,100,l),
(480,100,l),
(480,0,l),
(560,0,l),
(560,217,l),
(377,400,l),
(343,400,l),
(160,217,l),
(160,0,l)
);
},
{
closed = 1;
nodes = (
(393,563,o),
(440,540,o),
(440,506,o),
(393,483,o),
(327,483,o),
(280,506,o),
(280,540,o),
(327,563,o)
);
},
{
closed = 1;
nodes = (
(294,403,o),
(426,403,o),
(520,473,o),
(520,523,qs),
(520,572,o),
(426,643,o),
(294,643,o),
(200,572,o),
(200,523,qs),
(200,473,o)
);
}
);
width = 720;
}
);
note = Aring;
unicode = 197;
},
{
glyphname = AE;
layers = (
{
layerId = m01;
shapes = (
{
closed = 1;
nodes = (
(160,0,l),
(160,180,l),
(320,180,l),
(320,0,l),
(560,0,l),
(560,80,l),
(400,80,l),
(400,220,l),
(520,220,l),
(520,300,l),
(400,300,l),
(400,400,l),
(560,400,l),
(560,480,l),
(263,480,l),
(80,297,l),
(80,0,l)
);
},
{
closed = 1;
nodes = (
(160,260,l),
(160,263,l),
(297,400,l),
(320,400,l),
(320,260,l)
);
}
);
width = 720;
}
);
note = AE;
unicode = 198;
},
{
glyphname = Ccedilla;
layers = (
{
layerId = m01;
shapes = (
{
closed = 1;
nodes = (
(349,-16,q),
(371,5,l),
(425,17,o),
(513,87,o),
(537,137,q),
(453,151,l),
(405,80,o),
(320,80,qs),
(254,80,o),
(160,174,o),
(160,306,o),
(254,400,o),
(320,400,qs),
(405,400,o),
(453,329,q),
(537,343,l),
(507,405,o),
(390,480,o),
(320,480,qs),
(221,480,o),
(80,339,o),
(80,240,qs),
(80,158,o),
(181,28,o),
(259,8,q),
(239,-12,l),
(273,-46,l),
(280,-56,o),
(280,-68,qs),
(280,-84,o),
(256,-108,o),
(224,-108,o),
(212,-96,q),
(155,-153,l),
(190,-188,o),
(290,-188,o),
(360,-118,o),
(360,-68,qs),
(360,-41,o)
);
}
);
width = 720;
}
);
note = Ccedilla;
unicode = 199;
},
{
glyphname = Egrave;
layers = (
{
layerId = m01;
shapes = (
{
closed = 1;
nodes = (
(560,400,l),
(160,400,l),
(160,0,l),
(560,0,l),
(560,80,l),
(240,80,l),
(240,160,l),
(440,160,l),
(440,240,l),
(240,240,l),
(240,320,l),
(560,320,l)
);
},
{
closed = 1;
nodes = (
(416,499,l),
(268,648,l),
(211,591,l),
(360,443,l)
);
}
);
width = 720;
}
);
note = Egrave;
unicode = 200;
},
{
glyphname = Eacute;
layers = (
{
layerId = m01;
shapes = (
{
closed = 1;
nodes = (
(560,400,l),
(160,400,l),
(160,0,l),
(560,0,l),
(560,80,l),
(240,80,l),
(240,160,l),
(440,160,l),
(440,240,l),
(240,240,l),
(240,320,l),
(560,320,l)
);
},
{
closed = 1;
nodes = (
(509,591,l),
(452,648,l),
(304,499,l),
(360,443,l)
);
}
);
width = 720;
}
);
note = Eacute;
unicode = 201;
},
{
glyphname = Ecircumflex;
layers = (
{
layerId = m01;
shapes = (
{
closed = 1;
nodes = (
(560,400,l),
(160,400,l),
(160,0,l),
(560,0,l),
(560,80,l),
(240,80,l),
(240,160,l),
(440,160,l),
(440,240,l),
(240,240,l),
(240,320,l),
(560,320,l)
);
},
{
closed = 1;
nodes = (
(452,443,l),
(508,499,l),
(360,648,l),
(212,499,l),
(268,443,l),
(360,534,l)
);
}
);
width = 720;
}
);
note = Ecircumflex;
unicode = 202;
},
{
glyphname = Edieresis;
layers = (
{
layerId = m01;
shapes = (
{
closed = 1;
nodes = (
(560,400,l),
(160,400,l),
(160,0,l),
(560,0,l),
(560,80,l),
(240,80,l),
(240,160,l),
(440,160,l),
(440,240,l),
(240,240,l),
(240,320,l),
(560,320,l)
);
},
{
closed = 1;
nodes = (
(480,443,l),
(480,523,l),
(400,523,l),
(400,443,l)
);
},
{
closed = 1;
nodes = (
(320,443,l),
(320,523,l),
(240,523,l),
(240,443,l)
);
}
);
width = 720;
}
);
note = Edieresis;
unicode = 203;
},
{
glyphname = Igrave;
layers = (
{
layerId = m01;
shapes = (
{
closed = 1;
nodes = (
(320,320,l),
(320,80,l),
(240,80,l),
(240,0,l),
(480,0,l),
(480,80,l),
(400,80,l),
(400,320,l),
(480,320,l),
(480,400,l),
(240,400,l),
(240,320,l)
);
},
{
closed = 1;
nodes = (
(416,499,l),
(268,648,l),
(211,591,l),
(360,443,l)
);
}
);
width = 720;
}
);
note = Igrave;
unicode = 204;
},
{
glyphname = Iacute;
layers = (
{
layerId = m01;
shapes = (
{
closed = 1;
nodes = (
(320,320,l),
(320,80,l),
(240,80,l),
(240,0,l),
(480,0,l),
(480,80,l),
(400,80,l),
(400,320,l),
(480,320,l),
(480,400,l),
(240,400,l),
(240,320,l)
);
},
{
closed = 1;
nodes = (
(509,591,l),
(452,648,l),
(304,499,l),
(360,443,l)
);
}
);
width = 720;
}
);
note = Iacute;
unicode = 205;
},
{
glyphname = Icircumflex;
layers = (
{
layerId = m01;
shapes = (
{
closed = 1;
nodes = (
(320,320,l),
(320,80,l),
(240,80,l),
(240,0,l),
(480,0,l),
(480,80,l),
(400,80,l),
(400,320,l),
(480,320,l),
(480,400,l),
(240,400,l),
(240,320,l)
);
},
{
closed = 1;
nodes = (
(452,443,l),
(508,499,l),
(360,648,l),
(212,499,l),
(268,443,l),
(360,534,l)
);
}
);
width = 720;
}
);
note = Icircumflex;
unicode = 206;
},
{
glyphname = Idieresis;
layers = (
{
layerId = m01;
shapes = (
{
closed = 1;
nodes = (
(320,320,l),
(320,80,l),
(240,80,l),
(240,0,l),
(480,0,l),
(480,80,l),
(400,80,l),
(400,320,l),
(480,320,l),
(480,400,l),
(240,400,l),
(240,320,l)
);
},
{
closed = 1;
nodes = (
(480,443,l),
(480,523,l),
(400,523,l),
(400,443,l)
);
},
{
closed = 1;
nodes = (
(320,443,l),
(320,523,l),
(240,523,l),
(240,443,l)
);
}
);
width = 720;
}
);
note = Idieresis;
unicode = 207;
},
{
glyphname = Eth;
layers = (
{
layerId = m01;
shapes = (
{
closed = 1;
nodes = (
(560,141,o),
(560,339,o),
(419,480,o),
(320,480,qs),
(160,480,l),
(160,300,l),
(80,300,l),
(80,220,l),
(160,220,l),
(160,0,l),
(320,0,ls),
(419,0,o)
);
},
{
closed = 1;
nodes = (
(320,300,l),
(240,300,l),
(240,400,l),
(320,400,ls),
(386,400,o),
(480,306,o),
(480,174,o),
(386,80,o),
(320,80,qs),
(240,80,l),
(240,220,l),
(320,220,l)
);
}
);
width = 720;
}
);
note = Eth;
unicode = 208;
},
{
glyphname = Ntilde;
layers = (
{
layerId = m01;
shapes = (
{
closed = 1;
nodes = (
(240,264,l),
(504,0,l),
(560,0,l),
(560,400,l),
(480,400,l),
(480,136,l),
(216,400,l),
(160,400,l),
(160,0,l),
(240,0,l)
);
},
{
closed = 1;
nodes = (
(419,451,qs),
(462,451,o),
(537,493,o),
(559,531,q),
(489,571,l),
(465,531,o),
(420,531,qs),
(400,531,o),
(380,542,qs),
(342,563,o),
(301,563,qs),
(258,563,o),
(183,521,o),
(161,483,q),
(231,443,l),
(255,483,o),
(300,483,qs),
(320,483,o),
(340,472,qs),
(378,451,o)
);
}
);
width = 720;
}
);
note = Ntilde;
unicode = 209;
},
{
glyphname = Ograve;
layers = (
{
layerId = m01;
shapes = (
{
closed = 1;
nodes = (
(410,320,o),
(480,250,o),
(480,150,o),
(410,80,o),
(310,80,o),
(240,150,o),
(240,250,o),
(310,320,o)
);
},
{
closed = 1;
nodes = (
(442,0,o),
(560,118,o),
(560,282,o),
(442,400,o),
(278,400,o),
(160,282,o),
(160,118,o),
(278,0,o)
);
},
{
closed = 1;
nodes = (
(416,499,l),
(268,648,l),
(211,591,l),
(360,443,l)
);
}
);
width = 720;
}
);
note = Ograve;
unicode = 210;
},
{
glyphname = Oacute;
layers = (
{
layerId = m01;
shapes = (
{
closed = 1;
nodes = (
(410,320,o),
(480,250,o),
(480,150,o),
(410,80,o),
(310,80,o),
(240,150,o),
(240,250,o),
(310,320,o)
);
},
{
closed = 1;
nodes = (
(442,0,o),
(560,118,o),
(560,282,o),
(442,400,o),
(278,400,o),
(160,282,o),
(160,118,o),
(278,0,o)
);
},
{
closed = 1;
nodes = (
(509,591,l),
(452,648,l),
(304,499,l),
(360,443,l)
);
}
);
width = 720;
}
);
note = Oacute;
unicode = 211;
},
{
glyphname = Ocircumflex;
layers = (
{
layerId = m01;
shapes = (
{
closed = 1;
nodes = (
(410,320,o),
(480,250,o),
(480,150,o),
(410,80,o),
(310,80,o),
(240,150,o),
(240,250,o),
(310,320,o)
);
},
{
closed = 1;
nodes = (
(442,0,o),
(560,118,o),
(560,282,o),
(442,400,o),
(278,400,o),
(160,282,o),
(160,118,o),
(278,0,o)
);
},
{
closed = 1;
nodes = (
(452,443,l),
(508,499,l),
(360,648,l),
(212,499,l),
(268,443,l),
(360,534,l)
);
}
);
width = 720;
}
);
note = Ocircumflex;
unicode = 212;
},
{
glyphname = Otilde;
layers = (
{
layerId = m01;
shapes = (
{
closed = 1;
nodes = (
(410,320,o),
(480,250,o),
(480,150,o),
(410,80,o),
(310,80,o),
(240,150,o),
(240,250,o),
(310,320,o)
);
},
{
closed = 1;
nodes = (
(442,0,o),
(560,118,o),
(560,282,o),
(442,400,o),
(278,400,o),
(160,282,o),
(160,118,o),
(278,0,o)
);
},
{
closed = 1;
nodes = (
(419,451,qs),
(462,451,o),
(537,493,o),
(559,531,q),
(489,571,l),
(465,531,o),
(420,531,qs),
(400,531,o),
(380,542,qs),
(342,563,o),
(301,563,qs),
(258,563,o),
(183,521,o),
(161,483,q),
(231,443,l),
(255,483,o),
(300,483,qs),
(320,483,o),
(340,472,qs),
(378,451,o)
);
}
);
width = 720;
}
);
note = Otilde;
unicode = 213;
},
{
glyphname = Odieresis;
layers = (
{
layerId = m01;
shapes = (
{
closed = 1;
nodes = (
(410,320,o),
(480,250,o),
(480,150,o),
(410,80,o),
(310,80,o),
(240,150,o),
(240,250,o),
(310,320,o)
);
},
{
closed = 1;
nodes = (
(442,0,o),
(560,118,o),
(560,282,o),
(442,400,o),
(278,400,o),
(160,282,o),
(160,118,o),
(278,0,o)
);
},
{
closed = 1;
nodes = (
(480,443,l),
(480,523,l),
(400,523,l),
(400,443,l)
);
},
{
closed = 1;
nodes = (
(320,443,l),
(320,523,l),
(240,523,l),
(240,443,l)
);
}
);
width = 720;
}
);
note = Odieresis;
unicode = 214;
},
{
glyphname = multiply;
layers = (
{
layerId = m01;
shapes = (
{
closed = 1;
nodes = (
(188,428,l),
(132,372,l),
(303,200,l),
(132,28,l),
(188,-28,l),
(360,143,l),
(532,-28,l),
(588,28,l),
(417,200,l),
(588,372,l),
(532,428,l),
(360,257,l)
);
}
);
width = 720;
}
);
note = multiply;
unicode = 215;
},
{
glyphname = Oslash;
layers = (
{
layerId = m01;
shapes = (
{
closed = 1;
nodes = (
(125,101,q),
(52,28,l),
(108,-28,l),
(181,45,l),
(244,0,o),
(320,0,qs),
(419,0,o),
(560,141,o),
(560,240,qs),
(560,316,o),
(515,379,q),
(588,452,l),
(532,508,l),
(459,435,l),
(396,480,o),
(320,480,qs),
(221,480,o),
(80,339,o),
(80,240,qs),
(80,164,o)
);
},
{
closed = 1;
nodes = (
(160,196,o),
(160,240,qs),
(160,306,o),
(254,400,o),
(320,400,qs),
(364,400,o),
(402,378,q),
(182,158,l)
);
},
{
closed = 1;
nodes = (
(480,240,qs),
(480,174,o),
(386,80,o),
(320,80,qs),
(276,80,o),
(238,102,q),
(458,322,l),
(480,284,o)
);
}
);
width = 720;
}
);
note = Oslash;
unicode = 216;
},
{
glyphname = Ugrave;
layers = (
{
layerId = m01;
shapes = (
{
closed = 1;
nodes = (
(278,0,o),
(442,0,o),
(560,118,o),
(560,200,qs),
(560,400,l),
(480,400,l),
(480,200,ls),
(480,150,o),
(410,80,o),
(310,80,o),
(240,150,o),
(240,200,qs),
(240,400,l),
(160,400,l),
(160,200,ls),
(160,118,o)
);
},
{
closed = 1;
nodes = (
(416,499,l),
(268,648,l),
(211,591,l),
(360,443,l)
);
}
);
width = 720;
}
);
note = Ugrave;
unicode = 217;
},
{
glyphname = Uacute;
layers = (
{
layerId = m01;
shapes = (
{
closed = 1;
nodes = (
(278,0,o),
(442,0,o),
(560,118,o),
(560,200,qs),
(560,400,l),
(480,400,l),
(480,200,ls),
(480,150,o),
(410,80,o),
(310,80,o),
(240,150,o),
(240,200,qs),
(240,400,l),
(160,400,l),
(160,200,ls),
(160,118,o)
);
},
{
closed = 1;
nodes = (
(509,591,l),
(452,648,l),
(304,499,l),
(360,443,l)
);
}
);
width = 720;
}
);
note = Uacute;
unicode = 218;
},
{
glyphname = Ucircumflex;
layers = (
{
layerId = m01;
shapes = (
{
closed = 1;
nodes = (
(278,0,o),
(442,0,o),
(560,118,o),
(560,200,qs),
(560,400,l),
(480,400,l),
(480,200,ls),
(480,150,o),
(410,80,o),
(310,80,o),
(240,150,o),
(240,200,qs),
(240,400,l),
(160,400,l),
(160,200,ls),
(160,118,o)
);
},
{
closed = 1;
nodes = (
(452,443,l),
(508,499,l),
(360,648,l),
(212,499,l),
(268,443,l),
(360,534,l)
);
}
);
width = 720;
}
);
note = Ucircumflex;
unicode = 219;
},
{
glyphname = Udieresis;
layers = (
{
layerId = m01;
shapes = (
{
closed = 1;
nodes = (
(278,0,o),
(442,0,o),
(560,118,o),
(560,200,qs),
(560,400,l),
(480,400,l),
(480,200,ls),
(480,150,o),
(410,80,o),
(310,80,o),
(240,150,o),
(240,200,qs),
(240,400,l),
(160,400,l),
(160,200,ls),
(160,118,o)
);
},
{
closed = 1;
nodes = (
(480,443,l),
(480,523,l),
(400,523,l),
(400,443,l)
);
},
{
closed = 1;
nodes = (
(320,443,l),
(320,523,l),
(240,523,l),
(240,443,l)
);
}
);
width = 720;
}
);
note = Udieresis;
unicode = 220;
},
{
glyphname = Yacute;
layers = (
{
layerId = m01;
shapes = (
{
closed = 1;
nodes = (
(320,0,l),
(400,0,l),
(400,183,l),
(617,400,l),
(503,400,l),
(360,257,l),
(217,400,l),
(103,400,l),
(320,183,l)
);
},
{
closed = 1;
nodes = (
(509,591,l),
(452,648,l),
(304,499,l),
(360,443,l)
);
}
);
width = 720;
}
);
note = Yacute;
unicode = 221;
},
{
glyphname = Thorn;
layers = (
{
layerId = m01;
shapes = (
{
closed = 1;
nodes = (
(160,480,l),
(80,480,l),
(80,0,l),
(160,0,l),
(160,80,l),
(400,80,ls),
(466,80,o),
(560,174,o),
(560,306,o),
(466,400,o),
(400,400,qs),
(160,400,l)
);
},
{
closed = 1;
nodes = (
(433,320,o),
(480,273,o),
(480,207,o),
(433,160,o),
(400,160,qs),
(160,160,l),
(160,320,l),
(400,320,ls)
);
}
);
width = 720;
}
);
note = Thorn;
unicode = 222;
},
{
glyphname = germandbls;
layers = (
{
layerId = m01;
shapes = (
{
closed = 1;
nodes = (
(320,0,l),
(410,0,ls),
(472,0,o),
(560,88,o),
(560,150,qs),
(560,220,o),
(508,264,q),
(540,301,o),
(540,350,qs),
(540,404,o),
(464,480,o),
(410,480,qs),
(320,480,ls),
(254,480,o),
(160,386,o),
(160,320,qs),
(160,0,l),
(240,0,l),
(240,320,ls),
(240,353,o),
(287,400,o),
(320,400,qs),
(410,400,ls),
(431,400,o),
(460,371,o),
(460,329,o),
(431,300,o),
(410,300,qs),
(320,300,l),
(320,220,l),
(410,220,ls),
(439,220,o),
(480,179,o),
(480,121,o),
(439,80,o),
(410,80,qs),
(320,80,l)
);
}
);
width = 720;
}
);
note = germandbls;
unicode = 223;
},
{
glyphname = agrave;
layers = (
{
layerId = m01;
shapes = (
{
closed = 1;
nodes = (
(360,320,qs),
(480,320,l),
(480,200,l),
(454,170,ls),
(429,140,o),
(349,80,o),
(320,80,qs),
(286,80,o),
(240,150,o),
(240,250,o),
(310,320,o)
);
},
{
closed = 1;
nodes = (
(560,0,l),
(560,400,l),
(360,400,ls),
(278,400,o),
(160,282,o),
(160,200,qs),
(160,117,o),
(253,0,o),
(320,0,qs),
(389,0,o),
(480,99,q),
(480,0,l)
);
},
{
closed = 1;
nodes = (
(416,499,l),
(268,648,l),
(211,591,l),
(360,443,l)
);
}
);
width = 720;
}
);
note = agrave;
unicode = 224;
},
{
glyphname = aacute;
layers = (
{
layerId = m01;
shapes = (
{
closed = 1;
nodes = (
(360,320,qs),
(480,320,l),
(480,200,l),
(454,170,ls),
(429,140,o),
(349,80,o),
(320,80,qs),
(286,80,o),
(240,150,o),
(240,250,o),
(310,320,o)
);
},
{
closed = 1;
nodes = (
(560,0,l),
(560,400,l),
(360,400,ls),
(278,400,o),
(160,282,o),
(160,200,qs),
(160,117,o),
(253,0,o),
(320,0,qs),
(389,0,o),
(480,99,q),
(480,0,l)
);
},
{
closed = 1;
nodes = (
(509,591,l),
(452,648,l),
(304,499,l),
(360,443,l)
);
}
);
width = 720;
}
);
note = aacute;
unicode = 225;
},
{
glyphname = acircumflex;
layers = (
{
layerId = m01;
shapes = (
{
closed = 1;
nodes = (
(360,320,qs),
(480,320,l),
(480,200,l),
(454,170,ls),
(429,140,o),
(349,80,o),
(320,80,qs),
(286,80,o),
(240,150,o),
(240,250,o),
(310,320,o)
);
},
{
closed = 1;
nodes = (
(560,0,l),
(560,400,l),
(360,400,ls),
(278,400,o),
(160,282,o),
(160,200,qs),
(160,117,o),
(253,0,o),
(320,0,qs),
(389,0,o),
(480,99,q),
(480,0,l)
);
},
{
closed = 1;
nodes = (
(452,443,l),
(508,499,l),
(360,648,l),
(212,499,l),
(268,443,l),
(360,534,l)
);
}
);
width = 720;
}
);
note = acircumflex;
unicode = 226;
},
{
glyphname = atilde;
layers = (
{
layerId = m01;
shapes = (
{
closed = 1;
nodes = (
(360,320,qs),
(480,320,l),
(480,200,l),
(454,170,ls),
(429,140,o),
(349,80,o),
(320,80,qs),
(286,80,o),
(240,150,o),
(240,250,o),
(310,320,o)
);
},
{
closed = 1;
nodes = (
(560,0,l),
(560,400,l),
(360,400,ls),
(278,400,o),
(160,282,o),
(160,200,qs),
(160,117,o),
(253,0,o),
(320,0,qs),
(389,0,o),
(480,99,q),
(480,0,l)
);
},
{
closed = 1;
nodes = (
(419,451,qs),
(462,451,o),
(537,493,o),
(559,531,q),
(489,571,l),
(465,531,o),
(420,531,qs),
(400,531,o),
(380,542,qs),
(342,563,o),
(301,563,qs),
(258,563,o),
(183,521,o),
(161,483,q),
(231,443,l),
(255,483,o),
(300,483,qs),
(320,483,o),
(340,472,qs),
(378,451,o)
);
}
);
width = 720;
}
);
note = atilde;
unicode = 227;
},
{
glyphname = adieresis;
layers = (
{
layerId = m01;
shapes = (
{
closed = 1;
nodes = (
(360,320,qs),
(480,320,l),
(480,200,l),
(454,170,ls),
(429,140,o),
(349,80,o),
(320,80,qs),
(286,80,o),
(240,150,o),
(240,250,o),
(310,320,o)
);
},
{
closed = 1;
nodes = (
(560,0,l),
(560,400,l),
(360,400,ls),
(278,400,o),
(160,282,o),
(160,200,qs),
(160,117,o),
(253,0,o),
(320,0,qs),
(389,0,o),
(480,99,q),
(480,0,l)
);
},
{
closed = 1;
nodes = (
(480,443,l),
(480,523,l),
(400,523,l),
(400,443,l)
);
},
{
closed = 1;
nodes = (
(320,443,l),
(320,523,l),
(240,523,l),
(240,443,l)
);
}
);
width = 720;
}
);
note = adieresis;
unicode = 228;
},
{
glyphname = aring;
layers = (
{
layerId = m01;
shapes = (
{
closed = 1;
nodes = (
(360,320,qs),
(480,320,l),
(480,200,l),
(454,170,ls),
(429,140,o),
(349,80,o),
(320,80,qs),
(286,80,o),
(240,150,o),
(240,250,o),
(310,320,o)
);
},
{
closed = 1;
nodes = (
(560,0,l),
(560,400,l),
(360,400,ls),
(278,400,o),
(160,282,o),
(160,200,qs),
(160,117,o),
(253,0,o),
(320,0,qs),
(389,0,o),
(480,99,q),
(480,0,l)
);
},
{
closed = 1;
nodes = (
(393,563,o),
(440,540,o),
(440,506,o),
(393,483,o),
(327,483,o),
(280,506,o),
(280,540,o),
(327,563,o)
);
},
{
closed = 1;
nodes = (
(294,403,o),
(426,403,o),
(520,473,o),
(520,523,qs),
(520,572,o),
(426,643,o),
(294,643,o),
(200,572,o),
(200,523,qs),
(200,473,o)
);
}
);
width = 720;
}
);
note = aring;
unicode = 229;
},
{
glyphname = ae;
layers = (
{
layerId = m01;
shapes = (
{
closed = 1;
nodes = (
(400,0,l),
(400,26,l),
(435,0,o),
(480,0,qs),
(600,0,l),
(600,80,l),
(480,80,ls),
(457,80,o),
(419,124,o),
(409,151,o),
(407,160,q),
(640,160,l),
(640,200,ls),
(640,283,o),
(547,400,o),
(480,400,qs),
(435,400,o),
(400,374,q),
(400,400,l),
(240,400,ls),
(173,400,o),
(80,283,o),
(80,200,qs),
(80,116,o),
(148,0,o),
(200,0,qs),
(218,0,o),
(257,21,o),
(284,47,o),
(310,82,o),
(318,95,o),
(320,99,q),
(320,0,l)
);
},
{
closed = 1;
nodes = (
(206,320,o),
(240,320,qs),
(320,320,l),
(320,200,l),
(300,170,ls),
(280,140,o),
(220,80,o),
(200,80,qs),
(181,80,o),
(160,148,o),
(160,200,qs),
(160,250,o)
);
},
{
closed = 1;
nodes = (
(414,260,ls),
(420,280,o),
(457,320,o),
(503,320,o),
(541,276,o),
(551,249,o),
(553,240,q),
(407,240,l)
);
}
);
width = 720;
}
);
note = ae;
unicode = 230;
},
{
glyphname = ccedilla;
layers = (
{
layerId = m01;
shapes = (
{
closed = 1;
nodes = (
(389,-16,q),
(413,7,l),
(461,21,o),
(533,88,o),
(549,135,q),
(468,149,l),
(453,118,o),
(395,80,o),
(360,80,qs),
(310,80,o),
(240,150,o),
(240,250,o),
(310,320,o),
(360,320,qs),
(395,320,o),
(453,282,o),
(468,251,q),
(549,265,l),
(528,324,o),
(424,400,o),
(360,400,qs),
(278,400,o),
(160,282,o),
(160,200,qs),
(160,134,o),
(240,28,o),
(301,9,q),
(279,-12,l),
(313,-46,l),
(320,-56,o),
(320,-68,qs),
(320,-84,o),
(296,-108,o),
(264,-108,o),
(252,-96,q),
(195,-153,l),
(230,-188,o),
(330,-188,o),
(400,-118,o),
(400,-68,qs),
(400,-41,o)
);
}
);
width = 720;
}
);
note = ccedilla;
unicode = 231;
},
{
glyphname = egrave;
layers = (
{
layerId = m01;
shapes = (
{
closed = 1;
nodes = (
(360,0,qs),
(520,0,l),
(520,80,l),
(360,80,ls),
(322,80,o),
(260,125,o),
(247,160,q),
(560,160,l),
(560,200,ls),
(560,282,o),
(442,400,o),
(278,400,o),
(160,282,o),
(160,118,o),
(278,0,o)
);
},
{
closed = 1;
nodes = (
(260,275,o),
(322,320,o),
(398,320,o),
(460,275,o),
(473,240,q),
(247,240,l)
);
},
{
closed = 1;
nodes = (
(416,499,l),
(268,648,l),
(211,591,l),
(360,443,l)
);
}
);
width = 720;
}
);
note = egrave;
unicode = 232;
},
{
glyphname = eacute;
layers = (
{
layerId = m01;
shapes = (
{
closed = 1;
nodes = (
(360,0,qs),
(520,0,l),
(520,80,l),
(360,80,ls),
(322,80,o),
(260,125,o),
(247,160,q),
(560,160,l),
(560,200,ls),
(560,282,o),
(442,400,o),
(278,400,o),
(160,282,o),
(160,118,o),
(278,0,o)
);
},
{
closed = 1;
nodes = (
(260,275,o),
(322,320,o),
(398,320,o),
(460,275,o),
(473,240,q),
(247,240,l)
);
},
{
closed = 1;
nodes = (
(509,591,l),
(452,648,l),
(304,499,l),
(360,443,l)
);
}
);
width = 720;
}
);
note = eacute;
unicode = 233;
},
{
glyphname = ecircumflex;
layers = (
{
layerId = m01;
shapes = (
{
closed = 1;
nodes = (
(360,0,qs),
(520,0,l),
(520,80,l),
(360,80,ls),
(322,80,o),
(260,125,o),
(247,160,q),
(560,160,l),
(560,200,ls),
(560,282,o),
(442,400,o),
(278,400,o),
(160,282,o),
(160,118,o),
(278,0,o)
);
},
{
closed = 1;
nodes = (
(260,275,o),
(322,320,o),
(398,320,o),
(460,275,o),
(473,240,q),
(247,240,l)
);
},
{
closed = 1;
nodes = (
(452,443,l),
(508,499,l),
(360,648,l),
(212,499,l),
(268,443,l),
(360,534,l)
);
}
);
width = 720;
}
);
note = ecircumflex;
unicode = 234;
},
{
glyphname = edieresis;
layers = (
{
layerId = m01;
shapes = (
{
closed = 1;
nodes = (
(360,0,qs),
(520,0,l),
(520,80,l),
(360,80,ls),
(322,80,o),
(260,125,o),
(247,160,q),
(560,160,l),
(560,200,ls),
(560,282,o),
(442,400,o),
(278,400,o),
(160,282,o),
(160,118,o),
(278,0,o)
);
},
{
closed = 1;
nodes = (
(260,275,o),
(322,320,o),
(398,320,o),
(460,275,o),
(473,240,q),
(247,240,l)
);
},
{
closed = 1;
nodes = (
(480,443,l),
(480,523,l),
(400,523,l),
(400,443,l)
);
},
{
closed = 1;
nodes = (
(320,443,l),
(320,523,l),
(240,523,l),
(240,443,l)
);
}
);
width = 720;
}
);
note = edieresis;
unicode = 235;
},
{
glyphname = igrave;
layers = (
{
layerId = m01;
shapes = (
{
closed = 1;
nodes = (
(320,320,l),
(320,80,l),
(160,80,l),
(160,0,l),
(560,0,l),
(560,80,l),
(400,80,l),
(400,400,l),
(160,400,l),
(160,320,l)
);
},
{
closed = 1;
nodes = (
(416,499,l),
(268,648,l),
(211,591,l),
(360,443,l)
);
}
);
width = 720;
}
);
note = igrave;
unicode = 236;
},
{
glyphname = iacute;
layers = (
{
layerId = m01;
shapes = (
{
closed = 1;
nodes = (
(320,320,l),
(320,80,l),
(160,80,l),
(160,0,l),
(560,0,l),
(560,80,l),
(400,80,l),
(400,400,l),
(160,400,l),
(160,320,l)
);
},
{
closed = 1;
nodes = (
(509,591,l),
(452,648,l),
(304,499,l),
(360,443,l)
);
}
);
width = 720;
}
);
note = iacute;
unicode = 237;
},
{
glyphname = icircumflex;
layers = (
{
layerId = m01;
shapes = (
{
closed = 1;
nodes = (
(320,320,l),
(320,80,l),
(160,80,l),
(160,0,l),
(560,0,l),
(560,80,l),
(400,80,l),
(400,400,l),
(160,400,l),
(160,320,l)
);
},
{
closed = 1;
nodes = (
(452,443,l),
(508,499,l),
(360,648,l),
(212,499,l),
(268,443,l),
(360,534,l)
);
}
);
width = 720;
}
);
note = icircumflex;
unicode = 238;
},
{
glyphname = idieresis;
layers = (
{
layerId = m01;
shapes = (
{
closed = 1;
nodes = (
(320,320,l),
(320,80,l),
(160,80,l),
(160,0,l),
(560,0,l),
(560,80,l),
(400,80,l),
(400,400,l),
(160,400,l),
(160,320,l)
);
},
{
closed = 1;
nodes = (
(480,443,l),
(480,523,l),
(400,523,l),
(400,443,l)
);
},
{
closed = 1;
nodes = (
(320,443,l),
(320,523,l),
(240,523,l),
(240,443,l)
);
}
);
width = 720;
}
);
note = idieresis;
unicode = 239;
},
{
glyphname = eth;
layers = (
{
layerId = m01;
shapes = (
{
closed = 1;
nodes = (
(310,80,o),
(240,127,o),
(240,193,o),
(310,240,o),
(410,240,o),
(480,193,o),
(480,127,o),
(410,80,o)
);
},
{
closed = 1;
nodes = (
(360,400,qs),
(375,400,o),
(382,399,q),
(332,348,l),
(360,320,l),
(278,320,o),
(160,226,o),
(160,94,o),
(278,0,o),
(442,0,o),
(560,94,o),
(560,160,qs),
(560,320,ls),
(560,376,o),
(516,420,q),
(577,480,l),
(520,537,l),
(447,464,l),
(405,480,o),
(360,480,qs),
(277,480,o),
(219,433,q),
(283,381,l),
(316,400,o)
);
},
{
closed = 1;
nodes = (
(480,342,o),
(480,320,qs),
(480,288,l),
(447,308,o),
(411,315,q),
(460,364,l)
);
}
);
width = 720;
}
);
note = eth;
unicode = 240;
},
{
glyphname = ntilde;
layers = (
{
layerId = m01;
shapes = (
{
closed = 1;
nodes = (
(160,400,l),
(160,0,l),
(240,0,l),
(240,200,l),
(266,230,ls),
(291,260,o),
(371,320,o),
(400,320,qs),
(434,320,o),
(480,250,o),
(480,200,qs),
(480,0,l),
(560,0,l),
(560,200,ls),
(560,283,o),
(467,400,o),
(400,400,qs),
(331,400,o),
(240,301,q),
(240,400,l)
);
},
{
closed = 1;
nodes = (
(419,451,qs),
(462,451,o),
(537,493,o),
(559,531,q),
(489,571,l),
(465,531,o),
(420,531,qs),
(400,531,o),
(380,542,qs),
(342,563,o),
(301,563,qs),
(258,563,o),
(183,521,o),
(161,483,q),
(231,443,l),
(255,483,o),
(300,483,qs),
(320,483,o),
(340,472,qs),
(378,451,o)
);
}
);
width = 720;
}
);
note = ntilde;
unicode = 241;
},
{
glyphname = ograve;
layers = (
{
layerId = m01;
shapes = (
{
closed = 1;
nodes = (
(410,320,o),
(480,250,o),
(480,150,o),
(410,80,o),
(310,80,o),
(240,150,o),
(240,250,o),
(310,320,o)
);
},
{
closed = 1;
nodes = (
(442,0,o),
(560,118,o),
(560,282,o),
(442,400,o),
(278,400,o),
(160,282,o),
(160,118,o),
(278,0,o)
);
},
{
closed = 1;
nodes = (
(416,499,l),
(268,648,l),
(211,591,l),
(360,443,l)
);
}
);
width = 720;
}
);
note = ograve;
unicode = 242;
},
{
glyphname = oacute;
layers = (
{
layerId = m01;
shapes = (
{
closed = 1;
nodes = (
(410,320,o),
(480,250,o),
(480,150,o),
(410,80,o),
(310,80,o),
(240,150,o),
(240,250,o),
(310,320,o)
);
},
{
closed = 1;
nodes = (
(442,0,o),
(560,118,o),
(560,282,o),
(442,400,o),
(278,400,o),
(160,282,o),
(160,118,o),
(278,0,o)
);
},
{
closed = 1;
nodes = (
(509,591,l),
(452,648,l),
(304,499,l),
(360,443,l)
);
}
);
width = 720;
}
);
note = oacute;
unicode = 243;
},
{
glyphname = ocircumflex;
layers = (
{
layerId = m01;
shapes = (
{
closed = 1;
nodes = (
(410,320,o),
(480,250,o),
(480,150,o),
(410,80,o),
(310,80,o),
(240,150,o),
(240,250,o),
(310,320,o)
);
},
{
closed = 1;
nodes = (
(442,0,o),
(560,118,o),
(560,282,o),
(442,400,o),
(278,400,o),
(160,282,o),
(160,118,o),
(278,0,o)
);
},
{
closed = 1;
nodes = (
(452,443,l),
(508,499,l),
(360,648,l),
(212,499,l),
(268,443,l),
(360,534,l)
);
}
);
width = 720;
}
);
note = ocircumflex;
unicode = 244;
},
{
glyphname = otilde;
layers = (
{
layerId = m01;
shapes = (
{
closed = 1;
nodes = (
(410,320,o),
(480,250,o),
(480,150,o),
(410,80,o),
(310,80,o),
(240,150,o),
(240,250,o),
(310,320,o)
);
},
{
closed = 1;
nodes = (
(442,0,o),
(560,118,o),
(560,282,o),
(442,400,o),
(278,400,o),
(160,282,o),
(160,118,o),
(278,0,o)
);
},
{
closed = 1;
nodes = (
(419,451,qs),
(462,451,o),
(537,493,o),
(559,531,q),
(489,571,l),
(465,531,o),
(420,531,qs),
(400,531,o),
(380,542,qs),
(342,563,o),
(301,563,qs),
(258,563,o),
(183,521,o),
(161,483,q),
(231,443,l),
(255,483,o),
(300,483,qs),
(320,483,o),
(340,472,qs),
(378,451,o)
);
}
);
width = 720;
}
);
note = otilde;
unicode = 245;
},
{
glyphname = odieresis;
layers = (
{
layerId = m01;
shapes = (
{
closed = 1;
nodes = (
(410,320,o),
(480,250,o),
(480,150,o),
(410,80,o),
(310,80,o),
(240,150,o),
(240,250,o),
(310,320,o)
);
},
{
closed = 1;
nodes = (
(442,0,o),
(560,118,o),
(560,282,o),
(442,400,o),
(278,400,o),
(160,282,o),
(160,118,o),
(278,0,o)
);
},
{
closed = 1;
nodes = (
(480,443,l),
(480,523,l),
(400,523,l),
(400,443,l)
);
},
{
closed = 1;
nodes = (
(320,443,l),
(320,523,l),
(240,523,l),
(240,443,l)
);
}
);
width = 720;
}
);
note = odieresis;
unicode = 246;
},
{
glyphname = divide;
layers = (
{
layerId = m01;
shapes = (
{
closed = 1;
nodes = (
(400,0,l),
(400,80,l),
(320,80,l),
(320,0,l)
);
},
{
closed = 1;
nodes = (
(400,320,l),
(400,400,l),
(320,400,l),
(320,320,l)
);
},
{
closed = 1;
nodes = (
(560,160,l),
(560,240,l),
(160,240,l),
(160,160,l)
);
}
);
width = 720;
}
);
note = divide;
unicode = 247;
},
{
glyphname = oslash;
layers = (
{
layerId = m01;
shapes = (
{
closed = 1;
nodes = (
(194,90,q),
(132,28,l),
(188,-28,l),
(250,34,l),
(302,0,o),
(360,0,qs),
(442,0,o),
(560,118,o),
(560,200,qs),
(560,258,o),
(526,310,q),
(588,372,l),
(532,428,l),
(470,366,l),
(418,400,o),
(360,400,qs),
(278,400,o),
(160,282,o),
(160,200,qs),
(160,142,o)
);
},
{
closed = 1;
nodes = (
(480,228,o),
(480,200,qs),
(480,150,o),
(410,80,o),
(360,80,qs),
(332,80,o),
(308,92,q),
(468,252,l)
);
},
{
closed = 1;
nodes = (
(240,200,qs),
(240,250,o),
(310,320,o),
(360,320,qs),
(388,320,o),
(412,308,q),
(252,148,l),
(240,172,o)
);
}
);
width = 720;
}
);
note = oslash;
unicode = 248;
},
{
glyphname = ugrave;
layers = (
{
layerId = m01;
shapes = (
{
closed = 1;
nodes = (
(560,0,l),
(560,400,l),
(480,400,l),
(480,200,l),
(454,170,ls),
(429,140,o),
(349,80,o),
(320,80,qs),
(286,80,o),
(240,150,o),
(240,200,qs),
(240,400,l),
(160,400,l),
(160,200,ls),
(160,117,o),
(253,0,o),
(320,0,qs),
(389,0,o),
(480,99,q),
(480,0,l)
);
},
{
closed = 1;
nodes = (
(416,499,l),
(268,648,l),
(211,591,l),
(360,443,l)
);
}
);
width = 720;
}
);
note = ugrave;
unicode = 249;
},
{
glyphname = uacute;
layers = (
{
layerId = m01;
shapes = (
{
closed = 1;
nodes = (
(560,0,l),
(560,400,l),
(480,400,l),
(480,200,l),
(454,170,ls),
(429,140,o),
(349,80,o),
(320,80,qs),
(286,80,o),
(240,150,o),
(240,200,qs),
(240,400,l),
(160,400,l),
(160,200,ls),
(160,117,o),
(253,0,o),
(320,0,qs),
(389,0,o),
(480,99,q),
(480,0,l)
);
},
{
closed = 1;
nodes = (
(509,591,l),
(452,648,l),
(304,499,l),
(360,443,l)
);
}
);
width = 720;
}
);
note = uacute;
unicode = 250;
},
{
glyphname = ucircumflex;
layers = (
{
layerId = m01;
shapes = (
{
closed = 1;
nodes = (
(560,0,l),
(560,400,l),
(480,400,l),
(480,200,l),
(454,170,ls),
(429,140,o),
(349,80,o),
(320,80,qs),
(286,80,o),
(240,150,o),
(240,200,qs),
(240,400,l),
(160,400,l),
(160,200,ls),
(160,117,o),
(253,0,o),
(320,0,qs),
(389,0,o),
(480,99,q),
(480,0,l)
);
},
{
closed = 1;
nodes = (
(452,443,l),
(508,499,l),
(360,648,l),
(212,499,l),
(268,443,l),
(360,534,l)
);
}
);
width = 720;
}
);
note = ucircumflex;
unicode = 251;
},
{
glyphname = udieresis;
layers = (
{
layerId = m01;
shapes = (
{
closed = 1;
nodes = (
(560,0,l),
(560,400,l),
(480,400,l),
(480,200,l),
(454,170,ls),
(429,140,o),
(349,80,o),
(320,80,qs),
(286,80,o),
(240,150,o),
(240,200,qs),
(240,400,l),
(160,400,l),
(160,200,ls),
(160,117,o),
(253,0,o),
(320,0,qs),
(389,0,o),
(480,99,q),
(480,0,l)
);
},
{
closed = 1;
nodes = (
(480,443,l),
(480,523,l),
(400,523,l),
(400,443,l)
);
},
{
closed = 1;
nodes = (
(320,443,l),
(320,523,l),
(240,523,l),
(240,443,l)
);
}
);
width = 720;
}
);
note = udieresis;
unicode = 252;
},
{
glyphname = yacute;
layers = (
{
layerId = m01;
shapes = (
{
closed = 1;
nodes = (
(480,30,o),
(410,-40,o),
(360,-40,qs),
(292,-40,o),
(257,18,q),
(189,-23,l),
(216,-67,o),
(307,-120,o),
(360,-120,qs),
(442,-120,o),
(560,-2,o),
(560,80,qs),
(560,400,l),
(480,400,l),
(480,220,l),
(454,195,ls),
(429,170,o),
(349,120,o),
(320,120,qs),
(286,120,o),
(240,178,o),
(240,220,qs),
(240,400,l),
(160,400,l),
(160,220,ls),
(160,145,o),
(253,40,o),
(320,40,qs),
(407,40,o),
(480,119,q),
(480,80,ls)
);
},
{
closed = 1;
nodes = (
(509,591,l),
(452,648,l),
(304,499,l),
(360,443,l)
);
}
);
width = 720;
}
);
note = yacute;
unicode = 253;
},
{
glyphname = thorn;
layers = (
{
layerId = m01;
shapes = (
{
closed = 1;
nodes = (
(160,520,l),
(160,-120,l),
(240,-120,l),
(240,0,l),
(360,0,ls),
(442,0,o),
(560,118,o),
(560,200,qs),
(560,283,o),
(467,400,o),
(400,400,qs),
(331,400,o),
(240,301,q),
(240,520,l)
);
},
{
closed = 1;
nodes = (
(360,80,qs),
(240,80,l),
(240,200,l),
(266,230,ls),
(291,260,o),
(371,320,o),
(400,320,qs),
(434,320,o),
(480,250,o),
(480,150,o),
(410,80,o)
);
}
);
width = 720;
}
);
note = thorn;
unicode = 254;
},
{
glyphname = ydieresis;
layers = (
{
layerId = m01;
shapes = (
{
closed = 1;
nodes = (
(480,30,o),
(410,-40,o),
(360,-40,qs),
(292,-40,o),
(257,18,q),
(189,-23,l),
(216,-67,o),
(307,-120,o),
(360,-120,qs),
(442,-120,o),
(560,-2,o),
(560,80,qs),
(560,400,l),
(480,400,l),
(480,220,l),
(454,195,ls),
(429,170,o),
(349,120,o),
(320,120,qs),
(286,120,o),
(240,178,o),
(240,220,qs),
(240,400,l),
(160,400,l),
(160,220,ls),
(160,145,o),
(253,40,o),
(320,40,qs),
(407,40,o),
(480,119,q),
(480,80,ls)
);
},
{
closed = 1;
nodes = (
(480,443,l),
(480,523,l),
(400,523,l),
(400,443,l)
);
},
{
closed = 1;
nodes = (
(320,443,l),
(320,523,l),
(240,523,l),
(240,443,l)
);
}
);
width = 720;
}
);
note = ydieresis;
unicode = 255;
},
{
glyphname = Amacron;
layers = (
{
layerId = m01;
shapes = (
{
closed = 1;
nodes = (
(480,183,l),
(480,180,l),
(240,180,l),
(240,183,l),
(360,303,l)
);
},
{
closed = 1;
nodes = (
(240,0,l),
(240,100,l),
(480,100,l),
(480,0,l),
(560,0,l),
(560,217,l),
(377,400,l),
(343,400,l),
(160,217,l),
(160,0,l)
);
},
{
closed = 1;
nodes = (
(480,443,l),
(480,523,l),
(240,523,l),
(240,443,l)
);
}
);
width = 720;
}
);
note = Amacron;
unicode = 256;
},
{
glyphname = amacron;
layers = (
{
layerId = m01;
shapes = (
{
closed = 1;
nodes = (
(360,320,qs),
(480,320,l),
(480,200,l),
(454,170,ls),
(429,140,o),
(349,80,o),
(320,80,qs),
(286,80,o),
(240,150,o),
(240,250,o),
(310,320,o)
);
},
{
closed = 1;
nodes = (
(560,0,l),
(560,400,l),
(360,400,ls),
(278,400,o),
(160,282,o),
(160,200,qs),
(160,117,o),
(253,0,o),
(320,0,qs),
(389,0,o),
(480,99,q),
(480,0,l)
);
},
{
closed = 1;
nodes = (
(480,443,l),
(480,523,l),
(240,523,l),
(240,443,l)
);
}
);
width = 720;
}
);
note = amacron;
unicode = 257;
},
{
glyphname = Abreve;
layers = (
{
layerId = m01;
shapes = (
{
closed = 1;
nodes = (
(480,183,l),
(480,180,l),
(240,180,l),
(240,183,l),
(360,303,l)
);
},
{
closed = 1;
nodes = (
(240,0,l),
(240,100,l),
(480,100,l),
(480,0,l),
(560,0,l),
(560,217,l),
(377,400,l),
(343,400,l),
(160,217,l),
(160,0,l)
);
},
{
closed = 1;
nodes = (
(393,523,o),
(327,523,o),
(280,546,o),
(280,563,q),
(200,563,l),
(200,514,o),
(294,443,o),
(426,443,o),
(520,514,o),
(520,563,q),
(440,563,l),
(440,546,o)
);
}
);
width = 720;
}
);
note = Abreve;
unicode = 258;
},
{
glyphname = abreve;
layers = (
{
layerId = m01;
shapes = (
{
closed = 1;
nodes = (
(360,320,qs),
(480,320,l),
(480,200,l),
(454,170,ls),
(429,140,o),
(349,80,o),
(320,80,qs),
(286,80,o),
(240,150,o),
(240,250,o),
(310,320,o)
);
},
{
closed = 1;
nodes = (
(560,0,l),
(560,400,l),
(360,400,ls),
(278,400,o),
(160,282,o),
(160,200,qs),
(160,117,o),
(253,0,o),
(320,0,qs),
(389,0,o),
(480,99,q),
(480,0,l)
);
},
{
closed = 1;
nodes = (
(393,523,o),
(327,523,o),
(280,546,o),
(280,563,q),
(200,563,l),
(200,514,o),
(294,443,o),
(426,443,o),
(520,514,o),
(520,563,q),
(440,563,l),
(440,546,o)
);
}
);
width = 720;
}
);
note = abreve;
unicode = 259;
},
{
glyphname = Aogonek;
layers = (
{
layerId = m01;
shapes = (
{
closed = 1;
nodes = (
(550,-188,o),
(650,-188,o),
(685,-153,q),
(628,-96,l),
(616,-108,o),
(584,-108,o),
(560,-84,o),
(560,-68,qs),
(560,-56,o),
(567,-46,q),
(601,-12,l),
(560,29,l),
(560,297,l),
(377,480,l),
(263,480,l),
(80,297,l),
(80,0,l),
(160,0,l),
(160,180,l),
(480,180,l),
(480,0,l),
(491,-16,l),
(480,-41,o),
(480,-68,qs),
(480,-118,o)
);
},
{
closed = 1;
nodes = (
(343,400,l),
(480,263,l),
(480,260,l),
(160,260,l),
(160,263,l),
(297,400,l)
);
}
);
width = 720;
}
);
note = Aogonek;
unicode = 260;
},
{
glyphname = aogonek;
layers = (
{
layerId = m01;
shapes = (
{
closed = 1;
nodes = (
(550,-188,o),
(650,-188,o),
(685,-153,q),
(628,-96,l),
(616,-108,o),
(584,-108,o),
(560,-84,o),
(560,-68,qs),
(560,-56,o),
(567,-46,q),
(601,-12,l),
(560,29,l),
(560,400,l),
(360,400,ls),
(278,400,o),
(160,282,o),
(160,200,qs),
(160,117,o),
(253,0,o),
(320,0,qs),
(389,0,o),
(480,99,q),
(480,0,l),
(491,-16,l),
(480,-41,o),
(480,-68,qs),
(480,-118,o)
);
},
{
closed = 1;
nodes = (
(360,320,qs),
(480,320,l),
(480,200,l),
(454,170,ls),
(429,140,o),
(349,80,o),
(320,80,qs),
(286,80,o),
(240,150,o),
(240,250,o),
(310,320,o)
);
}
);
width = 720;
}
);
note = aogonek;
unicode = 261;
},
{
glyphname = Cacute;
layers = (
{
layerId = m01;
shapes = (
{
closed = 1;
nodes = (
(360,0,qs),
(424,0,o),
(528,76,o),
(549,135,q),
(468,149,l),
(453,118,o),
(395,80,o),
(360,80,qs),
(310,80,o),
(240,150,o),
(240,250,o),
(310,320,o),
(360,320,qs),
(395,320,o),
(453,282,o),
(468,251,q),
(549,265,l),
(528,324,o),
(424,400,o),
(360,400,qs),
(278,400,o),
(160,282,o),
(160,118,o),
(278,0,o)
);
},
{
closed = 1;
nodes = (
(509,591,l),
(452,648,l),
(304,499,l),
(360,443,l)
);
}
);
width = 720;
}
);
note = Cacute;
unicode = 262;
},
{
glyphname = cacute;
layers = (
{
layerId = m01;
shapes = (
{
closed = 1;
nodes = (
(360,0,qs),
(424,0,o),
(528,76,o),
(549,135,q),
(468,149,l),
(453,118,o),
(395,80,o),
(360,80,qs),
(310,80,o),
(240,150,o),
(240,250,o),
(310,320,o),
(360,320,qs),
(395,320,o),
(453,282,o),
(468,251,q),
(549,265,l),
(528,324,o),
(424,400,o),
(360,400,qs),
(278,400,o),
(160,282,o),
(160,118,o),
(278,0,o)
);
},
{
closed = 1;
nodes = (
(509,591,l),
(452,648,l),
(304,499,l),
(360,443,l)
);
}
);
width = 720;
}
);
note = cacute;
unicode = 263;
},
{
glyphname = Ccircumflex;
layers = (
{
layerId = m01;
shapes = (
{
closed = 1;
nodes = (
(360,0,qs),
(424,0,o),
(528,76,o),
(549,135,q),
(468,149,l),
(453,118,o),
(395,80,o),
(360,80,qs),
(310,80,o),
(240,150,o),
(240,250,o),
(310,320,o),
(360,320,qs),
(395,320,o),
(453,282,o),
(468,251,q),
(549,265,l),
(528,324,o),
(424,400,o),
(360,400,qs),
(278,400,o),
(160,282,o),
(160,118,o),
(278,0,o)
);
},
{
closed = 1;
nodes = (
(452,443,l),
(508,499,l),
(360,648,l),
(212,499,l),
(268,443,l),
(360,534,l)
);
}
);
width = 720;
}
);
note = Ccircumflex;
unicode = 264;
},
{
glyphname = ccircumflex;
layers = (
{
layerId = m01;
shapes = (
{
closed = 1;
nodes = (
(360,0,qs),
(424,0,o),
(528,76,o),
(549,135,q),
(468,149,l),
(453,118,o),
(395,80,o),
(360,80,qs),
(310,80,o),
(240,150,o),
(240,250,o),
(310,320,o),
(360,320,qs),
(395,320,o),
(453,282,o),
(468,251,q),
(549,265,l),
(528,324,o),
(424,400,o),
(360,400,qs),
(278,400,o),
(160,282,o),
(160,118,o),
(278,0,o)
);
},
{
closed = 1;
nodes = (
(452,443,l),
(508,499,l),
(360,648,l),
(212,499,l),
(268,443,l),
(360,534,l)
);
}
);
width = 720;
}
);
note = ccircumflex;
unicode = 265;
},
{
glyphname = Cdotaccent;
layers = (
{
layerId = m01;
shapes = (
{
closed = 1;
nodes = (
(360,0,qs),
(424,0,o),
(528,76,o),
(549,135,q),
(468,149,l),
(453,118,o),
(395,80,o),
(360,80,qs),
(310,80,o),
(240,150,o),
(240,250,o),
(310,320,o),
(360,320,qs),
(395,320,o),
(453,282,o),
(468,251,q),
(549,265,l),
(528,324,o),
(424,400,o),
(360,400,qs),
(278,400,o),
(160,282,o),
(160,118,o),
(278,0,o)
);
},
{
closed = 1;
nodes = (
(400,443,l),
(400,523,l),
(320,523,l),
(320,443,l)
);
}
);
width = 720;
}
);
note = Cdotaccent;
unicode = 266;
},
{
glyphname = cdotaccent;
layers = (
{
layerId = m01;
shapes = (
{
closed = 1;
nodes = (
(360,0,qs),
(424,0,o),
(528,76,o),
(549,135,q),
(468,149,l),
(453,118,o),
(395,80,o),
(360,80,qs),
(310,80,o),
(240,150,o),
(240,250,o),
(310,320,o),
(360,320,qs),
(395,320,o),
(453,282,o),
(468,251,q),
(549,265,l),
(528,324,o),
(424,400,o),
(360,400,qs),
(278,400,o),
(160,282,o),
(160,118,o),
(278,0,o)
);
},
{
closed = 1;
nodes = (
(400,443,l),
(400,523,l),
(320,523,l),
(320,443,l)
);
}
);
width = 720;
}
);
note = cdotaccent;
unicode = 267;
},
{
glyphname = Ccaron;
layers = (
{
layerId = m01;
shapes = (
{
closed = 1;
nodes = (
(360,0,qs),
(424,0,o),
(528,76,o),
(549,135,q),
(468,149,l),
(453,118,o),
(395,80,o),
(360,80,qs),
(310,80,o),
(240,150,o),
(240,250,o),
(310,320,o),
(360,320,qs),
(395,320,o),
(453,282,o),
(468,251,q),
(549,265,l),
(528,324,o),
(424,400,o),
(360,400,qs),
(278,400,o),
(160,282,o),
(160,118,o),
(278,0,o)
);
},
{
closed = 1;
nodes = (
(268,648,l),
(212,592,l),
(360,443,l),
(508,592,l),
(452,648,l),
(360,557,l)
);
}
);
width = 720;
}
);
note = Ccaron;
unicode = 268;
},
{
glyphname = ccaron;
layers = (
{
layerId = m01;
shapes = (
{
closed = 1;
nodes = (
(360,0,qs),
(424,0,o),
(528,76,o),
(549,135,q),
(468,149,l),
(453,118,o),
(395,80,o),
(360,80,qs),
(310,80,o),
(240,150,o),
(240,250,o),
(310,320,o),
(360,320,qs),
(395,320,o),
(453,282,o),
(468,251,q),
(549,265,l),
(528,324,o),
(424,400,o),
(360,400,qs),
(278,400,o),
(160,282,o),
(160,118,o),
(278,0,o)
);
},
{
closed = 1;
nodes = (
(268,648,l),
(212,592,l),
(360,443,l),
(508,592,l),
(452,648,l),
(360,557,l)
);
}
);
width = 720;
}
);
note = ccaron;
unicode = 269;
},
{
glyphname = Dcaron;
layers = (
{
layerId = m01;
shapes = (
{
closed = 1;
nodes = (
(240,320,l),
(360,320,ls),
(410,320,o),
(480,250,o),
(480,150,o),
(410,80,o),
(360,80,qs),
(240,80,l)
);
},
{
closed = 1;
nodes = (
(560,118,o),
(560,282,o),
(442,400,o),
(360,400,qs),
(160,400,l),
(160,0,l),
(360,0,ls),
(442,0,o)
);
},
{
closed = 1;
nodes = (
(268,648,l),
(212,592,l),
(360,443,l),
(508,592,l),
(452,648,l),
(360,557,l)
);
}
);
width = 720;
}
);
note = Dcaron;
unicode = 270;
},
{
glyphname = dcaron;
layers = (
{
layerId = m01;
shapes = (
{
closed = 1;
nodes = (
(200,320,qs),
(320,320,l),
(320,200,l),
(294,170,ls),
(269,140,o),
(189,80,o),
(160,80,qs),
(126,80,o),
(80,150,o),
(80,250,o),
(150,320,o)
);
},
{
closed = 1;
nodes = (
(400,0,l),
(400,520,l),
(320,520,l),
(320,400,l),
(200,400,ls),
(118,400,o),
(0,282,o),
(0,200,qs),
(0,117,o),
(93,0,o),
(160,0,qs),
(229,0,o),
(320,99,q),
(320,0,l)
);
},
{
closed = 1;
nodes = (
(522,326,l),
(658,463,l),
(602,520,l),
(464,383,l)
);
}
);
width = 720;
}
);
note = dcaron;
unicode = 271;
},
{
glyphname = Dcroat;
layers = (
{
layerId = m01;
shapes = (
{
closed = 1;
nodes = (
(560,141,o),
(560,339,o),
(419,480,o),
(320,480,qs),
(160,480,l),
(160,300,l),
(80,300,l),
(80,220,l),
(160,220,l),
(160,0,l),
(320,0,ls),
(419,0,o)
);
},
{
closed = 1;
nodes = (
(320,300,l),
(240,300,l),
(240,400,l),
(320,400,ls),
(386,400,o),
(480,306,o),
(480,174,o),
(386,80,o),
(320,80,qs),
(240,80,l),
(240,220,l),
(320,220,l)
);
}
);
width = 720;
}
);
note = Dcroat;
unicode = 272;
},
{
glyphname = dcroat;
layers = (
{
layerId = m01;
shapes = (
{
closed = 1;
nodes = (
(560,0,l),
(560,360,l),
(640,360,l),
(640,440,l),
(560,440,l),
(560,520,l),
(480,520,l),
(480,440,l),
(400,440,l),
(400,360,l),
(480,360,l),
(480,320,l),
(360,320,ls),
(272,320,o),
(160,239,o),
(160,81,o),
(249,0,o),
(320,0,qs),
(353,0,o),
(438,55,o),
(470,88,o),
(480,99,q),
(480,0,l)
);
},
{
closed = 1;
nodes = (
(360,240,qs),
(480,240,l),
(480,200,l),
(454,170,ls),
(429,140,o),
(349,80,o),
(320,80,qs),
(281,80,o),
(240,114,o),
(240,206,o),
(303,240,o)
);
}
);
width = 720;
}
);
note = dcroat;
unicode = 273;
},
{
glyphname = Emacron;
layers = (
{
layerId = m01;
shapes = (
{
closed = 1;
nodes = (
(480,443,l),
(480,523,l),
(240,523,l),
(240,443,l)
);
},
{
closed = 1;
nodes = (
(560,400,l),
(160,400,l),
(160,0,l),
(560,0,l),
(560,80,l),
(240,80,l),
(240,160,l),
(440,160,l),
(440,240,l),
(240,240,l),
(240,320,l),
(560,320,l)
);
}
);
width = 720;
}
);
note = Emacron;
unicode = 274;
},
{
glyphname = emacron;
layers = (
{
layerId = m01;
shapes = (
{
closed = 1;
nodes = (
(360,0,qs),
(520,0,l),
(520,80,l),
(360,80,ls),
(322,80,o),
(260,125,o),
(247,160,q),
(560,160,l),
(560,200,ls),
(560,282,o),
(442,400,o),
(278,400,o),
(160,282,o),
(160,118,o),
(278,0,o)
);
},
{
closed = 1;
nodes = (
(260,275,o),
(322,320,o),
(398,320,o),
(460,275,o),
(473,240,q),
(247,240,l)
);
},
{
closed = 1;
nodes = (
(480,443,l),
(480,523,l),
(240,523,l),
(240,443,l)
);
}
);
width = 720;
}
);
note = emacron;
unicode = 275;
},
{
glyphname = Ebreve;
layers = (
{
layerId = m01;
shapes = (
{
closed = 1;
nodes = (
(393,523,o),
(327,523,o),
(280,546,o),
(280,563,q),
(200,563,l),
(200,514,o),
(294,443,o),
(426,443,o),
(520,514,o),
(520,563,q),
(440,563,l),
(440,546,o)
);
},
{
closed = 1;
nodes = (
(560,400,l),
(160,400,l),
(160,0,l),
(560,0,l),
(560,80,l),
(240,80,l),
(240,160,l),
(440,160,l),
(440,240,l),
(240,240,l),
(240,320,l),
(560,320,l)
);
}
);
width = 720;
}
);
note = Ebreve;
unicode = 276;
},
{
glyphname = ebreve;
layers = (
{
layerId = m01;
shapes = (
{
closed = 1;
nodes = (
(360,0,qs),
(520,0,l),
(520,80,l),
(360,80,ls),
(322,80,o),
(260,125,o),
(247,160,q),
(560,160,l),
(560,200,ls),
(560,282,o),
(442,400,o),
(278,400,o),
(160,282,o),
(160,118,o),
(278,0,o)
);
},
{
closed = 1;
nodes = (
(260,275,o),
(322,320,o),
(398,320,o),
(460,275,o),
(473,240,q),
(247,240,l)
);
},
{
closed = 1;
nodes = (
(393,523,o),
(327,523,o),
(280,546,o),
(280,563,q),
(200,563,l),
(200,514,o),
(294,443,o),
(426,443,o),
(520,514,o),
(520,563,q),
(440,563,l),
(440,546,o)
);
}
);
width = 720;
}
);
note = ebreve;
unicode = 277;
},
{
glyphname = Edotaccent;
layers = (
{
layerId = m01;
shapes = (
{
closed = 1;
nodes = (
(400,443,l),
(400,523,l),
(320,523,l),
(320,443,l)
);
},
{
closed = 1;
nodes = (
(560,400,l),
(160,400,l),
(160,0,l),
(560,0,l),
(560,80,l),
(240,80,l),
(240,160,l),
(440,160,l),
(440,240,l),
(240,240,l),
(240,320,l),
(560,320,l)
);
}
);
width = 720;
}
);
note = Edotaccent;
unicode = 278;
},
{
glyphname = edotaccent;
layers = (
{
layerId = m01;
shapes = (
{
closed = 1;
nodes = (
(360,0,qs),
(520,0,l),
(520,80,l),
(360,80,ls),
(322,80,o),
(260,125,o),
(247,160,q),
(560,160,l),
(560,200,ls),
(560,282,o),
(442,400,o),
(278,400,o),
(160,282,o),
(160,118,o),
(278,0,o)
);
},
{
closed = 1;
nodes = (
(260,275,o),
(322,320,o),
(398,320,o),
(460,275,o),
(473,240,q),
(247,240,l)
);
},
{
closed = 1;
nodes = (
(400,443,l),
(400,523,l),
(320,523,l),
(320,443,l)
);
}
);
width = 720;
}
);
note = edotaccent;
unicode = 279;
},
{
glyphname = Eogonek;
layers = (
{
layerId = m01;
shapes = (
{
closed = 1;
nodes = (
(350,-188,o),
(450,-188,o),
(485,-153,q),
(428,-96,l),
(416,-108,o),
(384,-108,o),
(360,-84,o),
(360,-68,qs),
(360,-57,o),
(367,-46,q),
(401,-12,l),
(389,0,l),
(560,0,l),
(560,80,l),
(160,80,l),
(160,220,l),
(440,220,l),
(440,300,l),
(160,300,l),
(160,400,l),
(560,400,l),
(560,480,l),
(80,480,l),
(80,0,l),
(275,0,l),
(291,-16,l),
(280,-41,o),
(280,-68,qs),
(280,-118,o)
);
}
);
width = 720;
}
);
note = Eogonek;
unicode = 280;
},
{
glyphname = eogonek;
layers = (
{
layerId = m01;
shapes = (
{
closed = 1;
nodes = (
(470,-188,o),
(570,-188,o),
(605,-153,q),
(548,-96,l),
(536,-108,o),
(504,-108,o),
(480,-84,o),
(480,-68,qs),
(480,-56,o),
(487,-46,q),
(521,-12,l),
(509,0,l),
(520,0,l),
(520,80,l),
(360,80,ls),
(322,80,o),
(260,125,o),
(247,160,q),
(560,160,l),
(560,200,ls),
(560,282,o),
(442,400,o),
(278,400,o),
(160,282,o),
(160,118,o),
(278,0,o),
(360,0,qs),
(395,0,l),
(411,-16,l),
(400,-41,o),
(400,-68,qs),
(400,-118,o)
);
},
{
closed = 1;
nodes = (
(260,275,o),
(322,320,o),
(398,320,o),
(460,275,o),
(473,240,q),
(247,240,l)
);
}
);
width = 720;
}
);
note = eogonek;
unicode = 281;
},
{
glyphname = Ecaron;
layers = (
{
layerId = m01;
shapes = (
{
closed = 1;
nodes = (
(268,648,l),
(212,592,l),
(360,443,l),
(508,592,l),
(452,648,l),
(360,557,l)
);
},
{
closed = 1;
nodes = (
(560,400,l),
(160,400,l),
(160,0,l),
(560,0,l),
(560,80,l),
(240,80,l),
(240,160,l),
(440,160,l),
(440,240,l),
(240,240,l),
(240,320,l),
(560,320,l)
);
}
);
width = 720;
}
);
note = Ecaron;
unicode = 282;
},
{
glyphname = ecaron;
layers = (
{
layerId = m01;
shapes = (
{
closed = 1;
nodes = (
(360,0,qs),
(520,0,l),
(520,80,l),
(360,80,ls),
(322,80,o),
(260,125,o),
(247,160,q),
(560,160,l),
(560,200,ls),
(560,282,o),
(442,400,o),
(278,400,o),
(160,282,o),
(160,118,o),
(278,0,o)
);
},
{
closed = 1;
nodes = (
(260,275,o),
(322,320,o),
(398,320,o),
(460,275,o),
(473,240,q),
(247,240,l)
);
},
{
closed = 1;
nodes = (
(268,648,l),
(212,592,l),
(360,443,l),
(508,592,l),
(452,648,l),
(360,557,l)
);
}
);
width = 720;
}
);
note = ecaron;
unicode = 283;
},
{
glyphname = Gcircumflex;
layers = (
{
layerId = m01;
shapes = (
{
closed = 1;
nodes = (
(550,210,l),
(370,210,l),
(370,130,l),
(470,130,l),
(470,80,l),
(360,80,ls),
(310,80,o),
(240,150,o),
(240,250,o),
(310,320,o),
(360,320,qs),
(395,320,o),
(453,282,o),
(468,251,q),
(549,265,l),
(528,324,o),
(424,400,o),
(360,400,qs),
(278,400,o),
(160,282,o),
(160,118,o),
(278,0,o),
(360,0,qs),
(550,0,l)
);
},
{
closed = 1;
nodes = (
(452,443,l),
(508,499,l),
(360,648,l),
(212,499,l),
(268,443,l),
(360,534,l)
);
}
);
width = 720;
}
);
note = Gcircumflex;
unicode = 284;
},
{
glyphname = gcircumflex;
layers = (
{
layerId = m01;
shapes = (
{
closed = 1;
nodes = (
(480,30,o),
(410,-40,o),
(360,-40,qs),
(292,-40,o),
(257,18,q),
(189,-23,l),
(216,-67,o),
(307,-120,o),
(360,-120,qs),
(442,-120,o),
(560,-2,o),
(560,80,qs),
(560,400,l),
(360,400,ls),
(277,400,o),
(160,295,o),
(160,145,o),
(253,40,o),
(320,40,qs),
(407,40,o),
(480,119,q),
(480,80,ls)
);
},
{
closed = 1;
nodes = (
(360,320,qs),
(480,320,l),
(480,220,l),
(454,195,ls),
(429,170,o),
(349,120,o),
(320,120,qs),
(286,120,o),
(240,178,o),
(240,262,o),
(310,320,o)
);
},
{
closed = 1;
nodes = (
(452,443,l),
(508,499,l),
(360,648,l),
(212,499,l),
(268,443,l),
(360,534,l)
);
}
);
width = 720;
}
);
note = gcircumflex;
unicode = 285;
},
{
glyphname = Gbreve;
layers = (
{
layerId = m01;
shapes = (
{
closed = 1;
nodes = (
(393,523,o),
(327,523,o),
(280,546,o),
(280,563,q),
(200,563,l),
(200,514,o),
(294,443,o),
(426,443,o),
(520,514,o),
(520,563,q),
(440,563,l),
(440,546,o)
);
},
{
closed = 1;
nodes = (
(550,210,l),
(370,210,l),
(370,130,l),
(470,130,l),
(470,80,l),
(360,80,ls),
(310,80,o),
(240,150,o),
(240,250,o),
(310,320,o),
(360,320,qs),
(395,320,o),
(453,282,o),
(468,251,q),
(549,265,l),
(528,324,o),
(424,400,o),
(360,400,qs),
(278,400,o),
(160,282,o),
(160,118,o),
(278,0,o),
(360,0,qs),
(550,0,l)
);
}
);
width = 720;
}
);
note = Gbreve;
unicode = 286;
},
{
glyphname = gbreve;
layers = (
{
layerId = m01;
shapes = (
{
closed = 1;
nodes = (
(480,30,o),
(410,-40,o),
(360,-40,qs),
(292,-40,o),
(257,18,q),
(189,-23,l),
(216,-67,o),
(307,-120,o),
(360,-120,qs),
(442,-120,o),
(560,-2,o),
(560,80,qs),
(560,400,l),
(360,400,ls),
(277,400,o),
(160,295,o),
(160,145,o),
(253,40,o),
(320,40,qs),
(407,40,o),
(480,119,q),
(480,80,ls)
);
},
{
closed = 1;
nodes = (
(360,320,qs),
(480,320,l),
(480,220,l),
(454,195,ls),
(429,170,o),
(349,120,o),
(320,120,qs),
(286,120,o),
(240,178,o),
(240,262,o),
(310,320,o)
);
},
{
closed = 1;
nodes = (
(393,523,o),
(327,523,o),
(280,546,o),
(280,563,q),
(200,563,l),
(200,514,o),
(294,443,o),
(426,443,o),
(520,514,o),
(520,563,q),
(440,563,l),
(440,546,o)
);
}
);
width = 720;
}
);
note = gbreve;
unicode = 287;
},
{
glyphname = Gdotaccent;
layers = (
{
layerId = m01;
shapes = (
{
closed = 1;
nodes = (
(400,443,l),
(400,523,l),
(320,523,l),
(320,443,l)
);
},
{
closed = 1;
nodes = (
(550,210,l),
(370,210,l),
(370,130,l),
(470,130,l),
(470,80,l),
(360,80,ls),
(310,80,o),
(240,150,o),
(240,250,o),
(310,320,o),
(360,320,qs),
(395,320,o),
(453,282,o),
(468,251,q),
(549,265,l),
(528,324,o),
(424,400,o),
(360,400,qs),
(278,400,o),
(160,282,o),
(160,118,o),
(278,0,o),
(360,0,qs),
(550,0,l)
);
}
);
width = 720;
}
);
note = Gdotaccent;
unicode = 288;
},
{
glyphname = gdotaccent;
layers = (
{
layerId = m01;
shapes = (
{
closed = 1;
nodes = (
(480,30,o),
(410,-40,o),
(360,-40,qs),
(292,-40,o),
(257,18,q),
(189,-23,l),
(216,-67,o),
(307,-120,o),
(360,-120,qs),
(442,-120,o),
(560,-2,o),
(560,80,qs),
(560,400,l),
(360,400,ls),
(277,400,o),
(160,295,o),
(160,145,o),
(253,40,o),
(320,40,qs),
(407,40,o),
(480,119,q),
(480,80,ls)
);
},
{
closed = 1;
nodes = (
(360,320,qs),
(480,320,l),
(480,220,l),
(454,195,ls),
(429,170,o),
(349,120,o),
(320,120,qs),
(286,120,o),
(240,178,o),
(240,262,o),
(310,320,o)
);
},
{
closed = 1;
nodes = (
(400,443,l),
(400,523,l),
(320,523,l),
(320,443,l)
);
}
);
width = 720;
}
);
note = gdotaccent;
unicode = 289;
},
{
glyphname = uni0122;
layers = (
{
layerId = m01;
shapes = (
{
closed = 1;
nodes = (
(320,80,ls),
(254,80,o),
(160,174,o),
(160,306,o),
(254,400,o),
(320,400,qs),
(405,400,o),
(453,329,q),
(537,343,l),
(507,405,o),
(390,480,o),
(320,480,qs),
(221,480,o),
(80,339,o),
(80,141,o),
(221,0,o),
(320,0,qs),
(540,0,l),
(540,260,l),
(320,260,l),
(320,180,l),
(460,180,l),
(460,80,l)
);
},
{
closed = 1;
nodes = (
(230,-237,l),
(367,-100,l),
(310,-43,l),
(173,-180,l)
);
}
);
width = 720;
}
);
note = uni0122;
unicode = 290;
},
{
glyphname = uni0123;
layers = (
{
layerId = m01;
shapes = (
{
closed = 1;
nodes = (
(416,499,l),
(268,648,l),
(211,591,l),
(360,443,l)
);
},
{
closed = 1;
nodes = (
(480,30,o),
(410,-40,o),
(360,-40,qs),
(292,-40,o),
(257,18,q),
(189,-23,l),
(216,-67,o),
(307,-120,o),
(360,-120,qs),
(442,-120,o),
(560,-2,o),
(560,80,qs),
(560,400,l),
(360,400,ls),
(277,400,o),
(160,295,o),
(160,145,o),
(253,40,o),
(320,40,qs),
(407,40,o),
(480,119,q),
(480,80,ls)
);
},
{
closed = 1;
nodes = (
(360,320,qs),
(480,320,l),
(480,220,l),
(454,195,ls),
(429,170,o),
(349,120,o),
(320,120,qs),
(286,120,o),
(240,178,o),
(240,262,o),
(310,320,o)
);
}
);
width = 720;
}
);
note = uni0123;
unicode = 291;
},
{
glyphname = Hcircumflex;
layers = (
{
layerId = m01;
shapes = (
{
closed = 1;
nodes = (
(240,0,l),
(240,160,l),
(480,160,l),
(480,0,l),
(560,0,l),
(560,400,l),
(480,400,l),
(480,240,l),
(240,240,l),
(240,400,l),
(160,400,l),
(160,0,l)
);
},
{
closed = 1;
nodes = (
(452,443,l),
(508,499,l),
(360,648,l),
(212,499,l),
(268,443,l),
(360,534,l)
);
}
);
width = 720;
}
);
note = Hcircumflex;
unicode = 292;
},
{
glyphname = hcircumflex;
layers = (
{
layerId = m01;
shapes = (
{
closed = 1;
nodes = (
(160,400,l),
(160,0,l),
(240,0,l),
(240,120,l),
(266,150,ls),
(291,180,o),
(371,240,o),
(400,240,qs),
(434,240,o),
(480,170,o),
(480,120,qs),
(480,0,l),
(560,0,l),
(560,120,ls),
(560,203,o),
(467,320,o),
(400,320,qs),
(331,320,o),
(240,221,q),
(240,400,l)
);
},
{
closed = 1;
nodes = (
(452,443,l),
(508,499,l),
(360,648,l),
(212,499,l),
(268,443,l),
(360,534,l)
);
}
);
width = 720;
}
);
note = hcircumflex;
unicode = 293;
},
{
glyphname = Hbar;
layers = (
{
layerId = m01;
shapes = (
{
closed = 1;
nodes = (
(0,400,l),
(0,320,l),
(80,320,l),
(80,0,l),
(160,0,l),
(160,200,l),
(480,200,l),
(480,0,l),
(560,0,l),
(560,320,l),
(640,320,l),
(640,400,l),
(560,400,l),
(560,480,l),
(480,480,l),
(480,400,l),
(160,400,l),
(160,480,l),
(80,480,l),
(80,400,l)
);
},
{
closed = 1;
nodes = (
(480,280,l),
(160,280,l),
(160,320,l),
(480,320,l)
);
}
);
width = 720;
}
);
note = Hbar;
unicode = 294;
},
{
glyphname = hbar;
layers = (
{
layerId = m01;
shapes = (
{
closed = 1;
nodes = (
(320,360,l),
(320,440,l),
(240,440,l),
(240,520,l),
(160,520,l),
(160,440,l),
(80,440,l),
(80,360,l),
(160,360,l),
(160,0,l),
(240,0,l),
(240,120,l),
(266,150,ls),
(291,180,o),
(371,240,o),
(400,240,qs),
(434,240,o),
(480,170,o),
(480,120,qs),
(480,0,l),
(560,0,l),
(560,120,ls),
(560,203,o),
(467,320,o),
(400,320,qs),
(331,320,o),
(240,221,q),
(240,360,l)
);
}
);
width = 720;
}
);
note = hbar;
unicode = 295;
},
{
glyphname = Itilde;
layers = (
{
layerId = m01;
shapes = (
{
closed = 1;
nodes = (
(419,451,qs),
(462,451,o),
(537,493,o),
(559,531,q),
(489,571,l),
(465,531,o),
(420,531,qs),
(400,531,o),
(380,542,qs),
(342,563,o),
(301,563,qs),
(258,563,o),
(183,521,o),
(161,483,q),
(231,443,l),
(255,483,o),
(300,483,qs),
(320,483,o),
(340,472,qs),
(378,451,o)
);
},
{
closed = 1;
nodes = (
(320,320,l),
(320,80,l),
(240,80,l),
(240,0,l),
(480,0,l),
(480,80,l),
(400,80,l),
(400,320,l),
(480,320,l),
(480,400,l),
(240,400,l),
(240,320,l)
);
}
);
width = 720;
}
);
note = Itilde;
unicode = 296;
},
{
glyphname = itilde;
layers = (
{
layerId = m01;
shapes = (
{
closed = 1;
nodes = (
(320,320,l),
(320,80,l),
(160,80,l),
(160,0,l),
(560,0,l),
(560,80,l),
(400,80,l),
(400,400,l),
(160,400,l),
(160,320,l)
);
},
{
closed = 1;
nodes = (
(419,451,qs),
(462,451,o),
(537,493,o),
(559,531,q),
(489,571,l),
(465,531,o),
(420,531,qs),
(400,531,o),
(380,542,qs),
(342,563,o),
(301,563,qs),
(258,563,o),
(183,521,o),
(161,483,q),
(231,443,l),
(255,483,o),
(300,483,qs),
(320,483,o),
(340,472,qs),
(378,451,o)
);
}
);
width = 720;
}
);
note = itilde;
unicode = 297;
},
{
glyphname = Imacron;
layers = (
{
layerId = m01;
shapes = (
{
closed = 1;
nodes = (
(480,443,l),
(480,523,l),
(240,523,l),
(240,443,l)
);
},
{
closed = 1;
nodes = (
(320,320,l),
(320,80,l),
(240,80,l),
(240,0,l),
(480,0,l),
(480,80,l),
(400,80,l),
(400,320,l),
(480,320,l),
(480,400,l),
(240,400,l),
(240,320,l)
);
}
);
width = 720;
}
);
note = Imacron;
unicode = 298;
},
{
glyphname = imacron;
layers = (
{
layerId = m01;
shapes = (
{
closed = 1;
nodes = (
(320,320,l),
(320,80,l),
(160,80,l),
(160,0,l),
(560,0,l),
(560,80,l),
(400,80,l),
(400,400,l),
(160,400,l),
(160,320,l)
);
},
{
closed = 1;
nodes = (
(480,443,l),
(480,523,l),
(240,523,l),
(240,443,l)
);
}
);
width = 720;
}
);
note = imacron;
unicode = 299;
},
{
glyphname = Ibreve;
layers = (
{
layerId = m01;
shapes = (
{
closed = 1;
nodes = (
(393,523,o),
(327,523,o),
(280,546,o),
(280,563,q),
(200,563,l),
(200,514,o),
(294,443,o),
(426,443,o),
(520,514,o),
(520,563,q),
(440,563,l),
(440,546,o)
);
},
{
closed = 1;
nodes = (
(320,320,l),
(320,80,l),
(240,80,l),
(240,0,l),
(480,0,l),
(480,80,l),
(400,80,l),
(400,320,l),
(480,320,l),
(480,400,l),
(240,400,l),
(240,320,l)
);
}
);
width = 720;
}
);
note = Ibreve;
unicode = 300;
},
{
glyphname = ibreve;
layers = (
{
layerId = m01;
shapes = (
{
closed = 1;
nodes = (
(320,320,l),
(320,80,l),
(160,80,l),
(160,0,l),
(560,0,l),
(560,80,l),
(400,80,l),
(400,400,l),
(160,400,l),
(160,320,l)
);
},
{
closed = 1;
nodes = (
(393,523,o),
(327,523,o),
(280,546,o),
(280,563,q),
(200,563,l),
(200,514,o),
(294,443,o),
(426,443,o),
(520,514,o),
(520,563,q),
(440,563,l),
(440,546,o)
);
}
);
width = 720;
}
);
note = ibreve;
unicode = 301;
},
{
glyphname = Iogonek;
layers = (
{
layerId = m01;
shapes = (
{
closed = 1;
nodes = (
(320,400,l),
(320,80,l),
(240,80,l),
(240,0,l),
(315,0,l),
(331,-16,l),
(320,-41,o),
(320,-68,qs),
(320,-118,o),
(390,-188,o),
(490,-188,o),
(525,-153,q),
(468,-96,l),
(456,-108,o),
(424,-108,o),
(400,-84,o),
(400,-68,qs),
(400,-57,o),
(407,-46,q),
(441,-12,l),
(429,0,l),
(480,0,l),
(480,80,l),
(400,80,l),
(400,400,l),
(480,400,l),
(480,480,l),
(240,480,l),
(240,400,l)
);
}
);
width = 720;
}
);
note = Iogonek;
unicode = 302;
},
{
glyphname = iogonek;
layers = (
{
layerId = m01;
shapes = (
{
closed = 1;
nodes = (
(390,-188,o),
(490,-188,o),
(525,-153,q),
(468,-96,l),
(456,-108,o),
(424,-108,o),
(400,-84,o),
(400,-68,qs),
(400,-57,o),
(407,-46,q),
(441,-12,l),
(429,0,l),
(560,0,l),
(560,80,l),
(400,80,l),
(400,400,l),
(160,400,l),
(160,320,l),
(320,320,l),
(320,80,l),
(160,80,l),
(160,0,l),
(315,0,l),
(331,-16,l),
(320,-41,o),
(320,-68,qs),
(320,-118,o)
);
},
{
closed = 1;
nodes = (
(400,480,l),
(400,560,l),
(320,560,l),
(320,480,l)
);
}
);
width = 720;
}
);
note = iogonek;
unicode = 303;
},
{
glyphname = Idotaccent;
layers = (
{
layerId = m01;
shapes = (
{
closed = 1;
nodes = (
(320,320,l),
(320,80,l),
(240,80,l),
(240,0,l),
(480,0,l),
(480,80,l),
(400,80,l),
(400,320,l),
(480,320,l),
(480,400,l),
(240,400,l),
(240,320,l)
);
},
{
closed = 1;
nodes = (
(400,443,l),
(400,523,l),
(320,523,l),
(320,443,l)
);
}
);
width = 720;
}
);
note = Idotaccent;
unicode = 304;
},
{
glyphname = dotlessi;
layers = (
{
layerId = m01;
shapes = (
{
closed = 1;
nodes = (
(320,320,l),
(320,80,l),
(160,80,l),
(160,0,l),
(560,0,l),
(560,80,l),
(400,80,l),
(400,400,l),
(160,400,l),
(160,320,l)
);
}
);
width = 720;
}
);
note = dotlessi;
unicode = 305;
},
{
glyphname = IJ;
layers = (
{
layerId = m01;
shapes = (
{
closed = 1;
nodes = (
(160,400,l),
(160,80,l),
(80,80,l),
(80,0,l),
(360,0,ls),
(442,0,o),
(560,118,o),
(560,200,qs),
(560,400,l),
(640,400,l),
(640,480,l),
(400,480,l),
(400,400,l),
(480,400,l),
(480,200,ls),
(480,150,o),
(410,80,o),
(360,80,qs),
(240,80,l),
(240,400,l),
(320,400,l),
(320,480,l),
(80,480,l),
(80,400,l)
);
}
);
width = 720;
}
);
note = IJ;
unicode = 306;
},
{
glyphname = ij;
layers = (
{
layerId = m01;
shapes = (
{
closed = 1;
nodes = (
(240,320,l),
(240,80,l),
(160,80,l),
(160,0,l),
(227,0,l),
(189,-23,l),
(216,-67,o),
(307,-120,o),
(360,-120,qs),
(442,-120,o),
(560,-2,o),
(560,80,qs),
(560,400,l),
(480,400,l),
(480,80,ls),
(480,30,o),
(410,-40,o),
(360,-40,qs),
(305,-40,o),
(270,0,q),
(400,0,l),
(400,80,l),
(320,80,l),
(320,400,l),
(160,400,l),
(160,320,l)
);
},
{
closed = 1;
nodes = (
(320,480,l),
(320,560,l),
(240,560,l),
(240,480,l)
);
},
{
closed = 1;
nodes = (
(560,480,l),
(560,560,l),
(480,560,l),
(480,480,l)
);
}
);
width = 720;
}
);
note = ij;
unicode = 307;
},
{
glyphname = Jcircumflex;
layers = (
{
layerId = m01;
shapes = (
{
closed = 1;
nodes = (
(560,320,l),
(560,400,l),
(320,400,l),
(320,320,l),
(400,320,l),
(400,160,ls),
(400,127,o),
(353,80,o),
(320,80,qs),
(290,80,o),
(246,118,o),
(241,147,q),
(162,134,l),
(172,77,o),
(261,0,o),
(320,0,qs),
(386,0,o),
(480,94,o),
(480,160,qs),
(480,320,l)
);
},
{
closed = 1;
nodes = (
(532,443,l),
(588,499,l),
(440,648,l),
(292,499,l),
(348,443,l),
(440,534,l)
);
}
);
width = 720;
}
);
note = Jcircumflex;
unicode = 308;
},
{
glyphname = jcircumflex;
layers = (
{
layerId = m01;
shapes = (
{
closed = 1;
nodes = (
(330,120,o),
(230,120,o),
(160,50,o),
(160,0,qs),
(160,-56,o),
(266,-120,o),
(350,-120,qs),
(433,-120,o),
(560,-2,o),
(560,80,qs),
(560,400,l),
(480,400,l),
(480,80,ls),
(480,31,o),
(400,-40,o),
(350,-40,qs),
(240,-40,o),
(240,0,qs),
(240,16,o),
(264,40,o),
(296,40,o),
(308,28,q),
(365,85,l)
);
},
{
closed = 1;
nodes = (
(612,443,l),
(668,499,l),
(520,648,l),
(372,499,l),
(428,443,l),
(520,534,l)
);
}
);
width = 720;
}
);
note = jcircumflex;
unicode = 309;
},
{
glyphname = uni0136;
layers = (
{
layerId = m01;
shapes = (
{
closed = 1;
nodes = (
(160,0,l),
(160,104,l),
(280,224,l),
(504,0,l),
(616,0,l),
(336,280,l),
(536,480,l),
(424,480,l),
(160,216,l),
(160,480,l),
(80,480,l),
(80,0,l)
);
},
{
closed = 1;
nodes = (
(308,-237,l),
(445,-100,l),
(388,-43,l),
(251,-180,l)
);
}
);
width = 720;
}
);
note = uni0136;
unicode = 310;
},
{
glyphname = uni0137;
layers = (
{
layerId = m01;
shapes = (
{
closed = 1;
nodes = (
(240,0,l),
(240,103,l),
(320,183,l),
(503,0,l),
(617,0,l),
(377,240,l),
(537,400,l),
(423,400,l),
(240,217,l),
(240,520,l),
(160,520,l),
(160,0,l)
);
},
{
closed = 1;
nodes = (
(348,-237,l),
(486,-100,l),
(428,-43,l),
(292,-180,l)
);
}
);
width = 720;
}
);
note = uni0137;
unicode = 311;
},
{
glyphname = kgreenlandic;
layers = (
{
layerId = m01;
shapes = (
{
closed = 1;
nodes = (
(240,0,l),
(240,103,l),
(320,183,l),
(503,0,l),
(617,0,l),
(377,240,l),
(537,400,l),
(423,400,l),
(240,217,l),
(240,400,l),
(160,400,l),
(160,0,l)
);
}
);
width = 720;
}
);
note = kgreenlandic;
unicode = 312;
},
{
glyphname = Lacute;
layers = (
{
layerId = m01;
shapes = (
{
closed = 1;
nodes = (
(560,0,l),
(560,80,l),
(240,80,l),
(240,400,l),
(160,400,l),
(160,0,l)
);
},
{
closed = 1;
nodes = (
(509,591,l),
(452,648,l),
(304,499,l),
(360,443,l)
);
}
);
width = 720;
}
);
note = Lacute;
unicode = 313;
},
{
glyphname = lacute;
layers = (
{
layerId = m01;
shapes = (
{
closed = 1;
nodes = (
(320,320,l),
(320,80,l),
(160,80,l),
(160,0,l),
(560,0,l),
(560,80,l),
(400,80,l),
(400,400,l),
(160,400,l),
(160,320,l)
);
},
{
closed = 1;
nodes = (
(509,591,l),
(452,648,l),
(304,499,l),
(360,443,l)
);
}
);
width = 720;
}
);
note = lacute;
unicode = 314;
},
{
glyphname = uni013B;
layers = (
{
layerId = m01;
shapes = (
{
closed = 1;
nodes = (
(560,0,l),
(560,80,l),
(160,80,l),
(160,480,l),
(80,480,l),
(80,0,l)
);
},
{
closed = 1;
nodes = (
(280,-237,l),
(417,-100,l),
(360,-43,l),
(223,-180,l)
);
}
);
width = 720;
}
);
note = uni013B;
unicode = 315;
},
{
glyphname = uni013C;
layers = (
{
layerId = m01;
shapes = (
{
closed = 1;
nodes = (
(320,440,l),
(320,80,l),
(160,80,l),
(160,0,l),
(560,0,l),
(560,80,l),
(400,80,l),
(400,520,l),
(160,520,l),
(160,440,l)
);
},
{
closed = 1;
nodes = (
(320,-237,l),
(457,-100,l),
(400,-43,l),
(263,-180,l)
);
}
);
width = 720;
}
);
note = uni013C;
unicode = 316;
},
{
glyphname = Lcaron;
layers = (
{
layerId = m01;
shapes = (
{
closed = 1;
nodes = (
(560,0,l),
(560,80,l),
(160,80,l),
(160,480,l),
(80,480,l),
(80,0,l)
);
},
{
closed = 1;
nodes = (
(362,286,l),
(498,423,l),
(442,480,l),
(304,343,l)
);
}
);
width = 720;
}
);
note = Lcaron;
unicode = 317;
},
{
glyphname = lcaron;
layers = (
{
layerId = m01;
shapes = (
{
closed = 1;
nodes = (
(320,440,l),
(320,80,l),
(160,80,l),
(160,0,l),
(560,0,l),
(560,80,l),
(400,80,l),
(400,520,l),
(160,520,l),
(160,440,l)
);
},
{
closed = 1;
nodes = (
(482,326,l),
(618,463,l),
(562,520,l),
(424,383,l)
);
}
);
width = 720;
}
);
note = lcaron;
unicode = 318;
},
{
glyphname = Ldot;
layers = (
{
layerId = m01;
shapes = (
{
closed = 1;
nodes = (
(341,240,o),
(370,269,o),
(370,311,o),
(341,340,o),
(299,340,o),
(270,311,o),
(270,269,o),
(299,240,o)
);
},
{
closed = 1;
nodes = (
(560,0,l),
(560,80,l),
(160,80,l),
(160,480,l),
(80,480,l),
(80,0,l)
);
}
);
width = 720;
}
);
note = Ldot;
unicode = 319;
},
{
glyphname = ldot;
layers = (
{
layerId = m01;
shapes = (
{
closed = 1;
nodes = (
(581,240,o),
(610,269,o),
(610,311,o),
(581,340,o),
(539,340,o),
(510,311,o),
(510,269,o),
(539,240,o)
);
},
{
closed = 1;
nodes = (
(320,440,l),
(320,80,l),
(160,80,l),
(160,0,l),
(560,0,l),
(560,80,l),
(400,80,l),
(400,520,l),
(160,520,l),
(160,440,l)
);
}
);
width = 720;
}
);
note = ldot;
unicode = 320;
},
{
glyphname = Lslash;
layers = (
{
layerId = m01;
shapes = (
{
closed = 1;
nodes = (
(52,188,l),
(108,132,l),
(160,184,l),
(160,0,l),
(560,0,l),
(560,80,l),
(240,80,l),
(240,264,l),
(348,372,l),
(292,428,l),
(240,376,l),
(240,480,l),
(160,480,l),
(160,296,l)
);
}
);
width = 720;
}
);
note = Lslash;
unicode = 321;
},
{
glyphname = lslash;
layers = (
{
layerId = m01;
shapes = (
{
closed = 1;
nodes = (
(320,440,l),
(320,296,l),
(212,188,l),
(268,132,l),
(320,184,l),
(320,80,l),
(160,80,l),
(160,0,l),
(560,0,l),
(560,80,l),
(400,80,l),
(400,264,l),
(508,372,l),
(452,428,l),
(400,376,l),
(400,520,l),
(160,520,l),
(160,440,l)
);
}
);
width = 720;
}
);
note = lslash;
unicode = 322;
},
{
glyphname = Nacute;
layers = (
{
layerId = m01;
shapes = (
{
closed = 1;
nodes = (
(509,591,l),
(452,648,l),
(304,499,l),
(360,443,l)
);
},
{
closed = 1;
nodes = (
(240,264,l),
(504,0,l),
(560,0,l),
(560,400,l),
(480,400,l),
(480,136,l),
(216,400,l),
(160,400,l),
(160,0,l),
(240,0,l)
);
}
);
width = 720;
}
);
note = Nacute;
unicode = 323;
},
{
glyphname = nacute;
layers = (
{
layerId = m01;
shapes = (
{
closed = 1;
nodes = (
(160,400,l),
(160,0,l),
(240,0,l),
(240,200,l),
(266,230,ls),
(291,260,o),
(371,320,o),
(400,320,qs),
(434,320,o),
(480,250,o),
(480,200,qs),
(480,0,l),
(560,0,l),
(560,200,ls),
(560,283,o),
(467,400,o),
(400,400,qs),
(331,400,o),
(240,301,q),
(240,400,l)
);
},
{
closed = 1;
nodes = (
(509,591,l),
(452,648,l),
(304,499,l),
(360,443,l)
);
}
);
width = 720;
}
);
note = nacute;
unicode = 324;
},
{
glyphname = uni0145;
layers = (
{
layerId = m01;
shapes = (
{
closed = 1;
nodes = (
(160,344,l),
(504,0,l),
(560,0,l),
(560,480,l),
(480,480,l),
(480,136,l),
(136,480,l),
(80,480,l),
(80,0,l),
(160,0,l)
);
},
{
closed = 1;
nodes = (
(280,-237,l),
(417,-100,l),
(360,-43,l),
(223,-180,l)
);
}
);
width = 720;
}
);
note = uni0145;
unicode = 325;
},
{
glyphname = uni0146;
layers = (
{
layerId = m01;
shapes = (
{
closed = 1;
nodes = (
(160,400,l),
(160,0,l),
(240,0,l),
(240,200,l),
(266,230,ls),
(291,260,o),
(371,320,o),
(400,320,qs),
(434,320,o),
(480,250,o),
(480,200,qs),
(480,0,l),
(560,0,l),
(560,200,ls),
(560,283,o),
(467,400,o),
(400,400,qs),
(331,400,o),
(240,301,q),
(240,400,l)
);
},
{
closed = 1;
nodes = (
(320,-237,l),
(457,-100,l),
(400,-43,l),
(263,-180,l)
);
}
);
width = 720;
}
);
note = uni0146;
unicode = 326;
},
{
glyphname = Ncaron;
layers = (
{
layerId = m01;
shapes = (
{
closed = 1;
nodes = (
(268,648,l),
(212,592,l),
(360,443,l),
(508,592,l),
(452,648,l),
(360,557,l)
);
},
{
closed = 1;
nodes = (
(240,264,l),
(504,0,l),
(560,0,l),
(560,400,l),
(480,400,l),
(480,136,l),
(216,400,l),
(160,400,l),
(160,0,l),
(240,0,l)
);
}
);
width = 720;
}
);
note = Ncaron;
unicode = 327;
},
{
glyphname = ncaron;
layers = (
{
layerId = m01;
shapes = (
{
closed = 1;
nodes = (
(160,400,l),
(160,0,l),
(240,0,l),
(240,200,l),
(266,230,ls),
(291,260,o),
(371,320,o),
(400,320,qs),
(434,320,o),
(480,250,o),
(480,200,qs),
(480,0,l),
(560,0,l),
(560,200,ls),
(560,283,o),
(467,400,o),
(400,400,qs),
(331,400,o),
(240,301,q),
(240,400,l)
);
},
{
closed = 1;
nodes = (
(268,648,l),
(212,592,l),
(360,443,l),
(508,592,l),
(452,648,l),
(360,557,l)
);
}
);
width = 720;
}
);
note = ncaron;
unicode = 328;
},
{
glyphname = napostrophe;
layers = (
{
layerId = m01;
shapes = (
{
closed = 1;
nodes = (
(0,280,l),
(160,280,l),
(160,480,l),
(80,480,l),
(80,360,l),
(0,360,l)
);
},
{
closed = 1;
nodes = (
(240,400,l),
(240,0,l),
(320,0,l),
(320,200,l),
(346,230,ls),
(371,260,o),
(451,320,o),
(480,320,qs),
(514,320,o),
(560,250,o),
(560,200,qs),
(560,0,l),
(640,0,l),
(640,200,ls),
(640,283,o),
(547,400,o),
(480,400,qs),
(411,400,o),
(320,301,q),
(320,400,l)
);
}
);
width = 720;
}
);
note = napostrophe;
unicode = 329;
},
{
glyphname = Eng;
layers = (
{
layerId = m01;
shapes = (
{
closed = 1;
nodes = (
(160,344,l),
(471,33,l),
(457,0,o),
(397,-40,o),
(360,-40,qs),
(292,-40,o),
(257,18,q),
(189,-23,l),
(216,-67,o),
(307,-120,o),
(360,-120,qs),
(442,-120,o),
(560,-2,o),
(560,80,qs),
(560,480,l),
(480,480,l),
(480,136,l),
(136,480,l),
(80,480,l),
(80,40,l),
(160,40,l)
);
}
);
width = 720;
}
);
note = Eng;
unicode = 330;
},
{
glyphname = eng;
layers = (
{
layerId = m01;
shapes = (
{
closed = 1;
nodes = (
(160,400,l),
(160,40,l),
(240,40,l),
(240,200,l),
(266,230,ls),
(291,260,o),
(371,320,o),
(400,320,qs),
(434,320,o),
(480,250,o),
(480,200,qs),
(480,80,ls),
(480,30,o),
(410,-40,o),
(360,-40,qs),
(292,-40,o),
(257,18,q),
(189,-23,l),
(216,-67,o),
(307,-120,o),
(360,-120,qs),
(442,-120,o),
(560,-2,o),
(560,80,qs),
(560,200,ls),
(560,283,o),
(467,400,o),
(400,400,qs),
(331,400,o),
(240,301,q),
(240,400,l)
);
}
);
width = 720;
}
);
note = eng;
unicode = 331;
},
{
glyphname = Omacron;
layers = (
{
layerId = m01;
shapes = (
{
closed = 1;
nodes = (
(410,320,o),
(480,250,o),
(480,150,o),
(410,80,o),
(310,80,o),
(240,150,o),
(240,250,o),
(310,320,o)
);
},
{
closed = 1;
nodes = (
(442,0,o),
(560,118,o),
(560,282,o),
(442,400,o),
(278,400,o),
(160,282,o),
(160,118,o),
(278,0,o)
);
},
{
closed = 1;
nodes = (
(480,443,l),
(480,523,l),
(240,523,l),
(240,443,l)
);
}
);
width = 720;
}
);
note = Omacron;
unicode = 332;
},
{
glyphname = omacron;
layers = (
{
layerId = m01;
shapes = (
{
closed = 1;
nodes = (
(410,320,o),
(480,250,o),
(480,150,o),
(410,80,o),
(310,80,o),
(240,150,o),
(240,250,o),
(310,320,o)
);
},
{
closed = 1;
nodes = (
(442,0,o),
(560,118,o),
(560,282,o),
(442,400,o),
(278,400,o),
(160,282,o),
(160,118,o),
(278,0,o)
);
},
{
closed = 1;
nodes = (
(480,443,l),
(480,523,l),
(240,523,l),
(240,443,l)
);
}
);
width = 720;
}
);
note = omacron;
unicode = 333;
},
{
glyphname = Obreve;
layers = (
{
layerId = m01;
shapes = (
{
closed = 1;
nodes = (
(410,320,o),
(480,250,o),
(480,150,o),
(410,80,o),
(310,80,o),
(240,150,o),
(240,250,o),
(310,320,o)
);
},
{
closed = 1;
nodes = (
(442,0,o),
(560,118,o),
(560,282,o),
(442,400,o),
(278,400,o),
(160,282,o),
(160,118,o),
(278,0,o)
);
},
{
closed = 1;
nodes = (
(393,523,o),
(327,523,o),
(280,546,o),
(280,563,q),
(200,563,l),
(200,514,o),
(294,443,o),
(426,443,o),
(520,514,o),
(520,563,q),
(440,563,l),
(440,546,o)
);
}
);
width = 720;
}
);
note = Obreve;
unicode = 334;
},
{
glyphname = obreve;
layers = (
{
layerId = m01;
shapes = (
{
closed = 1;
nodes = (
(410,320,o),
(480,250,o),
(480,150,o),
(410,80,o),
(310,80,o),
(240,150,o),
(240,250,o),
(310,320,o)
);
},
{
closed = 1;
nodes = (
(442,0,o),
(560,118,o),
(560,282,o),
(442,400,o),
(278,400,o),
(160,282,o),
(160,118,o),
(278,0,o)
);
},
{
closed = 1;
nodes = (
(393,523,o),
(327,523,o),
(280,546,o),
(280,563,q),
(200,563,l),
(200,514,o),
(294,443,o),
(426,443,o),
(520,514,o),
(520,563,q),
(440,563,l),
(440,546,o)
);
}
);
width = 720;
}
);
note = obreve;
unicode = 335;
},
{
glyphname = Ohungarumlaut;
layers = (
{
layerId = m01;
shapes = (
{
closed = 1;
nodes = (
(410,320,o),
(480,250,o),
(480,150,o),
(410,80,o),
(310,80,o),
(240,150,o),
(240,250,o),
(310,320,o)
);
},
{
closed = 1;
nodes = (
(442,0,o),
(560,118,o),
(560,282,o),
(442,400,o),
(278,400,o),
(160,282,o),
(160,118,o),
(278,0,o)
);
},
{
closed = 1;
nodes = (
(389,591,l),
(332,648,l),
(184,499,l),
(240,443,l)
);
},
{
closed = 1;
nodes = (
(629,591,l),
(572,648,l),
(424,499,l),
(480,443,l)
);
}
);
width = 720;
}
);
note = Ohungarumlaut;
unicode = 336;
},
{
glyphname = ohungarumlaut;
layers = (
{
layerId = m01;
shapes = (
{
closed = 1;
nodes = (
(410,320,o),
(480,250,o),
(480,150,o),
(410,80,o),
(310,80,o),
(240,150,o),
(240,250,o),
(310,320,o)
);
},
{
closed = 1;
nodes = (
(442,0,o),
(560,118,o),
(560,282,o),
(442,400,o),
(278,400,o),
(160,282,o),
(160,118,o),
(278,0,o)
);
},
{
closed = 1;
nodes = (
(389,591,l),
(332,648,l),
(184,499,l),
(240,443,l)
);
},
{
closed = 1;
nodes = (
(629,591,l),
(572,648,l),
(424,499,l),
(480,443,l)
);
}
);
width = 720;
}
);
note = ohungarumlaut;
unicode = 337;
},
{
glyphname = OE;
layers = (
{
layerId = m01;
shapes = (
{
closed = 1;
nodes = (
(560,480,l),
(320,480,ls),
(221,480,o),
(80,339,o),
(80,141,o),
(221,0,o),
(320,0,qs),
(560,0,l),
(560,80,l),
(400,80,l),
(400,220,l),
(520,220,l),
(520,300,l),
(400,300,l),
(400,400,l),
(560,400,l)
);
},
{
closed = 1;
nodes = (
(254,80,o),
(160,174,o),
(160,306,o),
(254,400,o),
(320,400,q),
(320,80,l)
);
}
);
width = 720;
}
);
note = OE;
unicode = 338;
},
{
glyphname = oe;
layers = (
{
layerId = m01;
shapes = (
{
closed = 1;
nodes = (
(414,260,ls),
(420,280,o),
(457,320,o),
(503,320,o),
(541,276,o),
(551,249,o),
(553,240,q),
(407,240,l)
);
},
{
closed = 1;
nodes = (
(240,0,qs),
(313,0,o),
(360,67,q),
(407,0,o),
(480,0,qs),
(600,0,l),
(600,80,l),
(480,80,ls),
(457,80,o),
(419,124,o),
(409,151,o),
(407,160,q),
(640,160,l),
(640,200,ls),
(640,283,o),
(547,400,o),
(480,400,qs),
(407,400,o),
(360,333,q),
(313,400,o),
(240,400,qs),
(173,400,o),
(80,283,o),
(80,117,o),
(173,0,o)
);
},
{
closed = 1;
nodes = (
(274,320,o),
(320,250,o),
(320,150,o),
(274,80,o),
(206,80,o),
(160,150,o),
(160,250,o),
(206,320,o)
);
}
);
width = 720;
}
);
note = oe;
unicode = 339;
},
{
glyphname = Racute;
layers = (
{
layerId = m01;
shapes = (
{
closed = 1;
nodes = (
(489,591,l),
(432,648,l),
(284,499,l),
(340,443,l)
);
},
{
closed = 1;
nodes = (
(160,0,l),
(240,0,l),
(240,160,l),
(304,160,l),
(464,0,l),
(576,0,l),
(415,161,l),
(477,166,o),
(560,233,o),
(560,280,qs),
(560,331,o),
(466,400,o),
(400,400,qs),
(160,400,l)
);
},
{
closed = 1;
nodes = (
(434,320,o),
(480,298,o),
(480,262,o),
(434,240,o),
(400,240,qs),
(240,240,l),
(240,320,l),
(400,320,ls)
);
}
);
width = 720;
}
);
note = Racute;
unicode = 340;
},
{
glyphname = racute;
layers = (
{
layerId = m01;
shapes = (
{
closed = 1;
nodes = (
(520,400,l),
(400,400,ls),
(331,400,o),
(240,301,q),
(240,400,l),
(160,400,l),
(160,0,l),
(240,0,l),
(240,200,l),
(266,230,ls),
(291,260,o),
(371,320,o),
(400,320,qs),
(520,320,l)
);
},
{
closed = 1;
nodes = (
(489,591,l),
(432,648,l),
(284,499,l),
(340,443,l)
);
}
);
width = 720;
}
);
note = racute;
unicode = 341;
},
{
glyphname = uni0156;
layers = (
{
layerId = m01;
shapes = (
{
closed = 1;
nodes = (
(80,0,l),
(160,0,l),
(160,160,l),
(304,160,l),
(464,0,l),
(576,0,l),
(415,161,l),
(476,167,o),
(560,258,o),
(560,320,qs),
(560,386,o),
(466,480,o),
(400,480,qs),
(80,480,l)
);
},
{
closed = 1;
nodes = (
(433,400,o),
(480,353,o),
(480,287,o),
(433,240,o),
(400,240,qs),
(160,240,l),
(160,400,l),
(400,400,ls)
);
},
{
closed = 1;
nodes = (
(288,-237,l),
(425,-100,l),
(368,-43,l),
(231,-180,l)
);
}
);
width = 720;
}
);
note = uni0156;
unicode = 342;
},
{
glyphname = uni0157;
layers = (
{
layerId = m01;
shapes = (
{
closed = 1;
nodes = (
(520,400,l),
(400,400,ls),
(331,400,o),
(240,301,q),
(240,400,l),
(160,400,l),
(160,0,l),
(240,0,l),
(240,200,l),
(266,230,ls),
(291,260,o),
(371,320,o),
(400,320,qs),
(520,320,l)
);
},
{
closed = 1;
nodes = (
(160,-237,l),
(297,-100,l),
(240,-43,l),
(103,-180,l)
);
}
);
width = 720;
}
);
note = uni0157;
unicode = 343;
},
{
glyphname = Rcaron;
layers = (
{
layerId = m01;
shapes = (
{
closed = 1;
nodes = (
(248,648,l),
(192,592,l),
(340,443,l),
(488,592,l),
(432,648,l),
(340,557,l)
);
},
{
closed = 1;
nodes = (
(160,0,l),
(240,0,l),
(240,160,l),
(304,160,l),
(464,0,l),
(576,0,l),
(415,161,l),
(477,166,o),
(560,233,o),
(560,280,qs),
(560,331,o),
(466,400,o),
(400,400,qs),
(160,400,l)
);
},
{
closed = 1;
nodes = (
(434,320,o),
(480,298,o),
(480,262,o),
(434,240,o),
(400,240,qs),
(240,240,l),
(240,320,l),
(400,320,ls)
);
}
);
width = 720;
}
);
note = Rcaron;
unicode = 344;
},
{
glyphname = rcaron;
layers = (
{
layerId = m01;
shapes = (
{
closed = 1;
nodes = (
(520,400,l),
(400,400,ls),
(331,400,o),
(240,301,q),
(240,400,l),
(160,400,l),
(160,0,l),
(240,0,l),
(240,200,l),
(266,230,ls),
(291,260,o),
(371,320,o),
(400,320,qs),
(520,320,l)
);
},
{
closed = 1;
nodes = (
(248,648,l),
(192,592,l),
(340,443,l),
(488,592,l),
(432,648,l),
(340,557,l)
);
}
);
width = 720;
}
);
note = rcaron;
unicode = 345;
},
{
glyphname = Sacute;
layers = (
{
layerId = m01;
shapes = (
{
closed = 1;
nodes = (
(230,400,o),
(160,330,o),
(160,230,o),
(230,160,o),
(280,160,qs),
(440,160,ls),
(456,160,o),
(480,136,o),
(480,104,o),
(456,80,o),
(440,80,qs),
(160,80,l),
(160,0,l),
(440,0,ls),
(490,0,o),
(560,70,o),
(560,170,o),
(490,240,o),
(440,240,qs),
(280,240,ls),
(264,240,o),
(240,264,o),
(240,296,o),
(264,320,o),
(280,320,qs),
(520,320,l),
(520,400,l),
(280,400,ls)
);
},
{
closed = 1;
nodes = (
(509,591,l),
(452,648,l),
(304,499,l),
(360,443,l)
);
}
);
width = 720;
}
);
note = Sacute;
unicode = 346;
},
{
glyphname = sacute;
layers = (
{
layerId = m01;
shapes = (
{
closed = 1;
nodes = (
(230,400,o),
(160,330,o),
(160,230,o),
(230,160,o),
(280,160,qs),
(440,160,ls),
(456,160,o),
(480,136,o),
(480,104,o),
(456,80,o),
(440,80,qs),
(160,80,l),
(160,0,l),
(440,0,ls),
(490,0,o),
(560,70,o),
(560,170,o),
(490,240,o),
(440,240,qs),
(280,240,ls),
(264,240,o),
(240,264,o),
(240,296,o),
(264,320,o),
(280,320,qs),
(520,320,l),
(520,400,l),
(280,400,ls)
);
},
{
closed = 1;
nodes = (
(509,591,l),
(452,648,l),
(304,499,l),
(360,443,l)
);
}
);
width = 720;
}
);
note = sacute;
unicode = 347;
},
{
glyphname = Scircumflex;
layers = (
{
layerId = m01;
shapes = (
{
closed = 1;
nodes = (
(230,400,o),
(160,330,o),
(160,230,o),
(230,160,o),
(280,160,qs),
(440,160,ls),
(456,160,o),
(480,136,o),
(480,104,o),
(456,80,o),
(440,80,qs),
(160,80,l),
(160,0,l),
(440,0,ls),
(490,0,o),
(560,70,o),
(560,170,o),
(490,240,o),
(440,240,qs),
(280,240,ls),
(264,240,o),
(240,264,o),
(240,296,o),
(264,320,o),
(280,320,qs),
(520,320,l),
(520,400,l),
(280,400,ls)
);
},
{
closed = 1;
nodes = (
(452,443,l),
(508,499,l),
(360,648,l),
(212,499,l),
(268,443,l),
(360,534,l)
);
}
);
width = 720;
}
);
note = Scircumflex;
unicode = 348;
},
{
glyphname = scircumflex;
layers = (
{
layerId = m01;
shapes = (
{
closed = 1;
nodes = (
(230,400,o),
(160,330,o),
(160,230,o),
(230,160,o),
(280,160,qs),
(440,160,ls),
(456,160,o),
(480,136,o),
(480,104,o),
(456,80,o),
(440,80,qs),
(160,80,l),
(160,0,l),
(440,0,ls),
(490,0,o),
(560,70,o),
(560,170,o),
(490,240,o),
(440,240,qs),
(280,240,ls),
(264,240,o),
(240,264,o),
(240,296,o),
(264,320,o),
(280,320,qs),
(520,320,l),
(520,400,l),
(280,400,ls)
);
},
{
closed = 1;
nodes = (
(452,443,l),
(508,499,l),
(360,648,l),
(212,499,l),
(268,443,l),
(360,534,l)
);
}
);
width = 720;
}
);
note = scircumflex;
unicode = 349;
},
{
glyphname = Scedilla;
layers = (
{
layerId = m01;
shapes = (
{
closed = 1;
nodes = (
(349,-16,q),
(368,3,l),
(450,13,o),
(560,91,o),
(560,140,qs),
(560,181,o),
(478,240,o),
(360,272,o),
(242,297,o),
(160,323,o),
(160,340,qs),
(160,364,o),
(254,400,o),
(320,400,qs),
(371,400,o),
(454,362,o),
(476,329,q),
(560,343,l),
(530,404,o),
(400,480,o),
(320,480,qs),
(221,480,o),
(80,397,o),
(80,340,qs),
(80,299,o),
(162,240,o),
(280,208,o),
(398,183,o),
(480,157,o),
(480,140,qs),
(480,116,o),
(386,80,o),
(320,80,qs),
(269,80,o),
(186,118,o),
(164,151,q),
(80,137,l),
(103,88,o),
(197,19,o),
(258,6,q),
(239,-12,l),
(273,-46,l),
(280,-56,o),
(280,-68,qs),
(280,-84,o),
(256,-108,o),
(224,-108,o),
(212,-96,q),
(155,-153,l),
(190,-188,o),
(290,-188,o),
(360,-118,o),
(360,-68,qs),
(360,-41,o)
);
}
);
width = 720;
}
);
note = Scedilla;
unicode = 350;
},
{
glyphname = scedilla;
layers = (
{
layerId = m01;
shapes = (
{
closed = 1;
nodes = (
(329,-16,q),
(345,0,l),
(440,0,ls),
(490,0,o),
(560,70,o),
(560,170,o),
(490,240,o),
(440,240,qs),
(280,240,ls),
(264,240,o),
(240,264,o),
(240,296,o),
(264,320,o),
(280,320,qs),
(520,320,l),
(520,400,l),
(280,400,ls),
(230,400,o),
(160,330,o),
(160,230,o),
(230,160,o),
(280,160,qs),
(440,160,ls),
(456,160,o),
(480,136,o),
(480,104,o),
(456,80,o),
(440,80,qs),
(160,80,l),
(160,0,l),
(231,0,l),
(219,-12,l),
(253,-46,l),
(260,-56,o),
(260,-68,qs),
(260,-84,o),
(236,-108,o),
(204,-108,o),
(192,-96,q),
(135,-153,l),
(170,-188,o),
(270,-188,o),
(340,-118,o),
(340,-68,qs),
(340,-41,o)
);
}
);
width = 720;
}
);
note = scedilla;
unicode = 351;
},
{
glyphname = Scaron;
layers = (
{
layerId = m01;
shapes = (
{
closed = 1;
nodes = (
(230,400,o),
(160,330,o),
(160,230,o),
(230,160,o),
(280,160,qs),
(440,160,ls),
(456,160,o),
(480,136,o),
(480,104,o),
(456,80,o),
(440,80,qs),
(160,80,l),
(160,0,l),
(440,0,ls),
(490,0,o),
(560,70,o),
(560,170,o),
(490,240,o),
(440,240,qs),
(280,240,ls),
(264,240,o),
(240,264,o),
(240,296,o),
(264,320,o),
(280,320,qs),
(520,320,l),
(520,400,l),
(280,400,ls)
);
},
{
closed = 1;
nodes = (
(268,648,l),
(212,592,l),
(360,443,l),
(508,592,l),
(452,648,l),
(360,557,l)
);
}
);
width = 720;
}
);
note = Scaron;
unicode = 352;
},
{
glyphname = scaron;
layers = (
{
layerId = m01;
shapes = (
{
closed = 1;
nodes = (
(230,400,o),
(160,330,o),
(160,230,o),
(230,160,o),
(280,160,qs),
(440,160,ls),
(456,160,o),
(480,136,o),
(480,104,o),
(456,80,o),
(440,80,qs),
(160,80,l),
(160,0,l),
(440,0,ls),
(490,0,o),
(560,70,o),
(560,170,o),
(490,240,o),
(440,240,qs),
(280,240,ls),
(264,240,o),
(240,264,o),
(240,296,o),
(264,320,o),
(280,320,qs),
(520,320,l),
(520,400,l),
(280,400,ls)
);
},
{
closed = 1;
nodes = (
(268,648,l),
(212,592,l),
(360,443,l),
(508,592,l),
(452,648,l),
(360,557,l)
);
}
);
width = 720;
}
);
note = scaron;
unicode = 353;
},
{
glyphname = uni0162;
layers = (
{
layerId = m01;
shapes = (
{
closed = 1;
nodes = (
(389,-16,q),
(400,0,l),
(400,400,l),
(600,400,l),
(600,480,l),
(120,480,l),
(120,400,l),
(320,400,l),
(320,29,l),
(279,-12,l),
(313,-46,l),
(320,-56,o),
(320,-68,qs),
(320,-84,o),
(296,-108,o),
(264,-108,o),
(252,-96,q),
(195,-153,l),
(230,-188,o),
(330,-188,o),
(400,-118,o),
(400,-68,qs),
(400,-41,o)
);
}
);
width = 720;
}
);
note = uni0162;
unicode = 354;
},
{
glyphname = uni0163;
layers = (
{
layerId = m01;
shapes = (
{
closed = 1;
nodes = (
(569,-16,q),
(585,0,l),
(600,0,l),
(600,80,l),
(480,80,ls),
(447,80,o),
(400,127,o),
(400,160,qs),
(400,320,l),
(560,320,l),
(560,400,l),
(400,400,l),
(400,520,l),
(320,520,l),
(320,400,l),
(160,400,l),
(160,320,l),
(320,320,l),
(320,160,ls),
(320,96,o),
(408,4,o),
(471,0,q),
(459,-12,l),
(493,-46,l),
(500,-56,o),
(500,-68,qs),
(500,-84,o),
(476,-108,o),
(444,-108,o),
(432,-96,q),
(375,-153,l),
(410,-188,o),
(510,-188,o),
(580,-118,o),
(580,-68,qs),
(580,-41,o)
);
}
);
width = 720;
}
);
note = uni0163;
unicode = 355;
},
{
glyphname = Tcaron;
layers = (
{
layerId = m01;
shapes = (
{
closed = 1;
nodes = (
(268,648,l),
(212,592,l),
(360,443,l),
(508,592,l),
(452,648,l),
(360,557,l)
);
},
{
closed = 1;
nodes = (
(320,320,l),
(320,0,l),
(400,0,l),
(400,320,l),
(560,320,l),
(560,400,l),
(160,400,l),
(160,320,l)
);
}
);
width = 720;
}
);
note = Tcaron;
unicode = 356;
},
{
glyphname = tcaron;
layers = (
{
layerId = m01;
shapes = (
{
closed = 1;
nodes = (
(400,320,l),
(400,400,l),
(240,400,l),
(240,520,l),
(160,520,l),
(160,400,l),
(0,400,l),
(0,320,l),
(160,320,l),
(160,160,ls),
(160,94,o),
(254,0,o),
(320,0,qs),
(440,0,l),
(440,80,l),
(320,80,ls),
(287,80,o),
(240,127,o),
(240,160,qs),
(240,320,l)
);
},
{
closed = 1;
nodes = (
(522,326,l),
(658,463,l),
(602,520,l),
(464,383,l)
);
}
);
width = 720;
}
);
note = tcaron;
unicode = 357;
},
{
glyphname = Tbar;
layers = (
{
layerId = m01;
shapes = (
{
closed = 1;
nodes = (
(320,400,l),
(320,320,l),
(160,320,l),
(160,240,l),
(320,240,l),
(320,0,l),
(400,0,l),
(400,240,l),
(560,240,l),
(560,320,l),
(400,320,l),
(400,400,l),
(600,400,l),
(600,480,l),
(120,480,l),
(120,400,l)
);
}
);
width = 720;
}
);
note = Tbar;
unicode = 358;
},
{
glyphname = tbar;
layers = (
{
layerId = m01;
shapes = (
{
closed = 1;
nodes = (
(414,0,o),
(480,0,qs),
(600,0,l),
(600,80,l),
(480,80,ls),
(447,80,o),
(400,127,o),
(400,160,q),
(560,160,l),
(560,240,l),
(400,240,l),
(400,320,l),
(560,320,l),
(560,400,l),
(400,400,l),
(400,520,l),
(320,520,l),
(320,400,l),
(160,400,l),
(160,320,l),
(320,320,l),
(320,240,l),
(160,240,l),
(160,160,l),
(320,160,l),
(320,94,o)
);
}
);
width = 720;
}
);
note = tbar;
unicode = 359;
},
{
glyphname = Utilde;
layers = (
{
layerId = m01;
shapes = (
{
closed = 1;
nodes = (
(419,451,qs),
(462,451,o),
(537,493,o),
(559,531,q),
(489,571,l),
(465,531,o),
(420,531,qs),
(400,531,o),
(380,542,qs),
(342,563,o),
(301,563,qs),
(258,563,o),
(183,521,o),
(161,483,q),
(231,443,l),
(255,483,o),
(300,483,qs),
(320,483,o),
(340,472,qs),
(378,451,o)
);
},
{
closed = 1;
nodes = (
(278,0,o),
(442,0,o),
(560,118,o),
(560,200,qs),
(560,400,l),
(480,400,l),
(480,200,ls),
(480,150,o),
(410,80,o),
(310,80,o),
(240,150,o),
(240,200,qs),
(240,400,l),
(160,400,l),
(160,200,ls),
(160,118,o)
);
}
);
width = 720;
}
);
note = Utilde;
unicode = 360;
},
{
glyphname = utilde;
layers = (
{
layerId = m01;
shapes = (
{
closed = 1;
nodes = (
(560,0,l),
(560,400,l),
(480,400,l),
(480,200,l),
(454,170,ls),
(429,140,o),
(349,80,o),
(320,80,qs),
(286,80,o),
(240,150,o),
(240,200,qs),
(240,400,l),
(160,400,l),
(160,200,ls),
(160,117,o),
(253,0,o),
(320,0,qs),
(389,0,o),
(480,99,q),
(480,0,l)
);
},
{
closed = 1;
nodes = (
(419,451,qs),
(462,451,o),
(537,493,o),
(559,531,q),
(489,571,l),
(465,531,o),
(420,531,qs),
(400,531,o),
(380,542,qs),
(342,563,o),
(301,563,qs),
(258,563,o),
(183,521,o),
(161,483,q),
(231,443,l),
(255,483,o),
(300,483,qs),
(320,483,o),
(340,472,qs),
(378,451,o)
);
}
);
width = 720;
}
);
note = utilde;
unicode = 361;
},
{
glyphname = Umacron;
layers = (
{
layerId = m01;
shapes = (
{
closed = 1;
nodes = (
(480,443,l),
(480,523,l),
(240,523,l),
(240,443,l)
);
},
{
closed = 1;
nodes = (
(278,0,o),
(442,0,o),
(560,118,o),
(560,200,qs),
(560,400,l),
(480,400,l),
(480,200,ls),
(480,150,o),
(410,80,o),
(310,80,o),
(240,150,o),
(240,200,qs),
(240,400,l),
(160,400,l),
(160,200,ls),
(160,118,o)
);
}
);
width = 720;
}
);
note = Umacron;
unicode = 362;
},
{
glyphname = umacron;
layers = (
{
layerId = m01;
shapes = (
{
closed = 1;
nodes = (
(560,0,l),
(560,400,l),
(480,400,l),
(480,200,l),
(454,170,ls),
(429,140,o),
(349,80,o),
(320,80,qs),
(286,80,o),
(240,150,o),
(240,200,qs),
(240,400,l),
(160,400,l),
(160,200,ls),
(160,117,o),
(253,0,o),
(320,0,qs),
(389,0,o),
(480,99,q),
(480,0,l)
);
},
{
closed = 1;
nodes = (
(480,443,l),
(480,523,l),
(240,523,l),
(240,443,l)
);
}
);
width = 720;
}
);
note = umacron;
unicode = 363;
},
{
glyphname = Ubreve;
layers = (
{
layerId = m01;
shapes = (
{
closed = 1;
nodes = (
(393,523,o),
(327,523,o),
(280,546,o),
(280,563,q),
(200,563,l),
(200,514,o),
(294,443,o),
(426,443,o),
(520,514,o),
(520,563,q),
(440,563,l),
(440,546,o)
);
},
{
closed = 1;
nodes = (
(278,0,o),
(442,0,o),
(560,118,o),
(560,200,qs),
(560,400,l),
(480,400,l),
(480,200,ls),
(480,150,o),
(410,80,o),
(310,80,o),
(240,150,o),
(240,200,qs),
(240,400,l),
(160,400,l),
(160,200,ls),
(160,118,o)
);
}
);
width = 720;
}
);
note = Ubreve;
unicode = 364;
},
{
glyphname = ubreve;
layers = (
{
layerId = m01;
shapes = (
{
closed = 1;
nodes = (
(560,0,l),
(560,400,l),
(480,400,l),
(480,200,l),
(454,170,ls),
(429,140,o),
(349,80,o),
(320,80,qs),
(286,80,o),
(240,150,o),
(240,200,qs),
(240,400,l),
(160,400,l),
(160,200,ls),
(160,117,o),
(253,0,o),
(320,0,qs),
(389,0,o),
(480,99,q),
(480,0,l)
);
},
{
closed = 1;
nodes = (
(393,523,o),
(327,523,o),
(280,546,o),
(280,563,q),
(200,563,l),
(200,514,o),
(294,443,o),
(426,443,o),
(520,514,o),
(520,563,q),
(440,563,l),
(440,546,o)
);
}
);
width = 720;
}
);
note = ubreve;
unicode = 365;
},
{
glyphname = Uring;
layers = (
{
layerId = m01;
shapes = (
{
closed = 1;
nodes = (
(393,603,o),
(440,580,o),
(440,546,o),
(393,523,o),
(327,523,o),
(280,546,o),
(280,580,o),
(327,603,o)
);
},
{
closed = 1;
nodes = (
(426,443,o),
(520,514,o),
(520,612,o),
(426,683,o),
(294,683,o),
(200,612,o),
(200,514,o),
(294,443,o)
);
},
{
closed = 1;
nodes = (
(278,0,o),
(442,0,o),
(560,118,o),
(560,200,qs),
(560,400,l),
(480,400,l),
(480,200,ls),
(480,150,o),
(410,80,o),
(310,80,o),
(240,150,o),
(240,200,qs),
(240,400,l),
(160,400,l),
(160,200,ls),
(160,118,o)
);
}
);
width = 720;
}
);
note = Uring;
unicode = 366;
},
{
glyphname = uring;
layers = (
{
layerId = m01;
shapes = (
{
closed = 1;
nodes = (
(560,0,l),
(560,400,l),
(480,400,l),
(480,200,l),
(454,170,ls),
(429,140,o),
(349,80,o),
(320,80,qs),
(286,80,o),
(240,150,o),
(240,200,qs),
(240,400,l),
(160,400,l),
(160,200,ls),
(160,117,o),
(253,0,o),
(320,0,qs),
(389,0,o),
(480,99,q),
(480,0,l)
);
},
{
closed = 1;
nodes = (
(393,603,o),
(440,580,o),
(440,546,o),
(393,523,o),
(327,523,o),
(280,546,o),
(280,580,o),
(327,603,o)
);
},
{
closed = 1;
nodes = (
(426,443,o),
(520,514,o),
(520,612,o),
(426,683,o),
(294,683,o),
(200,612,o),
(200,514,o),
(294,443,o)
);
}
);
width = 720;
}
);
note = uring;
unicode = 367;
},
{
glyphname = Uhungarumlaut;
layers = (
{
layerId = m01;
shapes = (
{
closed = 1;
nodes = (
(389,591,l),
(332,648,l),
(184,499,l),
(240,443,l)
);
},
{
closed = 1;
nodes = (
(629,591,l),
(572,648,l),
(424,499,l),
(480,443,l)
);
},
{
closed = 1;
nodes = (
(278,0,o),
(442,0,o),
(560,118,o),
(560,200,qs),
(560,400,l),
(480,400,l),
(480,200,ls),
(480,150,o),
(410,80,o),
(310,80,o),
(240,150,o),
(240,200,qs),
(240,400,l),
(160,400,l),
(160,200,ls),
(160,118,o)
);
}
);
width = 720;
}
);
note = Uhungarumlaut;
unicode = 368;
},
{
glyphname = uhungarumlaut;
layers = (
{
layerId = m01;
shapes = (
{
closed = 1;
nodes = (
(560,0,l),
(560,400,l),
(480,400,l),
(480,200,l),
(454,170,ls),
(429,140,o),
(349,80,o),
(320,80,qs),
(286,80,o),
(240,150,o),
(240,200,qs),
(240,400,l),
(160,400,l),
(160,200,ls),
(160,117,o),
(253,0,o),
(320,0,qs),
(389,0,o),
(480,99,q),
(480,0,l)
);
},
{
closed = 1;
nodes = (
(389,591,l),
(332,648,l),
(184,499,l),
(240,443,l)
);
},
{
closed = 1;
nodes = (
(629,591,l),
(572,648,l),
(424,499,l),
(480,443,l)
);
}
);
width = 720;
}
);
note = uhungarumlaut;
unicode = 369;
},
{
glyphname = Uogonek;
layers = (
{
layerId = m01;
shapes = (
{
closed = 1;
nodes = (
(350,-188,o),
(450,-188,o),
(485,-153,q),
(428,-96,l),
(416,-108,o),
(384,-108,o),
(360,-84,o),
(360,-68,qs),
(360,-57,o),
(367,-46,q),
(401,-12,l),
(381,8,l),
(459,28,o),
(560,158,o),
(560,240,qs),
(560,480,l),
(480,480,l),
(480,240,ls),
(480,174,o),
(386,80,o),
(254,80,o),
(160,174,o),
(160,240,qs),
(160,480,l),
(80,480,l),
(80,240,ls),
(80,155,o),
(187,23,o),
(269,5,q),
(291,-16,l),
(280,-41,o),
(280,-68,qs),
(280,-118,o)
);
}
);
width = 720;
}
);
note = Uogonek;
unicode = 370;
},
{
glyphname = uogonek;
layers = (
{
layerId = m01;
shapes = (
{
closed = 1;
nodes = (
(390,-188,o),
(490,-188,o),
(525,-153,q),
(468,-96,l),
(456,-108,o),
(424,-108,o),
(400,-84,o),
(400,-68,qs),
(400,-57,o),
(407,-46,q),
(441,-12,l),
(400,29,l),
(439,55,o),
(480,99,q),
(480,0,l),
(560,0,l),
(560,400,l),
(480,400,l),
(480,200,l),
(454,170,ls),
(429,140,o),
(349,80,o),
(320,80,qs),
(286,80,o),
(240,150,o),
(240,200,qs),
(240,400,l),
(160,400,l),
(160,200,ls),
(160,119,o),
(249,3,o),
(314,0,q),
(331,-16,l),
(320,-41,o),
(320,-68,qs),
(320,-118,o)
);
}
);
width = 720;
}
);
note = uogonek;
unicode = 371;
},
{
glyphname = Wcircumflex;
layers = (
{
layerId = m01;
shapes = (
{
closed = 1;
nodes = (
(283,0,l),
(360,179,l),
(437,0,l),
(489,0,l),
(661,400,l),
(574,400,l),
(463,142,l),
(387,320,l),
(333,320,l),
(257,142,l),
(146,400,l),
(59,400,l),
(231,0,l)
);
},
{
closed = 1;
nodes = (
(452,443,l),
(508,499,l),
(360,648,l),
(212,499,l),
(268,443,l),
(360,534,l)
);
}
);
width = 720;
}
);
note = Wcircumflex;
unicode = 372;
},
{
glyphname = wcircumflex;
layers = (
{
layerId = m01;
shapes = (
{
closed = 1;
nodes = (
(283,0,l),
(360,179,l),
(437,0,l),
(489,0,l),
(661,400,l),
(574,400,l),
(463,142,l),
(387,320,l),
(333,320,l),
(257,142,l),
(146,400,l),
(59,400,l),
(231,0,l)
);
},
{
closed = 1;
nodes = (
(452,443,l),
(508,499,l),
(360,648,l),
(212,499,l),
(268,443,l),
(360,534,l)
);
}
);
width = 720;
}
);
note = wcircumflex;
unicode = 373;
},
{
glyphname = Ycircumflex;
layers = (
{
layerId = m01;
shapes = (
{
closed = 1;
nodes = (
(452,443,l),
(508,499,l),
(360,648,l),
(212,499,l),
(268,443,l),
(360,534,l)
);
},
{
closed = 1;
nodes = (
(320,0,l),
(400,0,l),
(400,183,l),
(617,400,l),
(503,400,l),
(360,257,l),
(217,400,l),
(103,400,l),
(320,183,l)
);
}
);
width = 720;
}
);
note = Ycircumflex;
unicode = 374;
},
{
glyphname = ycircumflex;
layers = (
{
layerId = m01;
shapes = (
{
closed = 1;
nodes = (
(480,30,o),
(410,-40,o),
(360,-40,qs),
(292,-40,o),
(257,18,q),
(189,-23,l),
(216,-67,o),
(307,-120,o),
(360,-120,qs),
(442,-120,o),
(560,-2,o),
(560,80,qs),
(560,400,l),
(480,400,l),
(480,220,l),
(454,195,ls),
(429,170,o),
(349,120,o),
(320,120,qs),
(286,120,o),
(240,178,o),
(240,220,qs),
(240,400,l),
(160,400,l),
(160,220,ls),
(160,145,o),
(253,40,o),
(320,40,qs),
(407,40,o),
(480,119,q),
(480,80,ls)
);
},
{
closed = 1;
nodes = (
(452,443,l),
(508,499,l),
(360,648,l),
(212,499,l),
(268,443,l),
(360,534,l)
);
}
);
width = 720;
}
);
note = ycircumflex;
unicode = 375;
},
{
glyphname = Ydieresis;
layers = (
{
layerId = m01;
shapes = (
{
closed = 1;
nodes = (
(320,0,l),
(400,0,l),
(400,183,l),
(617,400,l),
(503,400,l),
(360,257,l),
(217,400,l),
(103,400,l),
(320,183,l)
);
},
{
closed = 1;
nodes = (
(480,443,l),
(480,523,l),
(400,523,l),
(400,443,l)
);
},
{
closed = 1;
nodes = (
(320,443,l),
(320,523,l),
(240,523,l),
(240,443,l)
);
}
);
width = 720;
}
);
note = Ydieresis;
unicode = 376;
},
{
glyphname = Zacute;
layers = (
{
layerId = m01;
shapes = (
{
closed = 1;
nodes = (
(424,320,l),
(160,56,l),
(160,0,l),
(560,0,l),
(560,80,l),
(296,80,l),
(560,344,l),
(560,400,l),
(160,400,l),
(160,320,l)
);
},
{
closed = 1;
nodes = (
(509,591,l),
(452,648,l),
(304,499,l),
(360,443,l)
);
}
);
width = 720;
}
);
note = Zacute;
unicode = 377;
},
{
glyphname = zacute;
layers = (
{
layerId = m01;
shapes = (
{
closed = 1;
nodes = (
(424,320,l),
(160,56,l),
(160,0,l),
(560,0,l),
(560,80,l),
(296,80,l),
(560,344,l),
(560,400,l),
(160,400,l),
(160,320,l)
);
},
{
closed = 1;
nodes = (
(509,591,l),
(452,648,l),
(304,499,l),
(360,443,l)
);
}
);
width = 720;
}
);
note = zacute;
unicode = 378;
},
{
glyphname = Zdotaccent;
layers = (
{
layerId = m01;
shapes = (
{
closed = 1;
nodes = (
(424,320,l),
(160,56,l),
(160,0,l),
(560,0,l),
(560,80,l),
(296,80,l),
(560,344,l),
(560,400,l),
(160,400,l),
(160,320,l)
);
},
{
closed = 1;
nodes = (
(400,443,l),
(400,523,l),
(320,523,l),
(320,443,l)
);
}
);
width = 720;
}
);
note = Zdotaccent;
unicode = 379;
},
{
glyphname = zdotaccent;
layers = (
{
layerId = m01;
shapes = (
{
closed = 1;
nodes = (
(424,320,l),
(160,56,l),
(160,0,l),
(560,0,l),
(560,80,l),
(296,80,l),
(560,344,l),
(560,400,l),
(160,400,l),
(160,320,l)
);
},
{
closed = 1;
nodes = (
(400,443,l),
(400,523,l),
(320,523,l),
(320,443,l)
);
}
);
width = 720;
}
);
note = zdotaccent;
unicode = 380;
},
{
glyphname = Zcaron;
layers = (
{
layerId = m01;
shapes = (
{
closed = 1;
nodes = (
(424,320,l),
(160,56,l),
(160,0,l),
(560,0,l),
(560,80,l),
(296,80,l),
(560,344,l),
(560,400,l),
(160,400,l),
(160,320,l)
);
},
{
closed = 1;
nodes = (
(268,648,l),
(212,592,l),
(360,443,l),
(508,592,l),
(452,648,l),
(360,557,l)
);
}
);
width = 720;
}
);
note = Zcaron;
unicode = 381;
},
{
glyphname = zcaron;
layers = (
{
layerId = m01;
shapes = (
{
closed = 1;
nodes = (
(424,320,l),
(160,56,l),
(160,0,l),
(560,0,l),
(560,80,l),
(296,80,l),
(560,344,l),
(560,400,l),
(160,400,l),
(160,320,l)
);
},
{
closed = 1;
nodes = (
(268,648,l),
(212,592,l),
(360,443,l),
(508,592,l),
(452,648,l),
(360,557,l)
);
}
);
width = 720;
}
);
note = zcaron;
unicode = 382;
},
{
glyphname = longs;
layers = (
{
layerId = m01;
shapes = (
{
closed = 1;
nodes = (
(414,520,o),
(320,426,o),
(320,360,q),
(160,360,l),
(160,280,l),
(320,280,l),
(320,0,l),
(400,0,l),
(400,360,ls),
(400,393,o),
(447,440,o),
(480,440,qs),
(600,440,l),
(600,520,l),
(480,520,ls)
);
}
);
width = 720;
}
);
note = longs;
unicode = 383;
},
{
glyphname = florin;
layers = (
{
layerId = m01;
shapes = (
{
closed = 1;
nodes = (
(414,520,o),
(320,426,o),
(320,360,q),
(160,360,l),
(160,280,l),
(320,280,l),
(320,40,ls),
(320,7,o),
(273,-40,o),
(240,-40,qs),
(120,-40,l),
(120,-120,l),
(240,-120,ls),
(306,-120,o),
(400,-26,o),
(400,40,qs),
(400,280,l),
(560,280,l),
(560,360,l),
(400,360,l),
(400,393,o),
(447,440,o),
(480,440,qs),
(600,440,l),
(600,520,l),
(480,520,ls)
);
}
);
width = 720;
}
);
note = florin;
unicode = 402;
},
{
glyphname = uni01A7;
layers = (
{
layerId = m01;
shapes = (
{
closed = 1;
nodes = (
(160,116,o),
(160,140,qs),
(160,157,o),
(242,183,o),
(360,208,o),
(478,240,o),
(560,299,o),
(560,340,qs),
(560,397,o),
(419,480,o),
(320,480,qs),
(240,480,o),
(110,404,o),
(80,343,q),
(164,329,l),
(186,362,o),
(269,400,o),
(320,400,qs),
(386,400,o),
(480,364,o),
(480,340,qs),
(480,323,o),
(398,297,o),
(280,272,o),
(162,240,o),
(80,181,o),
(80,140,qs),
(80,83,o),
(221,0,o),
(320,0,qs),
(400,0,o),
(530,76,o),
(560,137,q),
(476,151,l),
(454,118,o),
(371,80,o),
(320,80,qs),
(254,80,o)
);
}
);
width = 720;
}
);
note = uni01A7;
unicode = 423;
},
{
glyphname = uni01A8;
layers = (
{
layerId = m01;
shapes = (
{
closed = 1;
nodes = (
(440,320,ls),
(456,320,o),
(480,296,o),
(480,264,o),
(456,240,o),
(440,240,qs),
(280,240,ls),
(230,240,o),
(160,170,o),
(160,70,o),
(230,0,o),
(280,0,qs),
(560,0,l),
(560,80,l),
(280,80,ls),
(264,80,o),
(240,104,o),
(240,136,o),
(264,160,o),
(280,160,qs),
(440,160,ls),
(490,160,o),
(560,230,o),
(560,330,o),
(490,400,o),
(440,400,qs),
(200,400,l),
(200,320,l)
);
}
);
width = 720;
}
);
note = uni01A8;
unicode = 424;
},
{
glyphname = uni01C0;
layers = (
{
layerId = m01;
shapes = (
{
closed = 1;
nodes = (
(400,0,l),
(400,480,l),
(320,480,l),
(320,0,l)
);
}
);
width = 720;
}
);
note = uni01C0;
unicode = 448;
},
{
glyphname = uni01C1;
layers = (
{
layerId = m01;
shapes = (
{
closed = 1;
nodes = (
(480,0,l),
(480,480,l),
(400,480,l),
(400,0,l)
);
},
{
closed = 1;
nodes = (
(320,0,l),
(320,480,l),
(240,480,l),
(240,0,l)
);
}
);
width = 720;
}
);
note = uni01C1;
unicode = 449;
},
{
glyphname = uni01C2;
layers = (
{
layerId = m01;
shapes = (
{
closed = 1;
nodes = (
(160,360,l),
(160,280,l),
(320,280,l),
(320,200,l),
(160,200,l),
(160,120,l),
(320,120,l),
(320,0,l),
(400,0,l),
(400,120,l),
(560,120,l),
(560,200,l),
(400,200,l),
(400,280,l),
(560,280,l),
(560,360,l),
(400,360,l),
(400,480,l),
(320,480,l),
(320,360,l)
);
}
);
width = 720;
}
);
note = uni01C2;
unicode = 450;
},
{
glyphname = uni01C3;
layers = (
{
layerId = m01;
shapes = (
{
closed = 1;
nodes = (
(400,0,l),
(400,80,l),
(320,80,l),
(320,0,l)
);
},
{
closed = 1;
nodes = (
(400,160,l),
(400,480,l),
(320,480,l),
(320,160,l)
);
}
);
width = 720;
}
);
note = uni01C3;
unicode = 451;
},
{
glyphname = uni01CD;
layers = (
{
layerId = m01;
shapes = (
{
closed = 1;
nodes = (
(480,183,l),
(480,180,l),
(240,180,l),
(240,183,l),
(360,303,l)
);
},
{
closed = 1;
nodes = (
(240,0,l),
(240,100,l),
(480,100,l),
(480,0,l),
(560,0,l),
(560,217,l),
(377,400,l),
(343,400,l),
(160,217,l),
(160,0,l)
);
},
{
closed = 1;
nodes = (
(268,648,l),
(212,592,l),
(360,443,l),
(508,592,l),
(452,648,l),
(360,557,l)
);
}
);
width = 720;
}
);
note = uni01CD;
unicode = 461;
},
{
glyphname = uni01CE;
layers = (
{
layerId = m01;
shapes = (
{
closed = 1;
nodes = (
(360,320,qs),
(480,320,l),
(480,200,l),
(454,170,ls),
(429,140,o),
(349,80,o),
(320,80,qs),
(286,80,o),
(240,150,o),
(240,250,o),
(310,320,o)
);
},
{
closed = 1;
nodes = (
(560,0,l),
(560,400,l),
(360,400,ls),
(278,400,o),
(160,282,o),
(160,200,qs),
(160,117,o),
(253,0,o),
(320,0,qs),
(389,0,o),
(480,99,q),
(480,0,l)
);
},
{
closed = 1;
nodes = (
(268,648,l),
(212,592,l),
(360,443,l),
(508,592,l),
(452,648,l),
(360,557,l)
);
}
);
width = 720;
}
);
note = uni01CE;
unicode = 462;
},
{
glyphname = uni01CF;
layers = (
{
layerId = m01;
shapes = (
{
closed = 1;
nodes = (
(320,320,l),
(320,80,l),
(240,80,l),
(240,0,l),
(480,0,l),
(480,80,l),
(400,80,l),
(400,320,l),
(480,320,l),
(480,400,l),
(240,400,l),
(240,320,l)
);
},
{
closed = 1;
nodes = (
(268,648,l),
(212,592,l),
(360,443,l),
(508,592,l),
(452,648,l),
(360,557,l)
);
}
);
width = 720;
}
);
note = uni01CF;
unicode = 463;
},
{
glyphname = uni01D0;
layers = (
{
layerId = m01;
shapes = (
{
closed = 1;
nodes = (
(320,320,l),
(320,80,l),
(160,80,l),
(160,0,l),
(560,0,l),
(560,80,l),
(400,80,l),
(400,400,l),
(160,400,l),
(160,320,l)
);
},
{
closed = 1;
nodes = (
(268,648,l),
(212,592,l),
(360,443,l),
(508,592,l),
(452,648,l),
(360,557,l)
);
}
);
width = 720;
}
);
note = uni01D0;
unicode = 464;
},
{
glyphname = uni01D1;
layers = (
{
layerId = m01;
shapes = (
{
closed = 1;
nodes = (
(410,320,o),
(480,250,o),
(480,150,o),
(410,80,o),
(310,80,o),
(240,150,o),
(240,250,o),
(310,320,o)
);
},
{
closed = 1;
nodes = (
(442,0,o),
(560,118,o),
(560,282,o),
(442,400,o),
(278,400,o),
(160,282,o),
(160,118,o),
(278,0,o)
);
},
{
closed = 1;
nodes = (
(268,648,l),
(212,592,l),
(360,443,l),
(508,592,l),
(452,648,l),
(360,557,l)
);
}
);
width = 720;
}
);
note = uni01D1;
unicode = 465;
},
{
glyphname = uni01D2;
layers = (
{
layerId = m01;
shapes = (
{
closed = 1;
nodes = (
(410,320,o),
(480,250,o),
(480,150,o),
(410,80,o),
(310,80,o),
(240,150,o),
(240,250,o),
(310,320,o)
);
},
{
closed = 1;
nodes = (
(442,0,o),
(560,118,o),
(560,282,o),
(442,400,o),
(278,400,o),
(160,282,o),
(160,118,o),
(278,0,o)
);
},
{
closed = 1;
nodes = (
(268,648,l),
(212,592,l),
(360,443,l),
(508,592,l),
(452,648,l),
(360,557,l)
);
}
);
width = 720;
}
);
note = uni01D2;
unicode = 466;
},
{
glyphname = uni01D3;
layers = (
{
layerId = m01;
shapes = (
{
closed = 1;
nodes = (
(278,0,o),
(442,0,o),
(560,118,o),
(560,200,qs),
(560,400,l),
(480,400,l),
(480,200,ls),
(480,150,o),
(410,80,o),
(310,80,o),
(240,150,o),
(240,200,qs),
(240,400,l),
(160,400,l),
(160,200,ls),
(160,118,o)
);
},
{
closed = 1;
nodes = (
(268,648,l),
(212,592,l),
(360,443,l),
(508,592,l),
(452,648,l),
(360,557,l)
);
}
);
width = 720;
}
);
note = uni01D3;
unicode = 467;
},
{
glyphname = uni01D4;
layers = (
{
layerId = m01;
shapes = (
{
closed = 1;
nodes = (
(560,0,l),
(560,400,l),
(480,400,l),
(480,200,l),
(454,170,ls),
(429,140,o),
(349,80,o),
(320,80,qs),
(286,80,o),
(240,150,o),
(240,200,qs),
(240,400,l),
(160,400,l),
(160,200,ls),
(160,117,o),
(253,0,o),
(320,0,qs),
(389,0,o),
(480,99,q),
(480,0,l)
);
},
{
closed = 1;
nodes = (
(268,648,l),
(212,592,l),
(360,443,l),
(508,592,l),
(452,648,l),
(360,557,l)
);
}
);
width = 720;
}
);
note = uni01D4;
unicode = 468;
},
{
glyphname = uni01DD;
layers = (
{
layerId = m01;
shapes = (
{
closed = 1;
nodes = (
(360,400,qs),
(200,400,l),
(200,320,l),
(360,320,ls),
(398,320,o),
(460,275,o),
(473,240,q),
(160,240,l),
(160,200,ls),
(160,118,o),
(278,0,o),
(442,0,o),
(560,118,o),
(560,282,o),
(442,400,o)
);
},
{
closed = 1;
nodes = (
(460,125,o),
(398,80,o),
(322,80,o),
(260,125,o),
(247,160,q),
(473,160,l)
);
}
);
width = 720;
}
);
note = uni01DD;
unicode = 477;
},
{
glyphname = Gcaron;
layers = (
{
layerId = m01;
shapes = (
{
closed = 1;
nodes = (
(550,210,l),
(370,210,l),
(370,130,l),
(470,130,l),
(470,80,l),
(360,80,ls),
(310,80,o),
(240,150,o),
(240,250,o),
(310,320,o),
(360,320,qs),
(395,320,o),
(453,282,o),
(468,251,q),
(549,265,l),
(528,324,o),
(424,400,o),
(360,400,qs),
(278,400,o),
(160,282,o),
(160,118,o),
(278,0,o),
(360,0,qs),
(550,0,l)
);
},
{
closed = 1;
nodes = (
(268,648,l),
(212,592,l),
(360,443,l),
(508,592,l),
(452,648,l),
(360,557,l)
);
}
);
width = 720;
}
);
note = Gcaron;
unicode = 486;
},
{
glyphname = gcaron;
layers = (
{
layerId = m01;
shapes = (
{
closed = 1;
nodes = (
(480,30,o),
(410,-40,o),
(360,-40,qs),
(292,-40,o),
(257,18,q),
(189,-23,l),
(216,-67,o),
(307,-120,o),
(360,-120,qs),
(442,-120,o),
(560,-2,o),
(560,80,qs),
(560,400,l),
(360,400,ls),
(277,400,o),
(160,295,o),
(160,145,o),
(253,40,o),
(320,40,qs),
(407,40,o),
(480,119,q),
(480,80,ls)
);
},
{
closed = 1;
nodes = (
(360,320,qs),
(480,320,l),
(480,220,l),
(454,195,ls),
(429,170,o),
(349,120,o),
(320,120,qs),
(286,120,o),
(240,178,o),
(240,262,o),
(310,320,o)
);
},
{
closed = 1;
nodes = (
(268,648,l),
(212,592,l),
(360,443,l),
(508,592,l),
(452,648,l),
(360,557,l)
);
}
);
width = 720;
}
);
note = gcaron;
unicode = 487;
},
{
glyphname = uni01E8;
layers = (
{
layerId = m01;
shapes = (
{
closed = 1;
nodes = (
(240,0,l),
(240,103,l),
(320,183,l),
(503,0,l),
(617,0,l),
(377,240,l),
(537,400,l),
(423,400,l),
(240,217,l),
(240,400,l),
(160,400,l),
(160,0,l)
);
},
{
closed = 1;
nodes = (
(268,648,l),
(212,592,l),
(360,443,l),
(508,592,l),
(452,648,l),
(360,557,l)
);
}
);
width = 720;
}
);
note = uni01E8;
unicode = 488;
},
{
glyphname = uni01E9;
layers = (
{
layerId = m01;
shapes = (
{
closed = 1;
nodes = (
(240,0,l),
(240,103,l),
(320,183,l),
(503,0,l),
(617,0,l),
(377,240,l),
(537,400,l),
(423,400,l),
(240,217,l),
(240,400,l),
(160,400,l),
(160,0,l)
);
},
{
closed = 1;
nodes = (
(268,648,l),
(212,592,l),
(360,443,l),
(508,592,l),
(452,648,l),
(360,557,l)
);
}
);
width = 720;
}
);
note = uni01E9;
unicode = 489;
},
{
glyphname = AEacute;
layers = (
{
layerId = m01;
shapes = (
{
closed = 1;
nodes = (
(240,0,l),
(240,100,l),
(360,100,l),
(360,0,l),
(560,0,l),
(560,80,l),
(440,80,l),
(440,160,l),
(520,160,l),
(520,240,l),
(440,240,l),
(440,320,l),
(560,320,l),
(560,400,l),
(343,400,l),
(160,217,l),
(160,0,l)
);
},
{
closed = 1;
nodes = (
(240,180,l),
(240,183,l),
(360,303,l),
(360,180,l)
);
},
{
closed = 1;
nodes = (
(509,591,l),
(452,648,l),
(304,499,l),
(360,443,l)
);
}
);
width = 720;
}
);
note = AEacute;
unicode = 508;
},
{
glyphname = aeacute;
layers = (
{
layerId = m01;
shapes = (
{
closed = 1;
nodes = (
(400,0,l),
(400,26,l),
(435,0,o),
(480,0,qs),
(600,0,l),
(600,80,l),
(480,80,ls),
(457,80,o),
(419,124,o),
(409,151,o),
(407,160,q),
(640,160,l),
(640,200,ls),
(640,283,o),
(547,400,o),
(480,400,qs),
(435,400,o),
(400,374,q),
(400,400,l),
(240,400,ls),
(173,400,o),
(80,283,o),
(80,200,qs),
(80,116,o),
(148,0,o),
(200,0,qs),
(218,0,o),
(257,21,o),
(284,47,o),
(310,82,o),
(318,95,o),
(320,99,q),
(320,0,l)
);
},
{
closed = 1;
nodes = (
(206,320,o),
(240,320,qs),
(320,320,l),
(320,200,l),
(300,170,ls),
(280,140,o),
(220,80,o),
(200,80,qs),
(181,80,o),
(160,148,o),
(160,200,qs),
(160,250,o)
);
},
{
closed = 1;
nodes = (
(414,260,ls),
(420,280,o),
(457,320,o),
(503,320,o),
(541,276,o),
(551,249,o),
(553,240,q),
(407,240,l)
);
},
{
closed = 1;
nodes = (
(509,591,l),
(452,648,l),
(304,499,l),
(360,443,l)
);
}
);
width = 720;
}
);
note = aeacute;
unicode = 509;
},
{
glyphname = Oslashacute;
layers = (
{
layerId = m01;
shapes = (
{
closed = 1;
nodes = (
(194,90,q),
(132,28,l),
(188,-28,l),
(250,34,l),
(302,0,o),
(360,0,qs),
(442,0,o),
(560,118,o),
(560,200,qs),
(560,258,o),
(526,310,q),
(588,372,l),
(532,428,l),
(470,366,l),
(418,400,o),
(360,400,qs),
(278,400,o),
(160,282,o),
(160,200,qs),
(160,142,o)
);
},
{
closed = 1;
nodes = (
(480,228,o),
(480,200,qs),
(480,150,o),
(410,80,o),
(360,80,qs),
(332,80,o),
(308,92,q),
(468,252,l)
);
},
{
closed = 1;
nodes = (
(240,200,qs),
(240,250,o),
(310,320,o),
(360,320,qs),
(388,320,o),
(412,308,q),
(252,148,l),
(240,172,o)
);
},
{
closed = 1;
nodes = (
(509,591,l),
(452,648,l),
(304,499,l),
(360,443,l)
);
}
);
width = 720;
}
);
note = Oslashacute;
unicode = 510;
},
{
glyphname = oslashacute;
layers = (
{
layerId = m01;
shapes = (
{
closed = 1;
nodes = (
(194,90,q),
(132,28,l),
(188,-28,l),
(250,34,l),
(302,0,o),
(360,0,qs),
(442,0,o),
(560,118,o),
(560,200,qs),
(560,258,o),
(526,310,q),
(588,372,l),
(532,428,l),
(470,366,l),
(418,400,o),
(360,400,qs),
(278,400,o),
(160,282,o),
(160,200,qs),
(160,142,o)
);
},
{
closed = 1;
nodes = (
(480,228,o),
(480,200,qs),
(480,150,o),
(410,80,o),
(360,80,qs),
(332,80,o),
(308,92,q),
(468,252,l)
);
},
{
closed = 1;
nodes = (
(240,200,qs),
(240,250,o),
(310,320,o),
(360,320,qs),
(388,320,o),
(412,308,q),
(252,148,l),
(240,172,o)
);
},
{
closed = 1;
nodes = (
(509,591,l),
(452,648,l),
(304,499,l),
(360,443,l)
);
}
);
width = 720;
}
);
note = oslashacute;
unicode = 511;
},
{
glyphname = uni0218;
layers = (
{
layerId = m01;
shapes = (
{
closed = 1;
nodes = (
(186,118,o),
(164,151,q),
(80,137,l),
(110,76,o),
(240,0,o),
(320,0,qs),
(419,0,o),
(560,83,o),
(560,140,qs),
(560,181,o),
(478,240,o),
(360,272,o),
(242,297,o),
(160,323,o),
(160,340,qs),
(160,364,o),
(254,400,o),
(320,400,qs),
(371,400,o),
(454,362,o),
(476,329,q),
(560,343,l),
(530,404,o),
(400,480,o),
(320,480,qs),
(221,480,o),
(80,397,o),
(80,340,qs),
(80,299,o),
(162,240,o),
(280,208,o),
(398,183,o),
(480,157,o),
(480,140,qs),
(480,116,o),
(386,80,o),
(320,80,qs),
(269,80,o)
);
},
{
closed = 1;
nodes = (
(280,-237,l),
(417,-100,l),
(360,-43,l),
(223,-180,l)
);
}
);
width = 720;
}
);
note = uni0218;
unicode = 536;
},
{
glyphname = uni0219;
layers = (
{
layerId = m01;
shapes = (
{
closed = 1;
nodes = (
(230,400,o),
(160,330,o),
(160,230,o),
(230,160,o),
(280,160,qs),
(440,160,ls),
(456,160,o),
(480,136,o),
(480,104,o),
(456,80,o),
(440,80,qs),
(160,80,l),
(160,0,l),
(440,0,ls),
(490,0,o),
(560,70,o),
(560,170,o),
(490,240,o),
(440,240,qs),
(280,240,ls),
(264,240,o),
(240,264,o),
(240,296,o),
(264,320,o),
(280,320,qs),
(520,320,l),
(520,400,l),
(280,400,ls)
);
},
{
closed = 1;
nodes = (
(320,-237,l),
(457,-100,l),
(400,-43,l),
(263,-180,l)
);
}
);
width = 720;
}
);
note = uni0219;
unicode = 537;
},
{
glyphname = uni021A;
layers = (
{
layerId = m01;
shapes = (
{
closed = 1;
nodes = (
(320,400,l),
(320,0,l),
(400,0,l),
(400,400,l),
(600,400,l),
(600,480,l),
(120,480,l),
(120,400,l)
);
},
{
closed = 1;
nodes = (
(280,-237,l),
(417,-100,l),
(360,-43,l),
(223,-180,l)
);
}
);
width = 720;
}
);
note = uni021A;
unicode = 538;
},
{
glyphname = uni021B;
layers = (
{
layerId = m01;
shapes = (
{
closed = 1;
nodes = (
(560,320,l),
(560,400,l),
(400,400,l),
(400,520,l),
(320,520,l),
(320,400,l),
(160,400,l),
(160,320,l),
(320,320,l),
(320,160,ls),
(320,94,o),
(414,0,o),
(480,0,qs),
(600,0,l),
(600,80,l),
(480,80,ls),
(447,80,o),
(400,127,o),
(400,160,qs),
(400,320,l)
);
},
{
closed = 1;
nodes = (
(400,-237,l),
(537,-100,l),
(480,-43,l),
(343,-180,l)
);
}
);
width = 720;
}
);
note = uni021B;
unicode = 539;
},
{
glyphname = uni021E;
layers = (
{
layerId = m01;
shapes = (
{
closed = 1;
nodes = (
(240,0,l),
(240,160,l),
(480,160,l),
(480,0,l),
(560,0,l),
(560,400,l),
(480,400,l),
(480,240,l),
(240,240,l),
(240,400,l),
(160,400,l),
(160,0,l)
);
},
{
closed = 1;
nodes = (
(268,648,l),
(212,592,l),
(360,443,l),
(508,592,l),
(452,648,l),
(360,557,l)
);
}
);
width = 720;
}
);
note = uni021E;
unicode = 542;
},
{
glyphname = uni021F;
layers = (
{
layerId = m01;
shapes = (
{
closed = 1;
nodes = (
(160,400,l),
(160,0,l),
(240,0,l),
(240,120,l),
(266,150,ls),
(291,180,o),
(371,240,o),
(400,240,qs),
(434,240,o),
(480,170,o),
(480,120,qs),
(480,0,l),
(560,0,l),
(560,120,ls),
(560,203,o),
(467,320,o),
(400,320,qs),
(331,320,o),
(240,221,q),
(240,400,l)
);
},
{
closed = 1;
nodes = (
(268,648,l),
(212,592,l),
(360,443,l),
(508,592,l),
(452,648,l),
(360,557,l)
);
}
);
width = 720;
}
);
note = uni021F;
unicode = 543;
},
{
glyphname = uni0226;
layers = (
{
layerId = m01;
shapes = (
{
closed = 1;
nodes = (
(480,183,l),
(480,180,l),
(240,180,l),
(240,183,l),
(360,303,l)
);
},
{
closed = 1;
nodes = (
(240,0,l),
(240,100,l),
(480,100,l),
(480,0,l),
(560,0,l),
(560,217,l),
(377,400,l),
(343,400,l),
(160,217,l),
(160,0,l)
);
},
{
closed = 1;
nodes = (
(400,443,l),
(400,523,l),
(320,523,l),
(320,443,l)
);
}
);
width = 720;
}
);
note = uni0226;
unicode = 550;
},
{
glyphname = uni0227;
layers = (
{
layerId = m01;
shapes = (
{
closed = 1;
nodes = (
(360,320,qs),
(480,320,l),
(480,200,l),
(454,170,ls),
(429,140,o),
(349,80,o),
(320,80,qs),
(286,80,o),
(240,150,o),
(240,250,o),
(310,320,o)
);
},
{
closed = 1;
nodes = (
(560,0,l),
(560,400,l),
(360,400,ls),
(278,400,o),
(160,282,o),
(160,200,qs),
(160,117,o),
(253,0,o),
(320,0,qs),
(389,0,o),
(480,99,q),
(480,0,l)
);
},
{
closed = 1;
nodes = (
(400,443,l),
(400,523,l),
(320,523,l),
(320,443,l)
);
}
);
width = 720;
}
);
note = uni0227;
unicode = 551;
},
{
glyphname = uni0232;
layers = (
{
layerId = m01;
shapes = (
{
closed = 1;
nodes = (
(480,443,l),
(480,523,l),
(240,523,l),
(240,443,l)
);
},
{
closed = 1;
nodes = (
(320,0,l),
(400,0,l),
(400,183,l),
(617,400,l),
(503,400,l),
(360,257,l),
(217,400,l),
(103,400,l),
(320,183,l)
);
}
);
width = 720;
}
);
note = uni0232;
unicode = 562;
},
{
glyphname = uni0233;
layers = (
{
layerId = m01;
shapes = (
{
closed = 1;
nodes = (
(480,443,l),
(480,523,l),
(240,523,l),
(240,443,l)
);
},
{
closed = 1;
nodes = (
(480,30,o),
(410,-40,o),
(360,-40,qs),
(292,-40,o),
(257,18,q),
(189,-23,l),
(216,-67,o),
(307,-120,o),
(360,-120,qs),
(442,-120,o),
(560,-2,o),
(560,80,qs),
(560,400,l),
(480,400,l),
(480,220,l),
(454,195,ls),
(429,170,o),
(349,120,o),
(320,120,qs),
(286,120,o),
(240,178,o),
(240,220,qs),
(240,400,l),
(160,400,l),
(160,220,ls),
(160,145,o),
(253,40,o),
(320,40,qs),
(407,40,o),
(480,119,q),
(480,80,ls)
);
}
);
width = 720;
}
);
note = uni0233;
unicode = 563;
},
{
glyphname = uni0237;
layers = (
{
layerId = m01;
shapes = (
{
closed = 1;
nodes = (
(330,120,o),
(230,120,o),
(160,50,o),
(160,0,qs),
(160,-56,o),
(266,-120,o),
(350,-120,qs),
(433,-120,o),
(560,-2,o),
(560,80,qs),
(560,400,l),
(480,400,l),
(480,80,ls),
(480,31,o),
(400,-40,o),
(350,-40,qs),
(240,-40,o),
(240,0,qs),
(240,16,o),
(264,40,o),
(296,40,o),
(308,28,q),
(365,85,l)
);
}
);
width = 720;
}
);
note = uni0237;
unicode = 567;
},
{
glyphname = uni0238;
layers = (
{
layerId = m01;
shapes = (
{
closed = 1;
nodes = (
(526,80,o),
(480,80,qs),
(400,80,l),
(400,200,l),
(420,230,ls),
(440,260,o),
(500,320,o),
(520,320,qs),
(539,320,o),
(560,252,o),
(560,200,qs),
(560,143,o)
);
},
{
closed = 1;
nodes = (
(194,320,o),
(240,320,qs),
(320,320,l),
(320,200,l),
(300,170,ls),
(280,140,o),
(220,80,o),
(200,80,qs),
(181,80,o),
(160,148,o),
(160,200,qs),
(160,257,o)
);
},
{
closed = 1;
nodes = (
(559,0,o),
(640,112,o),
(640,200,qs),
(640,400,o),
(520,400,qs),
(505,400,o),
(468,379,o),
(440,353,o),
(412,318,o),
(403,305,o),
(400,301,q),
(400,520,l),
(320,520,l),
(320,400,l),
(240,400,ls),
(161,400,o),
(80,288,o),
(80,200,qs),
(80,0,o),
(200,0,qs),
(215,0,o),
(252,21,o),
(280,47,o),
(308,82,o),
(317,95,o),
(320,99,q),
(320,0,l),
(480,0,ls)
);
}
);
width = 720;
}
);
note = uni0238;
unicode = 568;
},
{
glyphname = uni0239;
layers = (
{
layerId = m01;
shapes = (
{
closed = 1;
nodes = (
(194,320,o),
(240,320,qs),
(320,320,l),
(320,200,l),
(300,170,ls),
(280,140,o),
(220,80,o),
(200,80,qs),
(181,80,o),
(160,148,o),
(160,200,qs),
(160,257,o)
);
},
{
closed = 1;
nodes = (
(526,80,o),
(480,80,qs),
(400,80,l),
(400,200,l),
(420,230,ls),
(440,260,o),
(500,320,o),
(520,320,qs),
(539,320,o),
(560,252,o),
(560,200,qs),
(560,143,o)
);
},
{
closed = 1;
nodes = (
(161,400,o),
(80,288,o),
(80,200,qs),
(80,0,o),
(200,0,qs),
(215,0,o),
(252,21,o),
(280,47,o),
(308,82,o),
(317,95,o),
(320,99,q),
(320,-120,l),
(400,-120,l),
(400,0,l),
(480,0,ls),
(559,0,o),
(640,112,o),
(640,200,qs),
(640,400,o),
(520,400,qs),
(505,400,o),
(468,379,o),
(440,353,o),
(412,318,o),
(403,305,o),
(400,301,q),
(400,400,l),
(240,400,ls)
);
}
);
width = 720;
}
);
note = uni0239;
unicode = 569;
},
{
glyphname = uni0241;
layers = (
{
layerId = m01;
shapes = (
{
closed = 1;
nodes = (
(400,0,l),
(400,160,ls),
(400,188,o),
(450,232,o),
(510,260,o),
(560,314,o),
(560,350,qs),
(560,404,o),
(443,480,o),
(360,480,qs),
(285,480,o),
(173,417,o),
(162,370,q),
(242,360,l),
(250,377,o),
(317,400,o),
(360,400,qs),
(410,400,o),
(480,371,o),
(480,350,qs),
(480,322,o),
(430,278,o),
(370,250,o),
(320,196,o),
(320,160,qs),
(320,0,l)
);
}
);
width = 720;
}
);
note = uni0241;
unicode = 577;
},
{
glyphname = uni0242;
layers = (
{
layerId = m01;
shapes = (
{
closed = 1;
nodes = (
(400,0,l),
(400,80,ls),
(400,108,o),
(450,152,o),
(510,180,o),
(560,234,o),
(560,270,qs),
(560,324,o),
(443,400,o),
(360,400,qs),
(285,400,o),
(173,337,o),
(162,290,q),
(242,280,l),
(250,297,o),
(317,320,o),
(360,320,qs),
(410,320,o),
(480,291,o),
(480,270,qs),
(480,242,o),
(430,198,o),
(370,170,o),
(320,116,o),
(320,80,qs),
(320,0,l)
);
}
);
width = 720;
}
);
note = uni0242;
unicode = 578;
},
{
glyphname = uni0250;
layers = (
{
layerId = m01;
shapes = (
{
closed = 1;
nodes = (
(360,80,qs),
(240,80,l),
(240,200,l),
(266,230,ls),
(291,260,o),
(371,320,o),
(400,320,qs),
(434,320,o),
(480,250,o),
(480,150,o),
(410,80,o)
);
},
{
closed = 1;
nodes = (
(160,400,l),
(160,0,l),
(360,0,ls),
(442,0,o),
(560,118,o),
(560,200,qs),
(560,283,o),
(467,400,o),
(400,400,qs),
(331,400,o),
(240,301,q),
(240,400,l)
);
}
);
width = 720;
}
);
note = uni0250;
unicode = 592;
},
{
glyphname = uni0251;
layers = (
{
layerId = m01;
shapes = (
{
closed = 1;
nodes = (
(360,0,qs),
(427,0,o),
(480,40,q),
(480,0,l),
(560,0,l),
(560,400,l),
(480,400,l),
(480,360,l),
(427,400,o),
(360,400,qs),
(278,400,o),
(160,282,o),
(160,118,o),
(278,0,o)
);
},
{
closed = 1;
nodes = (
(410,320,o),
(480,250,o),
(480,150,o),
(410,80,o),
(310,80,o),
(240,150,o),
(240,250,o),
(310,320,o)
);
}
);
width = 720;
}
);
note = uni0251;
unicode = 593;
},
{
glyphname = uni0252;
layers = (
{
layerId = m01;
shapes = (
{
closed = 1;
nodes = (
(240,40,l),
(293,0,o),
(360,0,qs),
(442,0,o),
(560,118,o),
(560,282,o),
(442,400,o),
(360,400,qs),
(293,400,o),
(240,360,q),
(240,400,l),
(160,400,l),
(160,0,l),
(240,0,l)
);
},
{
closed = 1;
nodes = (
(410,320,o),
(480,250,o),
(480,150,o),
(410,80,o),
(310,80,o),
(240,150,o),
(240,250,o),
(310,320,o)
);
}
);
width = 720;
}
);
note = uni0252;
unicode = 594;
},
{
glyphname = uni0254;
layers = (
{
layerId = m01;
shapes = (
{
closed = 1;
nodes = (
(360,400,qs),
(296,400,o),
(192,324,o),
(171,265,q),
(252,251,l),
(267,282,o),
(325,320,o),
(360,320,qs),
(410,320,o),
(480,250,o),
(480,150,o),
(410,80,o),
(360,80,qs),
(325,80,o),
(267,118,o),
(252,149,q),
(171,135,l),
(192,76,o),
(296,0,o),
(360,0,qs),
(442,0,o),
(560,118,o),
(560,282,o),
(442,400,o)
);
}
);
width = 720;
}
);
note = uni0254;
unicode = 596;
},
{
glyphname = uni0258;
layers = (
{
layerId = m01;
shapes = (
{
closed = 1;
nodes = (
(278,400,o),
(160,282,o),
(160,200,qs),
(160,160,l),
(473,160,l),
(460,125,o),
(398,80,o),
(360,80,qs),
(200,80,l),
(200,0,l),
(360,0,ls),
(442,0,o),
(560,118,o),
(560,282,o),
(442,400,o)
);
},
{
closed = 1;
nodes = (
(322,320,o),
(398,320,o),
(460,275,o),
(473,240,q),
(247,240,l),
(260,275,o)
);
}
);
width = 720;
}
);
note = uni0258;
unicode = 600;
},
{
glyphname = uni0259;
layers = (
{
layerId = m01;
shapes = (
{
closed = 1;
nodes = (
(360,400,qs),
(200,400,l),
(200,320,l),
(360,320,ls),
(398,320,o),
(460,275,o),
(473,240,q),
(160,240,l),
(160,200,ls),
(160,118,o),
(278,0,o),
(442,0,o),
(560,118,o),
(560,282,o),
(442,400,o)
);
},
{
closed = 1;
nodes = (
(460,125,o),
(398,80,o),
(322,80,o),
(260,125,o),
(247,160,q),
(473,160,l)
);
}
);
width = 720;
}
);
note = uni0259;
unicode = 601;
},
{
glyphname = uni025B;
layers = (
{
layerId = m01;
shapes = (
{
closed = 1;
nodes = (
(405,80,o),
(360,80,qs),
(309,80,o),
(240,102,o),
(240,138,o),
(309,160,o),
(360,160,qs),
(400,160,l),
(400,240,l),
(360,240,ls),
(309,240,o),
(240,262,o),
(240,298,o),
(309,320,o),
(360,320,qs),
(403,320,o),
(467,298,o),
(476,280,q),
(556,290,l),
(544,338,o),
(435,400,o),
(360,400,qs),
(277,400,o),
(160,331,o),
(160,280,qs),
(160,256,o),
(193,211,o),
(220,196,q),
(160,163,o),
(160,120,qs),
(160,69,o),
(277,0,o),
(360,0,qs),
(435,0,o),
(547,74,o),
(556,130,q),
(478,140,l),
(472,114,o)
);
}
);
width = 720;
}
);
note = uni025B;
unicode = 603;
},
{
glyphname = uni025C;
layers = (
{
layerId = m01;
shapes = (
{
closed = 1;
nodes = (
(173,74,o),
(285,0,o),
(360,0,qs),
(443,0,o),
(560,69,o),
(560,120,qs),
(560,163,o),
(500,196,q),
(527,211,o),
(560,256,o),
(560,280,qs),
(560,331,o),
(443,400,o),
(360,400,qs),
(285,400,o),
(176,338,o),
(164,290,q),
(244,280,l),
(253,298,o),
(317,320,o),
(360,320,qs),
(411,320,o),
(480,298,o),
(480,262,o),
(411,240,o),
(360,240,qs),
(320,240,l),
(320,160,l),
(360,160,ls),
(411,160,o),
(480,138,o),
(480,102,o),
(411,80,o),
(360,80,qs),
(315,80,o),
(248,114,o),
(242,140,q),
(164,130,l)
);
}
);
width = 720;
}
);
note = uni025C;
unicode = 604;
},
{
glyphname = uni025E;
layers = (
{
layerId = m01;
shapes = (
{
closed = 1;
nodes = (
(360,0,qs),
(443,0,o),
(560,69,o),
(560,120,qs),
(560,163,o),
(500,196,q),
(527,211,o),
(560,256,o),
(560,280,qs),
(560,331,o),
(443,400,o),
(360,400,qs),
(283,400,o),
(160,281,o),
(160,119,o),
(283,0,o)
);
},
{
closed = 1;
nodes = (
(315,320,o),
(360,320,qs),
(411,320,o),
(480,298,o),
(480,262,o),
(411,240,o),
(360,240,qs),
(320,240,l),
(320,160,l),
(360,160,ls),
(411,160,o),
(480,138,o),
(480,102,o),
(411,80,o),
(360,80,qs),
(314,80,o),
(240,151,o),
(240,200,qs),
(240,248,o)
);
}
);
width = 720;
}
);
note = uni025E;
unicode = 606;
},
{
glyphname = uni025F;
layers = (
{
layerId = m01;
shapes = (
{
closed = 1;
nodes = (
(306,-120,o),
(400,-26,o),
(400,40,q),
(560,40,l),
(560,120,l),
(400,120,l),
(400,400,l),
(320,400,l),
(320,120,l),
(160,120,l),
(160,40,l),
(320,40,l),
(320,7,o),
(273,-40,o),
(240,-40,qs),
(120,-40,l),
(120,-120,l),
(240,-120,ls)
);
}
);
width = 720;
}
);
note = uni025F;
unicode = 607;
},
{
glyphname = uni0261;
layers = (
{
layerId = m01;
shapes = (
{
closed = 1;
nodes = (
(480,30,o),
(410,-40,o),
(360,-40,qs),
(292,-40,o),
(257,18,q),
(189,-23,l),
(216,-67,o),
(307,-120,o),
(360,-120,qs),
(442,-120,o),
(560,-2,o),
(560,80,qs),
(560,400,l),
(360,400,ls),
(277,400,o),
(160,295,o),
(160,145,o),
(253,40,o),
(320,40,qs),
(407,40,o),
(480,119,q),
(480,80,ls)
);
},
{
closed = 1;
nodes = (
(360,320,qs),
(480,320,l),
(480,220,l),
(454,195,ls),
(429,170,o),
(349,120,o),
(320,120,qs),
(286,120,o),
(240,178,o),
(240,262,o),
(310,320,o)
);
}
);
width = 720;
}
);
note = uni0261;
unicode = 609;
},
{
glyphname = uni0262;
layers = (
{
layerId = m01;
shapes = (
{
closed = 1;
nodes = (
(550,210,l),
(370,210,l),
(370,130,l),
(470,130,l),
(470,80,l),
(360,80,ls),
(310,80,o),
(240,150,o),
(240,250,o),
(310,320,o),
(360,320,qs),
(395,320,o),
(453,282,o),
(468,251,q),
(549,265,l),
(528,324,o),
(424,400,o),
(360,400,qs),
(278,400,o),
(160,282,o),
(160,118,o),
(278,0,o),
(360,0,qs),
(550,0,l)
);
}
);
width = 720;
}
);
note = uni0262;
unicode = 610;
},
{
glyphname = uni0265;
layers = (
{
layerId = m01;
shapes = (
{
closed = 1;
nodes = (
(560,-120,l),
(560,400,l),
(480,400,l),
(480,200,l),
(454,170,ls),
(429,140,o),
(349,80,o),
(320,80,qs),
(286,80,o),
(240,150,o),
(240,200,qs),
(240,400,l),
(160,400,l),
(160,200,ls),
(160,117,o),
(253,0,o),
(320,0,qs),
(389,0,o),
(480,99,q),
(480,-120,l)
);
}
);
width = 720;
}
);
note = uni0265;
unicode = 613;
},
{
glyphname = uni0268;
layers = (
{
layerId = m01;
shapes = (
{
closed = 1;
nodes = (
(320,320,l),
(320,240,l),
(160,240,l),
(160,160,l),
(320,160,l),
(320,80,l),
(160,80,l),
(160,0,l),
(560,0,l),
(560,80,l),
(400,80,l),
(400,160,l),
(560,160,l),
(560,240,l),
(400,240,l),
(400,400,l),
(160,400,l),
(160,320,l)
);
},
{
closed = 1;
nodes = (
(400,480,l),
(400,560,l),
(320,560,l),
(320,480,l)
);
}
);
width = 720;
}
);
note = uni0268;
unicode = 616;
},
{
glyphname = uni026A;
layers = (
{
layerId = m01;
shapes = (
{
closed = 1;
nodes = (
(320,320,l),
(320,80,l),
(240,80,l),
(240,0,l),
(480,0,l),
(480,80,l),
(400,80,l),
(400,320,l),
(480,320,l),
(480,400,l),
(240,400,l),
(240,320,l)
);
}
);
width = 720;
}
);
note = uni026A;
unicode = 618;
},
{
glyphname = uni026F;
layers = (
{
layerId = m01;
shapes = (
{
closed = 1;
nodes = (
(80,94,o),
(174,0,o),
(240,0,qs),
(313,0,o),
(360,54,q),
(407,0,o),
(480,0,qs),
(522,0,o),
(560,22,q),
(560,0,l),
(640,0,l),
(640,400,l),
(560,400,l),
(560,160,ls),
(560,127,o),
(513,80,o),
(447,80,o),
(400,127,o),
(400,160,qs),
(400,400,l),
(320,400,l),
(320,160,ls),
(320,127,o),
(273,80,o),
(207,80,o),
(160,127,o),
(160,160,qs),
(160,400,l),
(80,400,l),
(80,160,ls)
);
}
);
width = 720;
}
);
note = uni026F;
unicode = 623;
},
{
glyphname = uni0270;
layers = (
{
layerId = m01;
shapes = (
{
closed = 1;
nodes = (
(80,94,o),
(174,0,o),
(240,0,qs),
(313,0,o),
(360,54,q),
(407,0,o),
(480,0,qs),
(522,0,o),
(560,22,q),
(560,-120,l),
(640,-120,l),
(640,400,l),
(560,400,l),
(560,160,ls),
(560,127,o),
(513,80,o),
(447,80,o),
(400,127,o),
(400,160,qs),
(400,400,l),
(320,400,l),
(320,160,ls),
(320,127,o),
(273,80,o),
(207,80,o),
(160,127,o),
(160,160,qs),
(160,400,l),
(80,400,l),
(80,160,ls)
);
}
);
width = 720;
}
);
note = uni0270;
unicode = 624;
},
{
glyphname = uni0271;
layers = (
{
layerId = m01;
shapes = (
{
closed = 1;
nodes = (
(490,-40,o),
(440,-40,qs),
(372,-40,o),
(337,18,q),
(269,-23,l),
(296,-67,o),
(387,-120,o),
(440,-120,qs),
(522,-120,o),
(640,-2,o),
(640,80,qs),
(640,240,ls),
(640,306,o),
(546,400,o),
(480,400,qs),
(407,400,o),
(360,346,q),
(313,400,o),
(240,400,qs),
(198,400,o),
(160,378,q),
(160,400,l),
(80,400,l),
(80,0,l),
(160,0,l),
(160,240,ls),
(160,273,o),
(207,320,o),
(273,320,o),
(320,273,o),
(320,240,qs),
(320,40,l),
(400,40,l),
(400,240,ls),
(400,273,o),
(447,320,o),
(513,320,o),
(560,273,o),
(560,240,qs),
(560,80,ls),
(560,30,o)
);
}
);
width = 720;
}
);
note = uni0271;
unicode = 625;
},
{
glyphname = uni0274;
layers = (
{
layerId = m01;
shapes = (
{
closed = 1;
nodes = (
(240,264,l),
(504,0,l),
(560,0,l),
(560,400,l),
(480,400,l),
(480,136,l),
(216,400,l),
(160,400,l),
(160,0,l),
(240,0,l)
);
}
);
width = 720;
}
);
note = uni0274;
unicode = 628;
},
{
glyphname = uni0275;
layers = (
{
layerId = m01;
shapes = (
{
closed = 1;
nodes = (
(442,0,o),
(560,118,o),
(560,282,o),
(442,400,o),
(278,400,o),
(160,282,o),
(160,118,o),
(278,0,o)
);
},
{
closed = 1;
nodes = (
(460,125,o),
(398,80,o),
(322,80,o),
(260,125,o),
(247,160,q),
(473,160,l)
);
},
{
closed = 1;
nodes = (
(260,275,o),
(322,320,o),
(398,320,o),
(460,275,o),
(473,240,q),
(247,240,l)
);
}
);
width = 720;
}
);
note = uni0275;
unicode = 629;
},
{
glyphname = uni0276;
layers = (
{
layerId = m01;
shapes = (
{
closed = 1;
nodes = (
(640,400,l),
(280,400,ls),
(198,400,o),
(80,282,o),
(80,118,o),
(198,0,o),
(280,0,qs),
(640,0,l),
(640,80,l),
(400,80,l),
(400,160,l),
(520,160,l),
(520,240,l),
(400,240,l),
(400,320,l),
(640,320,l)
);
},
{
closed = 1;
nodes = (
(320,80,l),
(280,80,ls),
(230,80,o),
(160,150,o),
(160,250,o),
(230,320,o),
(280,320,qs),
(320,320,l)
);
}
);
width = 720;
}
);
note = uni0276;
unicode = 630;
},
{
glyphname = uni0277;
layers = (
{
layerId = m01;
shapes = (
{
closed = 1;
nodes = (
(160,200,qs),
(160,117,o),
(229,0,o),
(280,0,qs),
(323,0,o),
(356,60,q),
(371,33,o),
(416,0,o),
(440,0,qs),
(491,0,o),
(560,117,o),
(560,200,qs),
(560,277,o),
(441,400,o),
(279,400,o),
(160,277,o)
);
},
{
closed = 1;
nodes = (
(480,200,qs),
(480,149,o),
(458,80,o),
(422,80,o),
(400,149,o),
(400,200,qs),
(400,240,l),
(320,240,l),
(320,200,ls),
(320,149,o),
(298,80,o),
(262,80,o),
(240,149,o),
(240,200,qs),
(240,246,o),
(312,320,o),
(408,320,o),
(480,245,o)
);
}
);
width = 720;
}
);
note = uni0277;
unicode = 631;
},
{
glyphname = uni0278;
layers = (
{
layerId = m01;
shapes = (
{
closed = 1;
nodes = (
(251,382,o),
(160,271,o),
(160,129,o),
(251,18,o),
(320,4,q),
(320,-120,l),
(400,-120,l),
(400,4,l),
(469,18,o),
(560,129,o),
(560,271,o),
(469,382,o),
(400,396,q),
(400,520,l),
(320,520,l),
(320,396,l)
);
},
{
closed = 1;
nodes = (
(285,100,o),
(240,162,o),
(240,238,o),
(285,300,o),
(320,313,q),
(320,87,l)
);
},
{
closed = 1;
nodes = (
(480,238,o),
(480,162,o),
(435,100,o),
(400,87,q),
(400,313,l),
(435,300,o)
);
}
);
width = 720;
}
);
note = uni0278;
unicode = 632;
},
{
glyphname = uni0279;
layers = (
{
layerId = m01;
shapes = (
{
closed = 1;
nodes = (
(200,0,l),
(320,0,ls),
(389,0,o),
(480,99,q),
(480,0,l),
(560,0,l),
(560,400,l),
(480,400,l),
(480,200,l),
(454,170,ls),
(429,140,o),
(349,80,o),
(320,80,qs),
(200,80,l)
);
}
);
width = 720;
}
);
note = uni0279;
unicode = 633;
},
{
glyphname = uni027A;
layers = (
{
layerId = m01;
shapes = (
{
closed = 1;
nodes = (
(200,0,l),
(320,0,ls),
(389,0,o),
(480,99,q),
(480,0,l),
(560,0,l),
(560,520,l),
(480,520,l),
(480,200,l),
(454,170,ls),
(429,140,o),
(349,80,o),
(320,80,qs),
(200,80,l)
);
}
);
width = 720;
}
);
note = uni027A;
unicode = 634;
},
{
glyphname = uni027C;
layers = (
{
layerId = m01;
shapes = (
{
closed = 1;
nodes = (
(520,400,l),
(400,400,ls),
(331,400,o),
(240,301,q),
(240,400,l),
(160,400,l),
(160,-120,l),
(240,-120,l),
(240,200,l),
(266,230,ls),
(291,260,o),
(371,320,o),
(400,320,qs),
(520,320,l)
);
}
);
width = 720;
}
);
note = uni027C;
unicode = 636;
},
{
glyphname = uni0280;
layers = (
{
layerId = m01;
shapes = (
{
closed = 1;
nodes = (
(160,0,l),
(240,0,l),
(240,160,l),
(304,160,l),
(464,0,l),
(576,0,l),
(415,161,l),
(477,166,o),
(560,233,o),
(560,280,qs),
(560,331,o),
(466,400,o),
(400,400,qs),
(160,400,l)
);
},
{
closed = 1;
nodes = (
(434,320,o),
(480,298,o),
(480,262,o),
(434,240,o),
(400,240,qs),
(240,240,l),
(240,320,l),
(400,320,ls)
);
}
);
width = 720;
}
);
note = uni0280;
unicode = 640;
},
{
glyphname = uni0281;
layers = (
{
layerId = m01;
shapes = (
{
closed = 1;
nodes = (
(560,69,o),
(560,120,qs),
(560,167,o),
(477,234,o),
(415,239,q),
(576,400,l),
(464,400,l),
(304,240,l),
(240,240,l),
(240,400,l),
(160,400,l),
(160,0,l),
(400,0,ls),
(466,0,o)
);
},
{
closed = 1;
nodes = (
(400,160,ls),
(434,160,o),
(480,138,o),
(480,102,o),
(434,80,o),
(400,80,qs),
(240,80,l),
(240,160,l)
);
}
);
width = 720;
}
);
note = uni0281;
unicode = 641;
},
{
glyphname = uni0283;
layers = (
{
layerId = m01;
shapes = (
{
closed = 1;
nodes = (
(414,520,o),
(320,426,o),
(320,360,qs),
(320,40,ls),
(320,7,o),
(273,-40,o),
(240,-40,qs),
(120,-40,l),
(120,-120,l),
(240,-120,ls),
(306,-120,o),
(400,-26,o),
(400,40,qs),
(400,360,ls),
(400,393,o),
(447,440,o),
(480,440,qs),
(600,440,l),
(600,520,l),
(480,520,ls)
);
}
);
width = 720;
}
);
note = uni0283;
unicode = 643;
},
{
glyphname = uni0284;
layers = (
{
layerId = m01;
shapes = (
{
closed = 1;
nodes = (
(414,520,o),
(320,426,o),
(320,360,qs),
(320,120,l),
(160,120,l),
(160,40,l),
(320,40,l),
(320,7,o),
(273,-40,o),
(240,-40,qs),
(120,-40,l),
(120,-120,l),
(240,-120,ls),
(306,-120,o),
(400,-26,o),
(400,40,q),
(560,40,l),
(560,120,l),
(400,120,l),
(400,360,ls),
(400,393,o),
(447,440,o),
(480,440,qs),
(600,440,l),
(600,520,l),
(480,520,ls)
);
}
);
width = 720;
}
);
note = uni0284;
unicode = 644;
},
{
glyphname = uni0285;
layers = (
{
layerId = m01;
shapes = (
{
closed = 1;
nodes = (
(480,-40,ls),
(447,-40,o),
(400,7,o),
(400,40,qs),
(400,360,ls),
(400,426,o),
(306,520,o),
(240,520,qs),
(120,520,l),
(120,440,l),
(240,440,ls),
(273,440,o),
(320,393,o),
(320,360,qs),
(320,40,ls),
(320,-26,o),
(414,-120,o),
(480,-120,qs),
(600,-120,l),
(600,-40,l)
);
}
);
width = 720;
}
);
note = uni0285;
unicode = 645;
},
{
glyphname = uni0287;
layers = (
{
layerId = m01;
shapes = (
{
closed = 1;
nodes = (
(160,80,l),
(160,0,l),
(320,0,l),
(320,-120,l),
(400,-120,l),
(400,0,l),
(560,0,l),
(560,80,l),
(400,80,l),
(400,240,ls),
(400,306,o),
(306,400,o),
(240,400,qs),
(120,400,l),
(120,320,l),
(240,320,ls),
(273,320,o),
(320,273,o),
(320,240,qs),
(320,80,l)
);
}
);
width = 720;
}
);
note = uni0287;
unicode = 647;
},
{
glyphname = uni0288;
layers = (
{
layerId = m01;
shapes = (
{
closed = 1;
nodes = (
(560,320,l),
(560,400,l),
(400,400,l),
(400,520,l),
(320,520,l),
(320,400,l),
(160,400,l),
(160,320,l),
(320,320,l),
(320,40,ls),
(320,-26,o),
(414,-120,o),
(480,-120,qs),
(600,-120,l),
(600,-40,l),
(480,-40,ls),
(447,-40,o),
(400,7,o),
(400,40,qs),
(400,320,l)
);
}
);
width = 720;
}
);
note = uni0288;
unicode = 648;
},
{
glyphname = uni0289;
layers = (
{
layerId = m01;
shapes = (
{
closed = 1;
nodes = (
(560,0,l),
(560,240,l),
(640,240,l),
(640,320,l),
(560,320,l),
(560,400,l),
(480,400,l),
(480,320,l),
(240,320,l),
(240,400,l),
(160,400,l),
(160,320,l),
(80,320,l),
(80,240,l),
(160,240,l),
(160,200,ls),
(160,117,o),
(253,0,o),
(320,0,qs),
(389,0,o),
(480,99,q),
(480,0,l)
);
},
{
closed = 1;
nodes = (
(480,200,l),
(454,170,ls),
(429,140,o),
(349,80,o),
(320,80,qs),
(286,80,o),
(240,150,o),
(240,200,qs),
(240,240,l),
(480,240,l)
);
}
);
width = 720;
}
);
note = uni0289;
unicode = 649;
},
{
glyphname = uni028A;
layers = (
{
layerId = m01;
shapes = (
{
closed = 1;
nodes = (
(160,400,l),
(160,320,l),
(240,320,l),
(240,288,l),
(160,241,o),
(160,160,qs),
(160,93,o),
(277,0,o),
(443,0,o),
(560,93,o),
(560,160,qs),
(560,241,o),
(480,288,q),
(480,320,l),
(560,320,l),
(560,400,l),
(400,400,l),
(400,236,l),
(435,228,o),
(480,186,o),
(480,160,qs),
(480,126,o),
(410,80,o),
(310,80,o),
(240,126,o),
(240,160,qs),
(240,186,o),
(285,228,o),
(320,236,q),
(320,400,l)
);
}
);
width = 720;
}
);
note = uni028A;
unicode = 650;
},
{
glyphname = uni028B;
layers = (
{
layerId = m01;
shapes = (
{
closed = 1;
nodes = (
(160,112,o),
(241,0,o),
(320,0,qs),
(402,0,o),
(560,158,o),
(560,240,qs),
(560,319,o),
(448,400,o),
(360,400,qs),
(320,400,l),
(320,320,l),
(360,320,ls),
(417,320,o),
(480,286,o),
(480,240,qs),
(480,190,o),
(370,80,o),
(320,80,qs),
(274,80,o),
(240,143,o),
(240,200,qs),
(240,400,l),
(160,400,l),
(160,200,ls)
);
}
);
width = 720;
}
);
note = uni028B;
unicode = 651;
},
{
glyphname = uni028C;
layers = (
{
layerId = m01;
shapes = (
{
closed = 1;
nodes = (
(225,0,l),
(360,271,l),
(495,0,l),
(585,0,l),
(385,400,l),
(335,400,l),
(135,0,l)
);
}
);
width = 720;
}
);
note = uni028C;
unicode = 652;
},
{
glyphname = uni028D;
layers = (
{
layerId = m01;
shapes = (
{
closed = 1;
nodes = (
(437,400,l),
(360,221,l),
(283,400,l),
(231,400,l),
(59,0,l),
(146,0,l),
(257,258,l),
(333,80,l),
(387,80,l),
(463,258,l),
(574,0,l),
(661,0,l),
(489,400,l)
);
}
);
width = 720;
}
);
note = uni028D;
unicode = 653;
},
{
glyphname = uni028E;
layers = (
{
layerId = m01;
shapes = (
{
closed = 1;
nodes = (
(240,370,o),
(310,440,o),
(360,440,qs),
(428,440,o),
(463,382,q),
(531,423,l),
(504,467,o),
(413,520,o),
(360,520,qs),
(278,520,o),
(160,402,o),
(160,320,qs),
(160,0,l),
(240,0,l),
(240,180,l),
(266,205,ls),
(291,230,o),
(371,280,o),
(400,280,qs),
(434,280,o),
(480,222,o),
(480,180,qs),
(480,0,l),
(560,0,l),
(560,180,ls),
(560,255,o),
(467,360,o),
(400,360,qs),
(313,360,o),
(240,281,q),
(240,320,ls)
);
}
);
width = 720;
}
);
note = uni028E;
unicode = 654;
},
{
glyphname = uni028F;
layers = (
{
layerId = m01;
shapes = (
{
closed = 1;
nodes = (
(320,0,l),
(400,0,l),
(400,183,l),
(617,400,l),
(503,400,l),
(360,257,l),
(217,400,l),
(103,400,l),
(320,183,l)
);
}
);
width = 720;
}
);
note = uni028F;
unicode = 655;
},
{
glyphname = uni0294;
layers = (
{
layerId = m01;
shapes = (
{
closed = 1;
nodes = (
(400,0,l),
(400,160,ls),
(400,188,o),
(450,232,o),
(510,260,o),
(560,314,o),
(560,350,qs),
(560,404,o),
(443,480,o),
(360,480,qs),
(285,480,o),
(173,417,o),
(162,370,q),
(242,360,l),
(250,377,o),
(317,400,o),
(360,400,qs),
(410,400,o),
(480,371,o),
(480,350,qs),
(480,322,o),
(430,278,o),
(370,250,o),
(320,196,o),
(320,160,qs),
(320,0,l)
);
}
);
width = 720;
}
);
note = uni0294;
unicode = 660;
},
{
glyphname = uni0295;
layers = (
{
layerId = m01;
shapes = (
{
closed = 1;
nodes = (
(350,250,o),
(290,278,o),
(240,322,o),
(240,350,qs),
(240,371,o),
(310,400,o),
(360,400,qs),
(403,400,o),
(470,377,o),
(478,360,q),
(558,370,l),
(547,417,o),
(435,480,o),
(360,480,qs),
(277,480,o),
(160,404,o),
(160,350,qs),
(160,314,o),
(210,260,o),
(270,232,o),
(320,188,o),
(320,160,qs),
(320,0,l),
(400,0,l),
(400,160,ls),
(400,196,o)
);
}
);
width = 720;
}
);
note = uni0295;
unicode = 661;
},
{
glyphname = uni0296;
layers = (
{
layerId = m01;
shapes = (
{
closed = 1;
nodes = (
(370,230,o),
(430,202,o),
(480,158,o),
(480,130,qs),
(480,109,o),
(410,80,o),
(360,80,qs),
(317,80,o),
(250,103,o),
(242,120,q),
(162,110,l),
(173,63,o),
(285,0,o),
(360,0,qs),
(443,0,o),
(560,76,o),
(560,130,qs),
(560,166,o),
(510,220,o),
(450,248,o),
(400,292,o),
(400,320,qs),
(400,480,l),
(320,480,l),
(320,320,ls),
(320,284,o)
);
}
);
width = 720;
}
);
note = uni0296;
unicode = 662;
},
{
glyphname = uni0299;
layers = (
{
layerId = m01;
shapes = (
{
closed = 1;
nodes = (
(160,0,l),
(400,0,ls),
(466,0,o),
(560,69,o),
(560,120,qs),
(560,166,o),
(520,200,q),
(560,234,o),
(560,280,qs),
(560,331,o),
(466,400,o),
(400,400,qs),
(160,400,l)
);
},
{
closed = 1;
nodes = (
(240,320,l),
(400,320,ls),
(434,320,o),
(480,298,o),
(480,262,o),
(434,240,o),
(400,240,qs),
(240,240,l)
);
},
{
closed = 1;
nodes = (
(434,160,o),
(480,138,o),
(480,102,o),
(434,80,o),
(400,80,qs),
(240,80,l),
(240,160,l),
(400,160,ls)
);
}
);
width = 720;
}
);
note = uni0299;
unicode = 665;
},
{
glyphname = uni029A;
layers = (
{
layerId = m01;
shapes = (
{
closed = 1;
nodes = (
(360,400,qs),
(277,400,o),
(160,331,o),
(160,280,qs),
(160,237,o),
(220,204,q),
(193,189,o),
(160,144,o),
(160,120,qs),
(160,69,o),
(277,0,o),
(360,0,qs),
(437,0,o),
(560,119,o),
(560,281,o),
(437,400,o)
);
},
{
closed = 1;
nodes = (
(360,80,qs),
(309,80,o),
(240,102,o),
(240,138,o),
(309,160,o),
(360,160,qs),
(400,160,l),
(400,240,l),
(360,240,ls),
(309,240,o),
(240,262,o),
(240,298,o),
(309,320,o),
(360,320,qs),
(406,320,o),
(480,248,o),
(480,152,o),
(405,80,o)
);
}
);
width = 720;
}
);
note = uni029A;
unicode = 666;
},
{
glyphname = uni029C;
layers = (
{
layerId = m01;
shapes = (
{
closed = 1;
nodes = (
(240,0,l),
(240,160,l),
(480,160,l),
(480,0,l),
(560,0,l),
(560,400,l),
(480,400,l),
(480,240,l),
(240,240,l),
(240,400,l),
(160,400,l),
(160,0,l)
);
}
);
width = 720;
}
);
note = uni029C;
unicode = 668;
},
{
glyphname = uni029E;
layers = (
{
layerId = m01;
shapes = (
{
closed = 1;
nodes = (
(480,400,l),
(480,297,l),
(400,217,l),
(217,400,l),
(103,400,l),
(343,160,l),
(183,0,l),
(297,0,l),
(480,183,l),
(480,-120,l),
(560,-120,l),
(560,400,l)
);
}
);
width = 720;
}
);
note = uni029E;
unicode = 670;
},
{
glyphname = uni029F;
layers = (
{
layerId = m01;
shapes = (
{
closed = 1;
nodes = (
(560,0,l),
(560,80,l),
(240,80,l),
(240,400,l),
(160,400,l),
(160,0,l)
);
}
);
width = 720;
}
);
note = uni029F;
unicode = 671;
},
{
glyphname = circumflex;
layers = (
{
layerId = m01;
shapes = (
{
closed = 1;
nodes = (
(452,332,l),
(508,388,l),
(360,537,l),
(212,388,l),
(268,332,l),
(360,423,l)
);
}
);
width = 720;
}
);
note = circumflex;
unicode = 710;
},
{
glyphname = caron;
layers = (
{
layerId = m01;
shapes = (
{
closed = 1;
nodes = (
(268,548,l),
(212,492,l),
(360,343,l),
(508,492,l),
(452,548,l),
(360,457,l)
);
}
);
width = 720;
}
);
note = caron;
unicode = 711;
},
{
glyphname = uni02C8;
layers = (
{
layerId = m01;
shapes = (
{
closed = 1;
nodes = (
(320,320,l),
(400,320,l),
(400,560,l),
(320,560,l)
);
}
);
width = 720;
}
);
note = uni02C8;
unicode = 712;
},
{
glyphname = uni02C9;
layers = (
{
layerId = m01;
shapes = (
{
closed = 1;
nodes = (
(480,400,l),
(480,480,l),
(240,480,l),
(240,400,l)
);
}
);
width = 720;
}
);
note = uni02C9;
unicode = 713;
},
{
glyphname = uni02CA;
layers = (
{
layerId = m01;
shapes = (
{
closed = 1;
nodes = (
(497,480,l),
(440,537,l),
(292,388,l),
(348,332,l)
);
}
);
width = 720;
}
);
note = uni02CA;
unicode = 714;
},
{
glyphname = uni02CB;
layers = (
{
layerId = m01;
shapes = (
{
closed = 1;
nodes = (
(428,388,l),
(280,537,l),
(223,480,l),
(372,332,l)
);
}
);
width = 720;
}
);
note = uni02CB;
unicode = 715;
},
{
glyphname = uni02CC;
layers = (
{
layerId = m01;
shapes = (
{
closed = 1;
nodes = (
(320,-160,l),
(400,-160,l),
(400,80,l),
(320,80,l)
);
}
);
width = 720;
}
);
note = uni02CC;
unicode = 716;
},
{
glyphname = uni02CD;
layers = (
{
layerId = m01;
shapes = (
{
closed = 1;
nodes = (
(480,-80,l),
(480,0,l),
(240,0,l),
(240,-80,l)
);
}
);
width = 720;
}
);
note = uni02CD;
unicode = 717;
},
{
glyphname = uni02CE;
layers = (
{
layerId = m01;
shapes = (
{
closed = 1;
nodes = (
(428,-92,l),
(280,57,l),
(223,0,l),
(372,-148,l)
);
}
);
width = 720;
}
);
note = uni02CE;
unicode = 718;
},
{
glyphname = uni02CF;
layers = (
{
layerId = m01;
shapes = (
{
closed = 1;
nodes = (
(497,0,l),
(440,57,l),
(292,-92,l),
(348,-148,l)
);
}
);
width = 720;
}
);
note = uni02CF;
unicode = 719;
},
{
glyphname = uni02D0;
layers = (
{
layerId = m01;
shapes = (
{
closed = 1;
nodes = (
(360,160,l),
(240,0,l),
(480,0,l)
);
},
{
closed = 1;
nodes = (
(480,400,l),
(240,400,l),
(360,240,l)
);
}
);
width = 720;
}
);
note = uni02D0;
unicode = 720;
},
{
glyphname = uni02D1;
layers = (
{
layerId = m01;
shapes = (
{
closed = 1;
nodes = (
(480,400,l),
(240,400,l),
(360,240,l)
);
}
);
width = 720;
}
);
note = uni02D1;
unicode = 721;
},
{
glyphname = breve;
layers = (
{
layerId = m01;
shapes = (
{
closed = 1;
nodes = (
(353,480,o),
(287,480,o),
(240,504,o),
(240,520,q),
(160,520,l),
(160,470,o),
(254,400,o),
(386,400,o),
(480,470,o),
(480,520,q),
(400,520,l),
(400,504,o)
);
}
);
width = 720;
}
);
note = breve;
unicode = 728;
},
{
glyphname = dotaccent;
layers = (
{
layerId = m01;
shapes = (
{
closed = 1;
nodes = (
(400,400,l),
(400,480,l),
(320,480,l),
(320,400,l)
);
}
);
width = 720;
}
);
note = dotaccent;
unicode = 729;
},
{
glyphname = ring;
layers = (
{
layerId = m01;
shapes = (
{
closed = 1;
nodes = (
(353,440,o),
(400,416,o),
(400,384,o),
(353,360,o),
(287,360,o),
(240,384,o),
(240,416,o),
(287,440,o)
);
},
{
closed = 1;
nodes = (
(254,280,o),
(386,280,o),
(480,350,o),
(480,400,qs),
(480,449,o),
(386,520,o),
(254,520,o),
(160,449,o),
(160,400,qs),
(160,350,o)
);
}
);
width = 720;
}
);
note = ring;
unicode = 730;
},
{
glyphname = ogonek;
layers = (
{
layerId = m01;
shapes = (
{
closed = 1;
nodes = (
(390,-160,o),
(490,-160,o),
(525,-125,q),
(468,-68,l),
(456,-80,o),
(424,-80,o),
(400,-56,o),
(400,-40,qs),
(400,-28,o),
(407,-18,q),
(441,16,l),
(360,97,l),
(303,40,l),
(331,12,l),
(320,-13,o),
(320,-40,qs),
(320,-90,o)
);
}
);
width = 720;
}
);
note = ogonek;
unicode = 731;
},
{
glyphname = tilde;
layers = (
{
layerId = m01;
shapes = (
{
closed = 1;
nodes = (
(419,384,qs),
(462,384,o),
(537,426,o),
(559,464,q),
(489,504,l),
(465,464,o),
(420,464,qs),
(400,464,o),
(380,475,qs),
(342,496,o),
(301,496,qs),
(258,496,o),
(183,454,o),
(161,416,q),
(231,376,l),
(255,416,o),
(300,416,qs),
(320,416,o),
(340,405,qs),
(378,384,o)
);
}
);
width = 720;
}
);
note = tilde;
unicode = 732;
},
{
glyphname = hungarumlaut;
layers = (
{
layerId = m01;
shapes = (
{
closed = 1;
nodes = (
(377,480,l),
(320,537,l),
(172,388,l),
(228,332,l)
);
},
{
closed = 1;
nodes = (
(617,480,l),
(560,537,l),
(412,388,l),
(468,332,l)
);
}
);
width = 720;
}
);
note = hungarumlaut;
unicode = 733;
},
{
glyphname = uni037B;
layers = (
{
layerId = m01;
shapes = (
{
closed = 1;
nodes = (
(360,400,qs),
(296,400,o),
(192,324,o),
(171,265,q),
(252,251,l),
(267,282,o),
(325,320,o),
(360,320,qs),
(410,320,o),
(480,250,o),
(480,150,o),
(410,80,o),
(360,80,qs),
(325,80,o),
(267,118,o),
(252,149,q),
(171,135,l),
(192,76,o),
(296,0,o),
(360,0,qs),
(442,0,o),
(560,118,o),
(560,282,o),
(442,400,o)
);
}
);
width = 720;
}
);
note = uni037B;
unicode = 891;
},
{
glyphname = uni037C;
layers = (
{
layerId = m01;
shapes = (
{
closed = 1;
nodes = (
(381,150,o),
(410,179,o),
(410,221,o),
(381,250,o),
(339,250,o),
(310,221,o),
(310,179,o),
(339,150,o)
);
},
{
closed = 1;
nodes = (
(360,0,qs),
(424,0,o),
(528,76,o),
(549,135,q),
(468,149,l),
(453,118,o),
(395,80,o),
(360,80,qs),
(310,80,o),
(240,150,o),
(240,250,o),
(310,320,o),
(360,320,qs),
(395,320,o),
(453,282,o),
(468,251,q),
(549,265,l),
(528,324,o),
(424,400,o),
(360,400,qs),
(278,400,o),
(160,282,o),
(160,118,o),
(278,0,o)
);
}
);
width = 720;
}
);
note = uni037C;
unicode = 892;
},
{
glyphname = uni037D;
layers = (
{
layerId = m01;
shapes = (
{
closed = 1;
nodes = (
(381,150,o),
(410,179,o),
(410,221,o),
(381,250,o),
(339,250,o),
(310,221,o),
(310,179,o),
(339,150,o)
);
},
{
closed = 1;
nodes = (
(360,400,qs),
(296,400,o),
(192,324,o),
(171,265,q),
(252,251,l),
(267,282,o),
(325,320,o),
(360,320,qs),
(410,320,o),
(480,250,o),
(480,150,o),
(410,80,o),
(360,80,qs),
(325,80,o),
(267,118,o),
(252,149,q),
(171,135,l),
(192,76,o),
(296,0,o),
(360,0,qs),
(442,0,o),
(560,118,o),
(560,282,o),
(442,400,o)
);
}
);
width = 720;
}
);
note = uni037D;
unicode = 893;
},
{
glyphname = uni037E;
layers = (
{
layerId = m01;
shapes = (
{
closed = 1;
nodes = (
(240,-97,l),
(377,40,l),
(320,97,l),
(183,-40,l)
);
},
{
closed = 1;
nodes = (
(341,240,o),
(370,269,o),
(370,311,o),
(341,340,o),
(299,340,o),
(270,311,o),
(270,269,o),
(299,240,o)
);
}
);
width = 720;
}
);
note = uni037E;
unicode = 894;
},
{
glyphname = uni037F;
layers = (
{
layerId = m01;
shapes = (
{
closed = 1;
nodes = (
(400,400,l),
(400,200,ls),
(400,150,o),
(330,80,o),
(280,80,qs),
(245,80,o),
(187,118,o),
(172,149,q),
(91,135,l),
(112,76,o),
(216,0,o),
(280,0,qs),
(362,0,o),
(480,118,o),
(480,200,qs),
(480,400,l),
(560,400,l),
(560,480,l),
(320,480,l),
(320,400,l)
);
}
);
width = 720;
}
);
note = uni037F;
unicode = 895;
},
{
glyphname = tonos;
layers = (
{
layerId = m01;
shapes = (
{
closed = 1;
nodes = (
(497,480,l),
(440,537,l),
(292,388,l),
(348,332,l)
);
}
);
width = 720;
}
);
note = tonos;
unicode = 900;
},
{
glyphname = dieresistonos;
layers = (
{
layerId = m01;
shapes = (
{
closed = 1;
nodes = (
(457,480,l),
(400,537,l),
(252,388,l),
(308,332,l)
);
},
{
closed = 1;
nodes = (
(560,400,l),
(560,480,l),
(480,480,l),
(480,400,l)
);
},
{
closed = 1;
nodes = (
(240,400,l),
(240,480,l),
(160,480,l),
(160,400,l)
);
}
);
width = 720;
}
);
note = dieresistonos;
unicode = 901;
},
{
glyphname = Alphatonos;
layers = (
{
layerId = m01;
shapes = (
{
closed = 1;
nodes = (
(480,183,l),
(480,180,l),
(240,180,l),
(240,183,l),
(360,303,l)
);
},
{
closed = 1;
nodes = (
(240,0,l),
(240,100,l),
(480,100,l),
(480,0,l),
(560,0,l),
(560,217,l),
(377,400,l),
(343,400,l),
(160,217,l),
(160,0,l)
);
},
{
closed = 1;
nodes = (
(509,591,l),
(452,648,l),
(304,499,l),
(360,443,l)
);
}
);
width = 720;
}
);
note = Alphatonos;
unicode = 902;
},
{
glyphname = anoteleia;
layers = (
{
layerId = m01;
shapes = (
{
closed = 1;
nodes = (
(341,160,o),
(370,189,o),
(370,231,o),
(341,260,o),
(299,260,o),
(270,231,o),
(270,189,o),
(299,160,o)
);
}
);
width = 720;
}
);
note = anoteleia;
unicode = 903;
},
{
glyphname = Epsilontonos;
layers = (
{
layerId = m01;
shapes = (
{
closed = 1;
nodes = (
(560,400,l),
(160,400,l),
(160,0,l),
(560,0,l),
(560,80,l),
(240,80,l),
(240,160,l),
(440,160,l),
(440,240,l),
(240,240,l),
(240,320,l),
(560,320,l)
);
},
{
closed = 1;
nodes = (
(509,591,l),
(452,648,l),
(304,499,l),
(360,443,l)
);
}
);
width = 720;
}
);
note = Epsilontonos;
unicode = 904;
},
{
glyphname = Etatonos;
layers = (
{
layerId = m01;
shapes = (
{
closed = 1;
nodes = (
(509,591,l),
(452,648,l),
(304,499,l),
(360,443,l)
);
},
{
closed = 1;
nodes = (
(240,0,l),
(240,160,l),
(480,160,l),
(480,0,l),
(560,0,l),
(560,400,l),
(480,400,l),
(480,240,l),
(240,240,l),
(240,400,l),
(160,400,l),
(160,0,l)
);
}
);
width = 720;
}
);
note = Etatonos;
unicode = 905;
},
{
glyphname = Iotatonos;
layers = (
{
layerId = m01;
shapes = (
{
closed = 1;
nodes = (
(320,320,l),
(320,80,l),
(240,80,l),
(240,0,l),
(480,0,l),
(480,80,l),
(400,80,l),
(400,320,l),
(480,320,l),
(480,400,l),
(240,400,l),
(240,320,l)
);
},
{
closed = 1;
nodes = (
(509,591,l),
(452,648,l),
(304,499,l),
(360,443,l)
);
}
);
width = 720;
}
);
note = Iotatonos;
unicode = 906;
},
